<?xml version="1.0" standalone="no"?>
<svg xmlns="http://www.w3.org/2000/svg" width="1120" height="526.416015625"><g transform="translate(70,20)"><g class="x axis" transform="translate(0,400)" fill="none" font-size="10" font-family="sans-serif" text-anchor="middle"><path class="domain" stroke="#000" d="M0.5,6V0.5H1000.5V6"/><g class="tick" opacity="1" transform="translate(134.1463414634146,0)"><line stroke="#000" y2="6"/><text fill="#000" y="9" dy="-0.5em" dx="-.8em" style="text-anchor: end;" transform="rotate(-90)">T1C (n=8)</text></g><g class="tick" opacity="1" transform="translate(378.04878048780483,0)"><line stroke="#000" y2="6"/><text fill="#000" y="9" dy="-0.5em" dx="-.8em" style="text-anchor: end;" transform="rotate(-90)">T32C (n=10)</text></g><g class="tick" opacity="1" transform="translate(621.9512195121952,0)"><line stroke="#000" y2="6"/><text fill="#000" y="9" dy="-0.5em" dx="-.8em" style="text-anchor: end;" transform="rotate(-90)">T32L (n=10)</text></g><g class="tick" opacity="1" transform="translate(865.8536585365853,0)"><line stroke="#000" y2="6"/><text fill="#000" y="9" dy="-0.5em" dx="-.8em" style="text-anchor: end;" transform="rotate(-90)">T34L (n=9)</text></g></g><g class="y axis" fill="none" font-size="10" font-family="sans-serif" text-anchor="end"><path class="domain" stroke="#000" d="M-6,400.5H0.5V0.5H-6"/><g class="tick" opacity="1" transform="translate(0,400.5)"><line stroke="#000" x2="-6"/><text fill="#000" x="-9" dy="0.32em">0.45</text></g><g class="tick" opacity="1" transform="translate(0,356.05555555555554)"><line stroke="#000" x2="-6"/><text fill="#000" x="-9" dy="0.32em">0.50</text></g><g class="tick" opacity="1" transform="translate(0,311.6111111111111)"><line stroke="#000" x2="-6"/><text fill="#000" x="-9" dy="0.32em">0.55</text></g><g class="tick" opacity="1" transform="translate(0,267.1666666666667)"><line stroke="#000" x2="-6"/><text fill="#000" x="-9" dy="0.32em">0.60</text></g><g class="tick" opacity="1" transform="translate(0,222.7222222222222)"><line stroke="#000" x2="-6"/><text fill="#000" x="-9" dy="0.32em">0.65</text></g><g class="tick" opacity="1" transform="translate(0,178.2777777777778)"><line stroke="#000" x2="-6"/><text fill="#000" x="-9" dy="0.32em">0.70</text></g><g class="tick" opacity="1" transform="translate(0,133.83333333333337)"><line stroke="#000" x2="-6"/><text fill="#000" x="-9" dy="0.32em">0.75</text></g><g class="tick" opacity="1" transform="translate(0,89.38888888888886)"><line stroke="#000" x2="-6"/><text fill="#000" x="-9" dy="0.32em">0.80</text></g><g class="tick" opacity="1" transform="translate(0,44.94444444444446)"><line stroke="#000" x2="-6"/><text fill="#000" x="-9" dy="0.32em">0.85</text></g><g class="tick" opacity="1" transform="translate(0,0.5)"><line stroke="#000" x2="-6"/><text fill="#000" x="-9" dy="0.32em">0.90</text></g></g><text class="x label" text-anchor="middle" transform="translate(500,496.416015625)" style="font: 12px sans-serif;">Category</text><text class="y label" text-anchor="middle" transform="translate(-50,200)rotate(-90)" style="font: 12px sans-serif;">pielou_e</text><g class="outlier" transform="translate(134.1463414634146,0)"/><line class="center" x1="134.1463414634146" y1="159.05196417777785" x2="134.1463414634146" y2="73.34182924444445" stroke-dasharray="2,2" stroke-width="1" stroke="black"/><line class="center" x1="378.04878048780483" y1="194.86329306666673" x2="378.04878048780483" y2="45.67871857777777" stroke-dasharray="2,2" stroke-width="1" stroke="black"/><line class="center" x1="621.9512195121952" y1="223.61643039999998" x2="621.9512195121952" y2="12.557521333333398" stroke-dasharray="2,2" stroke-width="1" stroke="black"/><line class="center" x1="865.8536585365853" y1="366.13859315555555" x2="865.8536585365853" y2="50.588317244444454" stroke-dasharray="2,2" stroke-width="1" stroke="black"/><g class="outlier" transform="translate(378.04878048780483,0)"><circle r="4" stroke-width="1" stroke="black" stroke-opacity="0.3" fill="black" fill-opacity="0.33" cx="0" cy="350.6567426666667"/></g><g class="outlier" transform="translate(621.9512195121952,0)"><circle r="4" stroke-width="1" stroke="black" stroke-opacity="0.3" fill="black" fill-opacity="0.33" cx="0" cy="348.2352570666667"/></g><g class="outlier" transform="translate(865.8536585365853,0)"/><rect class="box" x="24.390243902438954" y="85.79328397777778" width="219.51219512195127" height="57.03521140000004" fill="white" stroke-width="1" stroke="black"/><rect class="box" x="268.29268292682923" y="64.78875888888888" width="219.51219512195127" height="111.47700973333338" fill="white" stroke-width="1" stroke="black"/><rect class="box" x="512.1951219512196" y="88.91617855555552" width="219.51219512195127" height="94.37482822222225" fill="white" stroke-width="1" stroke="black"/><rect class="box" x="756.0975609756097" y="172.5049141333334" width="219.51219512195127" height="132.13584195555552" fill="white" stroke-width="1" stroke="black"/><line class="median" x1="24.390243902438954" y1="133.85642031111115" x2="243.90243902439022" y2="133.85642031111115" stroke-width="1" stroke="black"/><line class="median" x1="268.29268292682923" y1="122.45599608888892" x2="487.8048780487805" y2="122.45599608888892" stroke-width="1" stroke="black"/><line class="median" x1="512.1951219512196" y1="153.6948364888889" x2="731.7073170731708" y2="153.6948364888889" stroke-width="1" stroke="black"/><line class="median" x1="756.0975609756097" y1="217.61886977777775" x2="975.6097560975609" y2="217.61886977777775" stroke-width="1" stroke="black"/><g class="whisker" transform="translate(79.26829268292677,0)"><line class="median" x1="0" y1="159.05196417777785" x2="109.75609756097563" y2="159.05196417777785" stroke-width="1" stroke="black"/><line class="median" x1="0" y1="73.34182924444445" x2="109.75609756097563" y2="73.34182924444445" stroke-width="1" stroke="black"/></g><g class="whisker" transform="translate(323.17073170731703,0)"><line class="median" x1="0" y1="194.86329306666673" x2="109.75609756097563" y2="194.86329306666673" stroke-width="1" stroke="black"/><line class="median" x1="0" y1="45.67871857777777" x2="109.75609756097563" y2="45.67871857777777" stroke-width="1" stroke="black"/></g><g class="whisker" transform="translate(567.0731707317074,0)"><line class="median" x1="0" y1="223.61643039999998" x2="109.75609756097563" y2="223.61643039999998" stroke-width="1" stroke="black"/><line class="median" x1="0" y1="12.557521333333398" x2="109.75609756097563" y2="12.557521333333398" stroke-width="1" stroke="black"/></g><g class="whisker" transform="translate(810.9756097560975,0)"><line class="median" x1="0" y1="366.13859315555555" x2="109.75609756097563" y2="366.13859315555555" stroke-width="1" stroke="black"/><line class="median" x1="0" y1="50.588317244444454" x2="109.75609756097563" y2="50.588317244444454" stroke-width="1" stroke="black"/></g></g></svg>