<svg xmlns="http://www.w3.org/2000/svg" xmlns:xlink="http://www.w3.org/1999/xlink" width="1678" height="948" style="border: 1px solid black; overflow: hidden;"><defs/><g id="container"><g id="container_1" transform="matrix(-0.3457,-0.1996,0.1996,-0.3457,761.0000,507.00)"><g id="container_2"/><g id="container_3"/><g id="container_4"><g id="I949"><path d="M 4.105821018338396 140.0134365388518L 3.599201334746309 122.73709580185098M -19.22965344820828 138.74739855548833M -19.229653448208307 138.7473985554883A 140.07362413264573 140.07362413264573 0 0 0 27.327008438004007 137.38214872203366" style="fill:none;stroke:#000000;stroke-linecap:round;stroke-miterlimit:10;" id="shape"/></g><g id="I739"><path d="M 528.0678506503674 -849.2021815265792L 270.74312489840503 -435.3903613217221" style="fill:none;stroke:#000000;stroke-linecap:round;stroke-miterlimit:10;" id="shape_1"/></g><g id="I250"><path d="M -58.217652476592626 -48.3013031230184L -47.6078776761191 -39.498716160057654M -41.17865347147814 -63.455728201187156M -41.17865347147814 -63.455728201187156A 75.6459578779132 75.6459578779132 0 0 0 -69.96643689112824 -28.757758118928347" style="fill:none;stroke:#000000;stroke-linecap:round;stroke-miterlimit:10;" id="shape_2"/></g><g id="I1358"><path d="M -458.88019823841694 -30.07659720988874L -266.1809735084779 -17.446422739276784M -455.2487196779253 -64.99416332767532M -455.2487196779253 -64.99416332767552A 459.864804083825 459.864804083825 0 0 0 -459.83744442737486 5.016247357900563" style="fill:none;stroke:#000000;stroke-linecap:round;stroke-miterlimit:10;" id="shape_3"/></g><g id="I1346"><path d="M -187.11461531664136 63.23244720704328L -159.75484285596022 53.98664155584318M -194.22233286071517 35.88742207275073M -194.22233286071517 35.88742207275073A 197.51005454124657 197.51005454124657 0 0 0 -176.1779527754668 89.28354048049162" style="fill:none;stroke:#000000;stroke-linecap:round;stroke-miterlimit:10;" id="shape_4"/></g><g id="I600"><path d="M 141.94539105906435 -805.0123156917996L 141.92491734586218 -804.8962034943361" style="fill:none;stroke:#000000;stroke-linecap:round;stroke-miterlimit:10;" id="shape_5"/></g><g id="I653"><path d="M 157.90475282130217 -401.18537448667445L 131.1520105207478 -333.2152295313829M 206.34297827840487 -378.5580417594738M 206.34297827840487 -378.5580417594738A 431.1422220863665 431.1422220863665 0 0 0 107.03848925483179 -417.6438404712956" style="fill:none;stroke:#000000;stroke-linecap:round;stroke-miterlimit:10;" id="shape_6"/></g><g id="I951"><path d="M -84.51292381517229 292.92181510272854L -43.03754868762409 149.16815452653503M -112.04452762794712 283.5342093707502M -112.04452762794712 283.5342093707502A 304.86984772992264 304.86984772992264 0 0 0 -56.21196945638135 299.6428516495948" style="fill:none;stroke:#000000;stroke-linecap:round;stroke-miterlimit:10;" id="shape_7"/></g><g id="I963"><path d="M 17.701393909351516 405.42857598021504L 11.586039648637392 265.363935747219" style="fill:none;stroke:#000000;stroke-linecap:round;stroke-miterlimit:10;" id="shape_8"/></g><g id="I696"><g id="shape_9"><path d="M 324.42488240017013 -442.4597106199415L 303.1675224753087 -413.46832977604976" style="fill:none;stroke:#000000;stroke-linecap:round;stroke-miterlimit:10;"/><path d="M 324.42488240017013 -442.4597106199415L 581.9179790355887 -678.336120327042L 381.4985314981017 -613.4995432847772L 324.42488240017013 -442.4597106199415" style="fill:#000000;fill-opacity:0.5;stroke:#000000;stroke-linecap:round;stroke-miterlimit:10;"/></g></g><g id="I740"><path d="M -79.79316095486514 -32.79675976433352L -69.96643689112821 -28.75775811892841M -76.30434435571709 -40.251993971138454M -76.3043443557171 -40.25199397113842A 86.27036563159113 86.27036563159113 0 0 0 -82.55559265123526 -25.0429652439908" style="fill:none;stroke:#000000;stroke-linecap:round;stroke-miterlimit:10;" id="shape_10"/></g><g id="I633"><g id="shape_11"><path d="M 557.5471309968422 -189.26174813393473L 521.0946152586397 -176.88778642031767" style="fill:none;stroke:#000000;stroke-linecap:round;stroke-miterlimit:10;"/><path d="M 557.5471309968422 -189.26174813393473L 720.840866071312 -184.74525377974754L 653.486938769692 -279.0728765765665L 557.5471309968422 -189.26174813393473" style="fill:#000000;fill-opacity:0.5;stroke:#000000;stroke-linecap:round;stroke-miterlimit:10;"/></g></g><g id="I992"><path d="M -69.5853205443464 92.87858886864794L -61.1504585371742 81.62020743992898M -82.85599631066374 81.26150983619516M -82.85599631066378 81.26150983619513A 116.05407836647004 116.05407836647004 0 0 0 -54.70751383730259 102.35055952574034" style="fill:none;stroke:#000000;stroke-linecap:round;stroke-miterlimit:10;" id="shape_12"/></g><g id="I8"><g id="shape_13"><path d="M 12.889645246142887 1.9839061526202342L 0 0" style="fill:none;stroke:#000000;stroke-linecap:round;stroke-miterlimit:10;"/><path d="M 12.889645246142887 1.9839061526202342L 247.6571101794993 57.74553900553589L 106.49399420512923 8.147525951436533L 12.889645246142887 1.9839061526202342" style="fill:#000000;fill-opacity:0.5;stroke:#000000;stroke-linecap:round;stroke-miterlimit:10;"/></g></g><g id="I638"><g id="shape_14"><path d="M 372.94933753683864 -372.9493375368388L 311.06695710286846 -311.0669571028686" style="fill:none;stroke:#000000;stroke-linecap:round;stroke-miterlimit:10;"/><path d="M 372.94933753683864 -372.9493375368388L 554.9001383204651 -476.02708654572774L 424.0909915032752 -494.3587381829057L 372.94933753683864 -372.9493375368388" style="fill:#000000;fill-opacity:0.5;stroke:#000000;stroke-linecap:round;stroke-miterlimit:10;"/></g></g><g id="I788"><g id="shape_15"><path d="M -99.29152849696297 -30.119755879857617L -82.55559265123524 -25.04296524399087" style="fill:none;stroke:#000000;stroke-linecap:round;stroke-miterlimit:10;"/><path d="M -99.29152849696297 -30.119755879857617L -508.06009735350017 -197.57376636393553L -274.3166636046349 -60.814540195166266L -99.29152849696297 -30.119755879857617" style="fill:#000000;fill-opacity:0.5;stroke:#000000;stroke-linecap:round;stroke-miterlimit:10;"/></g></g><g id="I960"><path d="M -318.9873809414945 907.0768470450472L -121.90800777326875 346.65926593754875" style="fill:none;stroke:#000000;stroke-linecap:round;stroke-miterlimit:10;" id="shape_16"/></g><g id="I594"><path d="M 15.09697109474034 -368.857687610768L 14.543197919304124 -355.3275899726107M 50.18143753408581 -365.73998355773324M 50.18143753408581 -365.73998355773324A 369.1665101899119 369.1665101899119 0 0 0 -20.124928324444664 -368.61755181452537" style="fill:none;stroke:#000000;stroke-linecap:round;stroke-miterlimit:10;" id="shape_17"/></g><g id="I2105"><path d="M 61.58563071497891 38.0639078324424L 35.084066594467615 21.684225065738925M 57.677714719375615 43.75993846874955M 57.677714719375594 43.75993846874957A 72.39924716485956 72.39924716485956 0 0 0 64.9329112896503 32.02136820138747" style="fill:none;stroke:#000000;stroke-linecap:round;stroke-miterlimit:10;" id="shape_18"/></g><g id="I288"><path d="M -102.777913300519 -220.4079463484946L -91.88400629113761 -197.04588737548858M -85.66483789942122 -227.60601447157708M -85.66483789942122 -227.60601447157708A 243.19326116479846 243.19326116479846 0 0 0 -119.29202621885536 -211.92539903600462" style="fill:none;stroke:#000000;stroke-linecap:round;stroke-miterlimit:10;" id="shape_19"/></g><g id="I578"><g id="shape_20"><path d="M -110.10073233340495 -292.5306285670041L -85.66483789942122 -227.60601447157708" style="fill:none;stroke:#000000;stroke-linecap:round;stroke-miterlimit:10;"/><path d="M -110.10073233340495 -292.5306285670041L -149.19464748238664 -511.8636467580927L -195.48869755882635 -419.22686479630346L -110.10073233340495 -292.5306285670041" style="fill:#000000;fill-opacity:0.5;stroke:#000000;stroke-linecap:round;stroke-miterlimit:10;"/></g></g><g id="I1347"><path d="M -224.7255020288799 41.523643666688045L -194.22233286071517 35.88742207275073M -228.2542958647054 11.213414502180902M -228.2542958647054 11.213414502180902A 228.52956973987017 228.52956973987017 0 0 0 -217.18995145380384 71.09352455030289" style="fill:none;stroke:#000000;stroke-linecap:round;stroke-miterlimit:10;" id="shape_21"/></g><g id="I601"><path d="M 215.85876611570845 -285.72404894633985L 189.01872796293856 -250.19691000785048M 284.6906380196594 -217.21988785386523M 284.6906380196592 -217.21988785386546A 358.0966895341069 358.0966895341069 0 0 0 131.1520105207478 -333.2152295313829" style="fill:none;stroke:#000000;stroke-linecap:round;stroke-miterlimit:10;" id="shape_22"/></g><g id="I604"><g id="shape_23"><path d="M 419.16095864141874 -307.3415306524773L 379.8531186196126 -278.5198298955622" style="fill:none;stroke:#000000;stroke-linecap:round;stroke-miterlimit:10;"/><path d="M 419.16095864141874 -307.3415306524773L 584.1484257491206 -363.2468337417706L 465.1975135854009 -399.07471951734396L 419.16095864141874 -307.3415306524773" style="fill:#000000;fill-opacity:0.5;stroke:#000000;stroke-linecap:round;stroke-miterlimit:10;"/></g></g><g id="I237"><path d="M 17.059356606389674 20.679299976691603L 0 0M 6.326875812473954 26.05044601928152M 6.3268758124739595 26.050446019281516A 26.80774319762796 26.80774319762796 0 0 0 24.372741814196083 11.163536706998633" style="fill:none;stroke:#000000;stroke-linecap:round;stroke-miterlimit:10;" id="shape_24"/></g><g id="I1384"><g id="shape_25"><path d="M -208.96348955439908 105.89860924512337L -176.17795277546685 89.28354048049154" style="fill:none;stroke:#000000;stroke-linecap:round;stroke-miterlimit:10;"/><path d="M -208.96348955439908 105.89860924512337L -490.1946223739258 203.04526078963798L -429.6044053500203 260.6903526887665L -208.96348955439908 105.89860924512337" style="fill:#000000;fill-opacity:0.5;stroke:#000000;stroke-linecap:round;stroke-miterlimit:10;"/></g></g><g id="I987"><g id="shape_26"><path d="M 55.24610063896624 277.7409035282339L 27.32700843800398 137.38214872203366" style="fill:none;stroke:#000000;stroke-linecap:round;stroke-miterlimit:10;"/><path d="M 55.24610063896624 277.7409035282339L 41.05765175516081 340.52789334934454L 86.72535442343948 310.0928717466384L 55.24610063896624 277.7409035282339" style="fill:#000000;fill-opacity:0.5;stroke:#000000;stroke-linecap:round;stroke-miterlimit:10;"/></g></g><g id="I695"><path d="M 287.1645898417864 -424.73886654344653L 280.3590752243366 -414.6729786620297M 303.1675224753087 -413.46832977604976M 303.1675224753083 -413.46832977605A 512.7051846935167 512.7051846935167 0 0 0 270.7431248984047 -435.3903613217223" style="fill:none;stroke:#000000;stroke-linecap:round;stroke-miterlimit:10;" id="shape_27"/></g><g id="I952"><g id="shape_28"><path d="M -74.47197268347684 396.9794063195629L -56.21196945638148 299.6428516495948" style="fill:none;stroke:#000000;stroke-linecap:round;stroke-miterlimit:10;"/><path d="M -74.47197268347684 396.9794063195629L -162.8416768372903 607.7334115464791L -57.44770557327798 524.5512550911278L -74.47197268347684 396.9794063195629" style="fill:#000000;fill-opacity:0.5;stroke:#000000;stroke-linecap:round;stroke-miterlimit:10;"/></g></g><g id="I287"><path d="M -16.770101347096553 -216.76834650038657L -14.122642665108161 -182.54760870967107M 60.48347471937964 -208.83366976992411M 60.48347471937964 -208.83366976992411A 217.41608115248408 217.41608115248408 0 0 0 -91.88400629113761 -197.04588737548858" style="fill:none;stroke:#000000;stroke-linecap:round;stroke-miterlimit:10;" id="shape_29"/></g><g id="I253"><g id="shape_30"><path d="M -439.7967354045321 -352.97419765028656L -407.6411147331683 -327.1665836033528" style="fill:none;stroke:#000000;stroke-linecap:round;stroke-miterlimit:10;"/><path d="M -439.7967354045321 -352.97419765028656L -411.58895121052825 -385.4951204889174L -465.4415005987431 -318.3962345878761L -439.7967354045321 -352.97419765028656" style="fill:#000000;fill-opacity:0.5;stroke:#000000;stroke-linecap:round;stroke-miterlimit:10;"/></g></g><g id="I964"><g id="shape_31"><path d="M -11.45427221364777 349.89182047719896L -8.690736246823205 265.474529500444" style="fill:none;stroke:#000000;stroke-linecap:round;stroke-miterlimit:10;"/><path d="M -11.45427221364777 349.89182047719896L -73.36501905135657 669.8912069531708L 20.521689274982442 470.0239598119528L -11.45427221364777 349.89182047719896" style="fill:#000000;fill-opacity:0.5;stroke:#000000;stroke-linecap:round;stroke-miterlimit:10;"/></g></g><g id="I1348"><path d="M -266.4307956536315 13.08890567203557L -228.2542958647054 11.213414502180902M -266.1809735084779 -17.446422739276784M -266.1809735084779 -17.4464227392769A 266.75211025279367 266.75211025279367 0 0 0 -263.18919090048934 43.452711278634396" style="fill:none;stroke:#000000;stroke-linecap:round;stroke-miterlimit:10;" id="shape_32"/></g><g id="I743"><g id="shape_33"><path d="M -247.72000143884028 -143.02120951436896L -144.71448209360318 -83.55094519237909" style="fill:none;stroke:#000000;stroke-linecap:round;stroke-miterlimit:10;"/><path d="M -247.72000143884028 -143.02120951436896L -404.6354454676531 -276.80041863898316L -344.8457902987876 -165.40746567405577L -247.72000143884028 -143.02120951436896" style="fill:#000000;fill-opacity:0.5;stroke:#000000;stroke-linecap:round;stroke-miterlimit:10;"/></g></g><g id="I2106"><path d="M 70.75821819323502 53.68408386773615L 57.677714719375615 43.75993846874955M 68.6575434874581 56.345789770553274M 68.65754348745807 56.34578977055329A 88.81838943934744 88.81838943934744 0 0 0 72.75576527969724 50.944135297060306" style="fill:none;stroke:#000000;stroke-linecap:round;stroke-miterlimit:10;" id="shape_34"/></g><g id="I948"><path d="M 141.6463743725789 506.4670106418281L 33.07222665888257 118.25217444066" style="fill:none;stroke:#000000;stroke-linecap:round;stroke-miterlimit:10;" id="shape_35"/></g><g id="I676"><g id="shape_36"><path d="M 209.88089994446793 -491.46455396681586L 196.58701949177959 -460.33513233341654" style="fill:none;stroke:#000000;stroke-linecap:round;stroke-miterlimit:10;"/><path d="M 209.88089994446793 -491.46455396681586L 369.51321823886843 -709.8282879164634L 224.58765074258977 -661.6138842817769L 209.88089994446793 -491.46455396681586" style="fill:#000000;fill-opacity:0.5;stroke:#000000;stroke-linecap:round;stroke-miterlimit:10;"/></g></g><g id="I618"><g id="shape_37"><path d="M 542.2963009093129 -282.3015858894831L 488.12109198774834 -254.0997571681596" style="fill:none;stroke:#000000;stroke-linecap:round;stroke-miterlimit:10;"/><path d="M 542.2963009093129 -282.3015858894831L 874.6196837637575 -373.5080482526073L 594.4519102813786 -369.65395215187385L 542.2963009093129 -282.3015858894831" style="fill:#000000;fill-opacity:0.5;stroke:#000000;stroke-linecap:round;stroke-miterlimit:10;"/></g></g><g id="I1381"><g id="shape_38"><path d="M -346.24394794521396 113.33720758657L -217.18995145380387 71.09352455030279" style="fill:none;stroke:#000000;stroke-linecap:round;stroke-miterlimit:10;"/><path d="M -346.24394794521396 113.33720758657L -395.77986930247386 96.84671787970598L -369.7680563525464 153.16294387356368L -346.24394794521396 113.33720758657" style="fill:#000000;fill-opacity:0.5;stroke:#000000;stroke-linecap:round;stroke-miterlimit:10;"/></g></g><g id="I1734"><g id="shape_39"><path d="M 45.51858126986912 50.775841388102954L 28.816386682500394 32.14459323532184" style="fill:none;stroke:#000000;stroke-linecap:round;stroke-miterlimit:10;"/><path d="M 45.51858126986912 50.775841388102954L 186.79723003087014 243.4388897526852L 170.19640775775702 162.92761570793292L 45.51858126986912 50.775841388102954" style="fill:#000000;fill-opacity:0.5;stroke:#000000;stroke-linecap:round;stroke-miterlimit:10;"/></g></g><g id="I238"><path d="M 10.188547692151412 41.950596081872796L 6.326875812473954 26.05044601928152M -10.86199653197246 41.781288240540206M -10.861996531972443 41.78128824054021A 43.17011716106044 43.17011716106044 0 0 0 28.816386682500404 32.144593235321835" style="fill:none;stroke:#000000;stroke-linecap:round;stroke-miterlimit:10;" id="shape_40"/></g><g id="I1316"><path d="M -94.58612202770219 92.76590020959588L -82.85599631066374 81.26150983619516M -107.50484540812502 77.42580277731201M -107.50484540812505 77.42580277731196A 132.4841376238532 132.4841376238532 0 0 0 -79.4999207342712 105.9802308224542" style="fill:none;stroke:#000000;stroke-linecap:round;stroke-miterlimit:10;" id="shape_41"/></g><g id="I584"><path d="M -29.545323320342543 -354.39564708297456L -26.05144467281639 -312.4866325599592M 14.543197919304124 -355.3275899726107M 14.543197919304124 -355.3275899726107A 355.62508460661746 355.62508460661746 0 0 0 -73.17953796253953 -348.0143043397111" style="fill:none;stroke:#000000;stroke-linecap:round;stroke-miterlimit:10;" id="shape_42"/></g><g id="I599"><path d="M 80.36343159949908 -815.9436139626685L 80.11068544832678 -813.3774392250039" style="fill:none;stroke:#000000;stroke-linecap:round;stroke-miterlimit:10;" id="shape_43"/></g><g id="I602"><path d="M 349.73714326333936 -266.8505840811936L 284.6906380196594 -217.21988785386523M 382.171670172478 -217.8763826578145M 382.171670172478 -217.8763826578145A 439.9151095410065 439.9151095410065 0 0 0 311.06695710286823 -311.0669571028689" style="fill:none;stroke:#000000;stroke-linecap:round;stroke-miterlimit:10;" id="shape_44"/></g><g id="I1436"><g id="shape_45"><path d="M -145.28967805863377 142.15402924451837L -103.60488708000838 101.36888142805915" style="fill:none;stroke:#000000;stroke-linecap:round;stroke-miterlimit:10;"/><path d="M -145.28967805863377 142.15402924451837L -359.81351790160335 301.91939016383515L -191.46426297453695 218.32314897157997L -145.28967805863377 142.15402924451837" style="fill:#000000;fill-opacity:0.5;stroke:#000000;stroke-linecap:round;stroke-miterlimit:10;"/></g></g><g id="I947"><path d="M 18.472331679487386 121.39242932919578L 15.342697335411215 100.82578281529811M 3.599201334746309 122.73709580185098M 3.599201334746309 122.73709580185098A 122.78985681285236 122.78985681285236 0 0 0 33.0722266588826 118.25217444066" style="fill:none;stroke:#000000;stroke-linecap:round;stroke-miterlimit:10;" id="shape_46"/></g><g id="I289"><g id="shape_47"><path d="M -129.15279209333355 -229.44330705540165L -119.29202621885536 -211.92539903600462" style="fill:none;stroke:#000000;stroke-linecap:round;stroke-miterlimit:10;"/><path d="M -129.15279209333355 -229.44330705540165L -303.22543317582983 -650.2690399200764L -224.29897827343248 -335.6871434440004L -129.15279209333355 -229.44330705540165" style="fill:#000000;fill-opacity:0.5;stroke:#000000;stroke-linecap:round;stroke-miterlimit:10;"/></g></g><g id="I585"><g id="shape_48"><path d="M -77.0551416049502 -366.44521471523586L -73.17953796253984 -348.01430433971103" style="fill:none;stroke:#000000;stroke-linecap:round;stroke-miterlimit:10;"/><path d="M -77.0551416049502 -366.44521471523586L -90.44713145070452 -687.0141707008809L -155.43517383229897 -533.2739227234767L -77.0551416049502 -366.44521471523586" style="fill:#000000;fill-opacity:0.5;stroke:#000000;stroke-linecap:round;stroke-miterlimit:10;"/></g></g><g id="I252"><path d="M -381.4957351354327 -357.3097478674007L -94.96956216878426 -88.94870161932262M -353.12709934050736 -385.3706054682287M -353.12709934050736 -385.3706054682287A 522.6942240426899 522.6942240426899 0 0 0 -407.6411147331683 -327.1665836033528" style="fill:none;stroke:#000000;stroke-linecap:round;stroke-miterlimit:10;" id="shape_49"/></g><g id="I2107"><path d="M 243.45700547303693 170.470430462183L 72.75576527969726 50.944135297060285" style="fill:none;stroke:#000000;stroke-linecap:round;stroke-miterlimit:10;" id="shape_50"/></g><g id="I675"><path d="M 239.56346212583412 -439.50453684503583L 206.34297827840487 -378.5580417594738M 280.3590752243366 -414.6729786620297M 280.3590752243366 -414.6729786620297A 500.5545827310798 500.5545827310798 0 0 0 196.58701949177959 -460.33513233341654" style="fill:none;stroke:#000000;stroke-linecap:round;stroke-miterlimit:10;" id="shape_51"/></g><g id="I961"><path d="M -273.27914354255984 621.0740979054872L -147.99733057193023 336.34951934437237" style="fill:none;stroke:#000000;stroke-linecap:round;stroke-miterlimit:10;" id="shape_52"/></g><g id="I1"><g id="shape_53"><path d="M 31.55008056733377 0L 0 0" style="fill:none;stroke:#000000;stroke-linecap:round;stroke-miterlimit:10;"/><path d="M 31.55008056733377 0L 266.66059574785595 20.40137700062469L 163.58236859524115 -12.515180816299878L 31.55008056733377 0" style="fill:#000000;fill-opacity:0.5;stroke:#000000;stroke-linecap:round;stroke-miterlimit:10;"/></g></g><g id="I1344"><path d="M -117.61786260693806 84.70927425384218L -107.50484540812502 77.42580277731201M -128.97777716296895 66.13891250192073M -128.977777162969 66.13891250192067A 144.9469652970948 144.9469652970948 0 0 0 -103.60488708000847 101.36888142805908" style="fill:none;stroke:#000000;stroke-linecap:round;stroke-miterlimit:10;" id="shape_54"/></g><g id="I256"><g id="shape_55"><path d="M -361.67519575303993 -394.6992157511852L -353.12709934050736 -385.3706054682287" style="fill:none;stroke:#000000;stroke-linecap:round;stroke-miterlimit:10;"/><path d="M -361.67519575303993 -394.6992157511852L -412.6474334627084 -525.7961358551923L -446.0613325988183 -417.7820290119342L -361.67519575303993 -394.6992157511852" style="fill:#000000;fill-opacity:0.5;stroke:#000000;stroke-linecap:round;stroke-miterlimit:10;"/></g></g><g id="I1359"><g id="shape_56"><path d="M -542.059267516151 5.913183890210256L -459.83744442737486 5.016247357900563" style="fill:none;stroke:#000000;stroke-linecap:round;stroke-miterlimit:10;"/><path d="M -542.059267516151 5.913183890210256L -725.7779712057302 -47.57000146784168L -692.6285279894873 60.59714423372831L -542.059267516151 5.913183890210256" style="fill:#000000;fill-opacity:0.5;stroke:#000000;stroke-linecap:round;stroke-miterlimit:10;"/></g></g><g id="I603"><path d="M 409.1954230881096 -233.28264636239297L 382.171670172478 -217.8763826578145M 433.1754498839964 -184.988423929433M 433.1754498839964 -184.988423929433A 471.0219606027922 471.0219606027922 0 0 0 379.8531186196123 -278.5198298955625" style="fill:none;stroke:#000000;stroke-linecap:round;stroke-miterlimit:10;" id="shape_57"/></g><g id="I742"><path d="M -402.36963294520666 -192.99914083915866L -150.66640141199136 -72.26809292987065" style="fill:none;stroke:#000000;stroke-linecap:round;stroke-miterlimit:10;" id="shape_58"/></g><g id="I1740"><g id="shape_59"><path d="M 51.49840810510522 16.237385704735306L 39.335446569303215 12.40241866331527" style="fill:none;stroke:#000000;stroke-linecap:round;stroke-miterlimit:10;"/><path d="M 51.49840810510522 16.237385704735306L 470.47515821827994 188.89138503577334L 173.00062234226897 40.338087520309095L 51.49840810510522 16.237385704735306" style="fill:#000000;fill-opacity:0.5;stroke:#000000;stroke-linecap:round;stroke-miterlimit:10;"/></g></g><g id="I1739"><path d="M 37.498052848197105 17.175371265287854L 24.372741814196083 11.163536706998636M 35.084066594467615 21.684225065738925M 35.084066594467615 21.68422506573893A 41.2443613783346 41.2443613783346 0 0 0 39.33544656930322 12.402418663315258" style="fill:none;stroke:#000000;stroke-linecap:round;stroke-miterlimit:10;" id="shape_60"/></g><g id="I946"><path d="M -24.83548425044661 98.916305854442L -18.112198051626283 72.13838490540712M -61.1504585371742 81.62020743992898M -61.15045853717414 81.62020743992902A 101.98645420762357 101.98645420762357 0 0 0 15.342697335411192 100.82578281529813" style="fill:none;stroke:#000000;stroke-linecap:round;stroke-miterlimit:10;" id="shape_61"/></g><g id="I251"><path d="M -70.83189556176009 -109.15095890289639L -41.17865347147814 -63.455728201187156M -42.54935223494317 -122.96601921946M -42.54935223494328 -122.96601921945995A 130.11951912873744 130.11951912873744 0 0 0 -94.96956216878426 -88.94870161932262" style="fill:none;stroke:#000000;stroke-linecap:round;stroke-miterlimit:10;" id="shape_62"/></g><g id="I2108"><g id="shape_63"><path d="M 75.98423284263045 62.35864833133333L 68.6575434874581 56.345789770553274" style="fill:none;stroke:#000000;stroke-linecap:round;stroke-miterlimit:10;"/><path d="M 75.98423284263045 62.35864833133333L 429.9482063865474 411.58586757110766L 188.5561728314876 132.0284535925805L 75.98423284263045 62.35864833133333" style="fill:#000000;fill-opacity:0.5;stroke:#000000;stroke-linecap:round;stroke-miterlimit:10;"/></g></g><g id="I617"><path d="M 506.082511103573 -216.12352715827006L 433.1754498839964 -184.988423929433M 521.0946152586397 -176.88778642031767M 521.0946152586397 -176.88778642031767A 550.2989069916727 550.2989069916727 0 0 0 488.1210919877481 -254.09975716816007" style="fill:none;stroke:#000000;stroke-linecap:round;stroke-miterlimit:10;" id="shape_64"/></g><g id="I950"><path d="M -21.31346039355765 153.78265613502748L -19.22965344820828 138.74739855548833M -43.03754868762409 149.16815452653503M -43.03754868762406 149.16815452653506A 155.2525971502308 155.2525971502308 0 0 0 0.8467673619117523 155.25028794474636" style="fill:none;stroke:#000000;stroke-linecap:round;stroke-miterlimit:10;" id="shape_65"/></g><g id="I741"><path d="M -147.7981470585163 -77.966335659879L -76.30434435571709 -40.251993971138454M -144.71448209360318 -83.55094519237909M -144.71448209360324 -83.55094519237898A 167.10189038475815 167.10189038475815 0 0 0 -150.66640141199142 -72.2680929298705" style="fill:none;stroke:#000000;stroke-linecap:round;stroke-miterlimit:10;" id="shape_66"/></g><g id="I1349"><g id="shape_67"><path d="M -326.3534765150952 53.881177039488584L -263.18919090048934 43.452711278634396" style="fill:none;stroke:#000000;stroke-linecap:round;stroke-miterlimit:10;"/><path d="M -326.3534765150952 53.881177039488584L -592.7550078907134 51.85934343865706L -505.5919436837888 123.71756152856466L -326.3534765150952 53.881177039488584" style="fill:#000000;fill-opacity:0.5;stroke:#000000;stroke-linecap:round;stroke-miterlimit:10;"/></g></g><g id="I654"><g id="shape_68"><path d="M 125.66603981976029 -490.32500227271566L 107.03848925483179 -417.6438404712956" style="fill:none;stroke:#000000;stroke-linecap:round;stroke-miterlimit:10;"/><path d="M 125.66603981976029 -490.32500227271566L 236.83949406597543 -697.7066508430496L 121.17518815831335 -687.2186415909991L 125.66603981976029 -490.32500227271566" style="fill:#000000;fill-opacity:0.5;stroke:#000000;stroke-linecap:round;stroke-miterlimit:10;"/></g></g><g id="I583"><path d="M 87.23294239933345 -301.192607908226L 60.48347471937964 -208.83366976992411M 189.01872796293856 -250.19691000785048M 189.01872796293856 -250.19691000785048A 313.5706830974538 313.5706830974538 0 0 0 -26.05144467281667 -312.4866325599592" style="fill:none;stroke:#000000;stroke-linecap:round;stroke-miterlimit:10;" id="shape_69"/></g><g id="I286"><path d="M -278.36737097997684 -416.60621154667535L -101.72106896984027 -152.23633800475662" style="fill:none;stroke:#000000;stroke-linecap:round;stroke-miterlimit:10;" id="shape_70"/></g><g id="I595"><g id="shape_71"><path d="M -24.413939184711793 -447.1770705133857L -20.12492832444499 -368.6175518145253" style="fill:none;stroke:#000000;stroke-linecap:round;stroke-miterlimit:10;"/><path d="M -24.413939184711793 -447.1770705133857L 14.807622093286344 -678.6237129722962L -76.7604654942939 -583.0536214729797L -24.413939184711793 -447.1770705133857" style="fill:#000000;fill-opacity:0.5;stroke:#000000;stroke-linecap:round;stroke-miterlimit:10;"/></g></g><g id="I598"><path d="M 111.09876267053788 -809.7268956236425L 50.18143753408581 -365.73998355773324M 141.92491734586218 -804.8962034943361M 141.92491734586218 -804.8962034943361A 817.3130248339528 817.3130248339528 0 0 0 80.11068544832678 -813.3774392250039" style="fill:none;stroke:#000000;stroke-linecap:round;stroke-miterlimit:10;" id="shape_72"/></g><g id="I959"><path d="M -135.05108528076684 341.75343946198194L -112.04452762794712 283.5342093707502M -147.99733057193023 336.34951934437237M -147.99733057193023 336.34951934437237A 367.47001104798676 367.47001104798676 0 0 0 -121.90800777326875 346.65926593754875" style="fill:none;stroke:#000000;stroke-linecap:round;stroke-miterlimit:10;" id="shape_73"/></g><g id="I945"><path d="M 6.6639375295265575 74.07827098160818L 5.542424132879683 61.611201334241095M -18.112198051626283 72.13838490540712M -18.11219805162627 72.13838490540714A 74.3774044654827 74.3774044654827 0 0 0 30.696077681509475 67.74768711913892" style="fill:none;stroke:#000000;stroke-linecap:round;stroke-miterlimit:10;" id="shape_74"/></g><g id="I240"><g id="shape_75"><path d="M 44.182534214294925 67.71127100721598L 27.597678000989507 42.29440179305713" style="fill:none;stroke:#000000;stroke-linecap:round;stroke-miterlimit:10;"/><path d="M 44.182534214294925 67.71127100721598L 132.03294089294846 240.66427200714196L 148.73252768469754 193.83200384550491L 44.182534214294925 67.71127100721598" style="fill:#000000;fill-opacity:0.5;stroke:#000000;stroke-linecap:round;stroke-miterlimit:10;"/></g></g><g id="I0"><path d="M 0 0L 0 0M 0 0M 0 0A 0 0 0 0 0 0 0" style="fill:none;stroke:#000000;stroke-linecap:round;stroke-miterlimit:10;" id="shape_76"/></g><g id="I239"><path d="M -12.70675600771409 48.87726062126719L -10.86199653197246 41.781288240540206M -44.70202644665263 23.49844857946208M -44.70202644665265 23.498448579462043A 50.501962873524576 50.501962873524576 0 0 0 27.597678000989507 42.29440179305713" style="fill:none;stroke:#000000;stroke-linecap:round;stroke-miterlimit:10;" id="shape_77"/></g><g id="I2680"><g id="shape_78"><path d="M 95.25216897226002 46.97317144823094L 64.9329112896503 32.021368201387475" style="fill:none;stroke:#000000;stroke-linecap:round;stroke-miterlimit:10;"/><path d="M 95.25216897226002 46.97317144823094L 353.02765966608877 208.98794185988265L 235.0096327734873 94.3541741915667L 95.25216897226002 46.97317144823094" style="fill:#000000;fill-opacity:0.5;stroke:#000000;stroke-linecap:round;stroke-miterlimit:10;"/></g></g><g id="I1317"><g id="shape_79"><path d="M -85.64341802032207 114.17004100615323L -79.49992073427116 105.98023082245423" style="fill:none;stroke:#000000;stroke-linecap:round;stroke-miterlimit:10;"/><path d="M -85.64341802032207 114.17004100615323L -252.5614555475976 287.9911448087331L -135.55259113639346 212.7749472477009L -85.64341802032207 114.17004100615323" style="fill:#000000;fill-opacity:0.5;stroke:#000000;stroke-linecap:round;stroke-miterlimit:10;"/></g></g><g id="I1370"><g id="shape_80"><path d="M -505.0556993309406 -72.1049202183624L -455.2487196779253 -64.99416332767532" style="fill:none;stroke:#000000;stroke-linecap:round;stroke-miterlimit:10;"/><path d="M -505.0556993309406 -72.1049202183624L -701.9281841226085 -155.6137319786328L -617.4127083377915 -40.46736689059344L -505.0556993309406 -72.1049202183624" style="fill:#000000;fill-opacity:0.5;stroke:#000000;stroke-linecap:round;stroke-miterlimit:10;"/></g></g><g id="I249"><path d="M -54.75563395099707 28.783313668539545L -44.70202644665263 23.49844857946208M -47.6078776761191 -39.498716160057654M -47.60787767611907 -39.4987161600577A 61.859991877764735 61.859991877764735 0 0 0 5.542424132879683 61.611201334241095" style="fill:none;stroke:#000000;stroke-linecap:round;stroke-miterlimit:10;" id="shape_81"/></g><g id="I1391"><g id="shape_82"><path d="M -163.1844710462951 116.93633825595481L -137.0705542575452 98.22337012107147" style="fill:none;stroke:#000000;stroke-linecap:round;stroke-miterlimit:10;"/><path d="M -163.1844710462951 116.93633825595481L -473.3615157388728 287.2428190924044L -292.4353528573352 245.38239672578777L -163.1844710462951 116.93633825595481" style="fill:#000000;fill-opacity:0.5;stroke:#000000;stroke-linecap:round;stroke-miterlimit:10;"/></g></g><g id="I993"><g id="shape_83"><path d="M -77.67205109273306 145.3141868682858L -54.70751383730259 102.35055952574034" style="fill:none;stroke:#000000;stroke-linecap:round;stroke-miterlimit:10;"/><path d="M -77.67205109273306 145.3141868682858L -301.9563687311534 473.97655691606207L -118.26719219385755 268.7826401657893L -77.67205109273306 145.3141868682858" style="fill:#000000;fill-opacity:0.5;stroke:#000000;stroke-linecap:round;stroke-miterlimit:10;"/></g></g><g id="I1719"><g id="shape_84"><path d="M 48.14413733649461 106.25637538239698L 30.69607768150949 67.74768711913892" style="fill:none;stroke:#000000;stroke-linecap:round;stroke-miterlimit:10;"/><path d="M 48.14413733649461 106.25637538239698L 168.73617037762898 463.5988179577834L 139.151123511661 253.63900563316423L 48.14413733649461 106.25637538239698" style="fill:#000000;fill-opacity:0.5;stroke:#000000;stroke-linecap:round;stroke-miterlimit:10;"/></g></g><g id="I962"><path d="M 1.448707421014407 265.6127932852675L 0.8467673619117523 155.25028794474636M -8.690736246823205 265.474529500444M -8.690736246823265 265.474529500444A 265.6167440316855 265.6167440316855 0 0 0 11.586039648637392 265.363935747219" style="fill:none;stroke:#000000;stroke-linecap:round;stroke-miterlimit:10;" id="shape_85"/></g><g id="I1345"><path d="M -150.05182815092914 76.94554016299888L -128.97777716296895 66.13891250192073M -159.75484285596022 53.98664155584318M -159.75484285596022 53.986641555843256A 168.63026799009614 168.63026799009614 0 0 0 -137.0705542575453 98.22337012107135" style="fill:none;stroke:#000000;stroke-linecap:round;stroke-miterlimit:10;" id="shape_86"/></g><g id="I285"><path d="M -59.87181861507894 -173.02729211655773L -42.54935223494317 -122.96601921946M -14.122642665108161 -182.54760870967107M -14.122642665108325 -182.54760870967104A 183.09308692975142 183.09308692975142 0 0 0 -101.72106896984027 -152.23633800475662" style="fill:none;stroke:#000000;stroke-linecap:round;stroke-miterlimit:10;" id="shape_87"/></g></g><g id="container_5"/><g id="container_6"/><g id="container_7"/><g id="container_8"/><g id="container_9"/></g><g id="container_10" transform="matrix(1.0000,0.0000,0.0000,1.0000,100.0000,100.00)"/><g id="container_11" transform="matrix(1.0000,0.0000,0.0000,1.0000,45.0000,36.00)"><path d="M 0 -3L 0 3M 0 0L 218.33965790542402 0M 218.33965790542402 -3L 218.33965790542402 3" style="fill:none;stroke:#000;stroke-width:0.5;stroke-linecap:round;stroke-miterlimit:10;" id="shape_89" transform="matrix(0.3992,0.0000,0.0000,1.0000,94.0615,8.00)"/><text id="text" transform="matrix(1.0000,0.0000,0.0000,1.0000,0.0000,10.22)" fill="#555" style="font-weight:bold;font-size:14px;font-family:Arial;">Tree scale: 1</text></g></g></svg>