<?xml version="1.0" encoding="utf-8"?>
<!-- Generator: Adobe Illustrator 23.0.3, SVG Export Plug-In . SVG Version: 6.00 Build 0)  -->
<svg version="1.1" id="Layer_1" xmlns="http://www.w3.org/2000/svg" xmlns:xlink="http://www.w3.org/1999/xlink" x="0px" y="0px"
	 viewBox="0 0 1280 698" style="enable-background:new 0 0 1280 698;" xml:space="preserve">
<style type="text/css">
	.st0{fill:none;stroke:#AAAAAA;stroke-width:0.3;stroke-linecap:round;stroke-miterlimit:10;stroke-dasharray:5,10;}
	.st1{font-family:'ArialMT';}
	.st2{font-size:11.254px;}
	.st3{fill:none;stroke:#000000;stroke-linecap:round;stroke-miterlimit:10;}
	.st4{font-size:10.1286px;}
</style>
<path id="shape" class="st0" d="M532.9,584.8h-2.8"/>
<text id="text" transform="matrix(1 0 0 1 532.9251 588.4918)" class="st1 st2">RUG117 52 14 RUMEN 10 refined c7 extraction</text>
<path id="shape_1" class="st3" d="M530.1,584.8H479"/>
<path id="shape_2" class="st0" d="M534.3-620.4h-2.8"/>
<path id="shape_4" class="st3" d="M479,559.5h-51.2 M479,669.2V449.7"/>
<path id="shape_5" class="st0" d="M532.9,230.3h-2.8"/>
<text id="text_2" transform="matrix(1 0 0 1 532.9251 233.9908)" class="st1 st2">Enterococcus faecalis EnGen0076 112 refined c7 extraction</text>
<path id="shape_6" class="st3" d="M530.1,230.3H479"/>
<path id="shape_7" class="st0" d="M532.9,162.8h-2.8"/>
<text id="text_3" transform="matrix(1 0 0 1 532.9251 166.4664)" class="st1 st2">Macrococcus caseolyticus 106 refined c7 extraction</text>
<path id="shape_8" class="st3" d="M530.1,162.8H479"/>
<path id="shape_9" class="st3" d="M479,53h-51.2 M479,61.5V44.6"/>
<path id="shape_12" class="st0" d="M534.3-654.1h-2.8"/>
<path id="shape_14" class="st3" d="M172,125.8h-51.2 M172,177.5V74.1"/>
<path id="shape_15" class="st0" d="M534.3-451.5h-2.8"/>
<path id="shape_17" class="st0" d="M532.9,517.3h-2.8"/>
<text id="text_6" transform="matrix(1 0 0 1 532.9251 520.9673)" class="st1 st2">Coprococcus 124 refined c7 extraction</text>
<path id="shape_18" class="st3" d="M530.1,517.3H479"/>
<path id="shape_19" class="st0" d="M532.9,432.8h-2.8"/>
<text id="text_7" transform="matrix(1 0 0 1 532.9251 436.5621)" class="st1 st2">bacterium D16-50 116 refined c7 extraction</text>
<path id="shape_20" class="st3" d="M530.1,432.8H427.8"/>
<path id="shape_21" class="st0" d="M532.9,365.3h-2.8"/>
<text id="text_8" transform="matrix(1 0 0 1 532.9251 369.0387)" class="st1 st2">Eubacterium sp. Marseille-P5640 115 refined c7 extraction</text>
<path id="shape_22" class="st3" d="M530.1,365.3H479"/>
<path id="shape_23" class="st3" d="M479,365.3H325.5 M479,382.2v-33.8"/>
<path id="shape_24" class="st3" d="M120.9,265.1H69.7 M120.9,404.4V125.8"/>
<path id="shape_25" class="st3" d="M479,95.2h-51.2 M479,112.1V78.3"/>
<path id="shape_26" class="st3" d="M376.6,211.3h-51.2 M376.6,226.1v-29.5"/>
<path id="shape_27" class="st0" d="M532.9,95.2h-2.8"/>
<text id="text_9" transform="matrix(1 0 0 1 532.9251 98.9425)" class="st1 st2">RUG084 1 22 RUMEN 14 refined c7 extraction</text>
<path id="shape_28" class="st3" d="M530.1,95.2H479"/>
<path id="shape_29" class="st3" d="M223.2,177.5H172 M223.2,226.1V129"/>
<path id="shape_30" class="st0" d="M532.9,280.9h-2.8"/>
<text id="text_10" transform="matrix(1 0 0 1 532.9251 284.6334)" class="st1 st2">Bacteroides sp. HMSC067B03 102 refined c7 extraction</text>
<path id="shape_31" class="st3" d="M530.1,280.9H479"/>
<path id="shape_32" class="st0" d="M534.3-400.9h-2.8"/>
<path id="shape_34" class="st0" d="M532.9,145.9h-2.8"/>
<text id="text_12" transform="matrix(1 0 0 1 532.9251 149.5855)" class="st1 st2">Alkaliphilus oremlandii 113 refined c7 extraction</text>
<path id="shape_35" class="st3" d="M530.1,145.9H479"/>
<path id="shape_37" class="st0" d="M532.9,635.4h-2.8"/>
<text id="text_13" transform="matrix(1 0 0 1 532.9251 639.1343)" class="st1 st2">3964017-submission.assembly 7 86 RUMEN 7 refined c7 extraction</text>
<path id="shape_38" class="st3" d="M530.1,635.4H479"/>
<path id="shape_39" class="st3" d="M479,238.7h-51.2 M479,247.2v-16.9"/>
<path id="shape_40" class="st0" d="M532.9,466.6h-2.8"/>
<text id="text_14" transform="matrix(1 0 0 1 532.9251 470.3248)" class="st1 st2">Lactobacillus reuteri 119 refined c7 extraction</text>
<path id="shape_41" class="st3" d="M530.1,466.6H479"/>
<path id="shape_43" class="st0" d="M532.9,652.3h-2.8"/>
<text id="text_15" transform="matrix(1 0 0 1 532.9251 656.0152)" class="st1 st2">3394949-submission.assembly 17 40 RUMEN 9 refined c7 extraction</text>
<path id="shape_44" class="st3" d="M530.1,652.3H479"/>
<path id="shape_45" class="st0" d="M534.3-637.2h-2.8"/>
<path id="shape_48" class="st0" d="M532.9,551h-2.8"/>
<text id="text_17" transform="matrix(1 0 0 1 532.9251 554.73)" class="st1 st2">Massiliomicrobiota timonensis 128 refined c7 extraction</text>
<path id="shape_49" class="st3" d="M530.1,551H479"/>
<path id="shape_50" class="st0" d="M532.9,44.6h-2.8"/>
<text id="text_18" transform="matrix(1 0 0 1 532.9251 48.2994)" class="st1 st2">4304098-submission.assembly 1 297 RUMEN 11 refined c7 extraction</text>
<path id="shape_51" class="st3" d="M530.1,44.6H479"/>
<path id="shape_52" class="st0" d="M534.3-384h-2.8"/>
<path id="shape_54" class="st0" d="M532.9,449.7h-2.8"/>
<text id="text_20" transform="matrix(1 0 0 1 532.9251 453.443)" class="st1 st2">Lachnoclostridium sp. An169 122 refined c7 extraction</text>
<path id="shape_55" class="st3" d="M530.1,449.7H479"/>
<path id="shape_56" class="st0" d="M532.9,348.4h-2.8"/>
<text id="text_21" transform="matrix(1 0 0 1 532.9251 352.1578)" class="st1 st2">2917049-submission.assembly 6 69 RUMEN 4 refined c7 extraction</text>
<path id="shape_57" class="st3" d="M530.1,348.4H479"/>
<path id="shape_58" class="st0" d="M534.3-536h-2.8"/>
<path id="shape_60" class="st0" d="M534.3-485.3h-2.8"/>
<path id="shape_62" class="st0" d="M534.3-519.1h-2.8"/>
<path id="shape_64" class="st3" d="M376.6,443.4h-51.2 M376.6,487.7v-88.6"/>
<path id="shape_65" class="st0" d="M534.3-569.7h-2.8"/>
<path id="shape_68" class="st3" d="M274.3,226.1h-51.2 M274.3,297.8V154.3"/>
<path id="shape_70" class="st0" d="M534.3-552.8h-2.8"/>
<path id="shape_72" class="st0" d="M532.9,567.9h-2.8"/>
<text id="text_27" transform="matrix(1 0 0 1 532.9251 571.6109)" class="st1 st2">Blautia 118 refined c7 extraction</text>
<path id="shape_73" class="st3" d="M530.1,567.9H479"/>
<path id="shape_74" class="st0" d="M534.3-502.2h-2.8"/>
<path id="shape_76" class="st3" d="M479,297.8H274.3 M479,331.6V264"/>
<path id="shape_77" class="st0" d="M532.9,399.1h-2.8"/>
<text id="text_29" transform="matrix(1 0 0 1 532.9251 402.8004)" class="st1 st2">bacterium 0.1xD8-82 132 refined c7 extraction</text>
<path id="shape_78" class="st3" d="M530.1,399.1H376.6"/>
<path id="shape_79" class="st0" d="M532.9,196.5h-2.8"/>
<text id="text_30" transform="matrix(1 0 0 1 532.9251 200.2286)" class="st1 st2">Hungateiclostridium clariflavum 107 refined c7 extraction</text>
<path id="shape_80" class="st3" d="M530.1,196.5H376.6"/>
<path id="shape_81" class="st0" d="M532.9,179.6h-2.8"/>
<text id="text_31" transform="matrix(1 0 0 1 532.9251 183.3472)" class="st1 st2">Erysipelotrichaceae bacterium MTC7 111 refined c7 extraction</text>
<path id="shape_82" class="st3" d="M530.1,179.6H325.5"/>
<path id="shape_83" class="st0" d="M532.9,669.2h-2.8"/>
<text id="text_32" transform="matrix(1 0 0 1 532.9251 672.8961)" class="st1 st2">Christensenella massiliensis 121 refined c7 extraction</text>
<path id="shape_84" class="st3" d="M530.1,669.2H479"/>
<path id="shape_85" class="st0" d="M532.9,416h-2.8"/>
<text id="text_33" transform="matrix(1 0 0 1 532.9251 419.6812)" class="st1 st2">uncultured Bacteroides sp. 133 refined c7 extraction</text>
<path id="shape_86" class="st3" d="M530.1,416H427.8"/>
<path id="shape_87" class="st0" d="M532.9,382.2h-2.8"/>
<text id="text_34" transform="matrix(1 0 0 1 532.9251 385.9195)" class="st1 st2">4304452-submission.assembly 11 59 RUMEN 5 refined c7 extraction</text>
<path id="shape_88" class="st3" d="M530.1,382.2H479"/>
<path id="shape_89" class="st0" d="M532.9,247.2h-2.8"/>
<text id="text_35" transform="matrix(1 0 0 1 532.9251 250.8717)" class="st1 st2">Enterococcus faecium EnGen0149 108 refined c7 extraction</text>
<path id="shape_90" class="st3" d="M530.1,247.2H479"/>
<path id="shape_91" class="st0" d="M532.9,331.6h-2.8"/>
<text id="text_36" transform="matrix(1 0 0 1 532.9251 335.2765)" class="st1 st2">4309689-submission.assembly 79 12 RUMEN 3 refined c7 extraction</text>
<path id="shape_92" class="st3" d="M530.1,331.6H479"/>
<path id="shape_93" class="st3" d="M427.8,74.1H172 M427.8,95.2V53"/>
<path id="shape_94" class="st0" d="M532.9,297.8h-2.8"/>
<text id="text_37" transform="matrix(1 0 0 1 532.9251 301.5143)" class="st1 st2">4309680-submission.assembly 52 14 RUMEN 2 refined c7 extraction</text>
<path id="shape_95" class="st3" d="M530.1,297.8H479"/>
<path id="shape_96" class="st3" d="M427.8,487.7h-51.2 M427.8,559.5V416"/>
<path id="shape_97" class="st0" d="M534.3-603.5h-2.8"/>
<path id="shape_99" class="st0" d="M534.3-468.4h-2.8"/>
<path id="shape_102" class="st0" d="M532.9,129h-2.8"/>
<text id="text_40" transform="matrix(1 0 0 1 532.9251 132.7047)" class="st1 st2">Salinicoccus sediminis 134 refined c7 extraction</text>
<path id="shape_103" class="st3" d="M530.1,129H223.2"/>
<path id="shape_105" class="st0" d="M532.9,483.5h-2.8"/>
<text id="text_41" transform="matrix(1 0 0 1 532.9251 487.2057)" class="st1 st2">Enterococcus faecalis D32 123 refined c7 extraction</text>
<path id="shape_106" class="st3" d="M530.1,483.5H479"/>
<path id="shape_107" class="st0" d="M532.9,314.7h-2.8"/>
<text id="text_42" transform="matrix(1 0 0 1 532.9251 318.3956)" class="st1 st2">RUG782 1 138 RUMEN 1 refined c7 extraction</text>
<path id="shape_108" class="st3" d="M530.1,314.7H479"/>
<path id="shape_109" class="st0" d="M532.9,500.4h-2.8"/>
<text id="text_43" transform="matrix(1 0 0 1 532.9251 504.0865)" class="st1 st2">Intestinimonas butyriciproducens 125 refined c7 extraction</text>
<path id="shape_110" class="st3" d="M530.1,500.4H479"/>
<path id="shape_111" class="st0" d="M532.9,112.1h-2.8"/>
<text id="text_44" transform="matrix(1 0 0 1 532.9251 115.8238)" class="st1 st2">RMG 330 81 6 RUMEN 13 refined c7 extraction</text>
<path id="shape_112" class="st3" d="M530.1,112.1H479"/>
<path id="shape_113" class="st3" d="M325.5,404.4H120.9 M325.5,443.4v-78.1"/>
<path id="shape_114" class="st3" d="M325.5,195.5h-51.2 M325.5,211.3v-31.7"/>
<path id="shape_115" class="st0" d="M532.9,61.5h-2.8"/>
<text id="text_45" transform="matrix(1 0 0 1 532.9251 65.1803)" class="st1 st2">Lachnospiraceae bacterium TF09-5 137 refined c7 extraction</text>
<path id="shape_116" class="st3" d="M530.1,61.5H479"/>
<path id="shape_117" class="st0" d="M534.3-434.7h-2.8"/>
<path id="shape_119" class="st0" d="M532.9,601.7h-2.8"/>
<text id="text_47" transform="matrix(1 0 0 1 532.9251 605.3726)" class="st1 st2">4309680-submission.assembly 59 3 RUMEN 6 refined c7 extraction</text>
<path id="shape_120" class="st3" d="M530.1,601.7H479"/>
<path id="shape_121" class="st0" d="M532.9,78.3h-2.8"/>
<text id="text_48" transform="matrix(1 0 0 1 532.9251 82.0616)" class="st1 st2">hRUG880 98 9 RUMEN 12 refined c7 extraction</text>
<path id="shape_122" class="st3" d="M530.1,78.3H479"/>
<path id="shape_123" class="st0" d="M534.3-671h-2.8"/>
<path id="shape_126" class="st0" d="M534.3-586.6h-2.8"/>
<path id="shape_128" class="st3" d="M427.8,226.1h-51.2 M427.8,238.7v-25.3"/>
<path id="shape_132" class="st0" d="M532.9,264h-2.8"/>
<text id="text_52" transform="matrix(1 0 0 1 532.9251 267.7525)" class="st1 st2">Streptococcus gallolyticus 103 refined c7 extraction</text>
<path id="shape_133" class="st3" d="M530.1,264H479"/>
<path id="shape_134" class="st0" d="M532.9,213.4h-2.8"/>
<text id="text_53" transform="matrix(1 0 0 1 532.9251 217.1095)" class="st1 st2">Campylobacter sp. P0111 101 refined c7 extraction</text>
<path id="shape_135" class="st3" d="M530.1,213.4H427.8"/>
<path id="shape_137" class="st0" d="M534.3-417.8h-2.8"/>
<path id="shape_140" class="st0" d="M532.9,618.5h-2.8"/>
<text id="text_55" transform="matrix(1 0 0 1 532.9251 622.2535)" class="st1 st2">3643350-assembly 6 34 RUMEN 8 refined c7 extraction</text>
<path id="shape_141" class="st3" d="M530.1,618.5H479"/>
<path id="shape_142" class="st0" d="M532.9,534.1h-2.8"/>
<text id="text_56" transform="matrix(1 0 0 1 532.9251 537.8482)" class="st1 st2">Absiella sp. AM27-20 120 refined c7 extraction</text>
<path id="shape_143" class="st3" d="M530.1,534.1H479"/>
<path id="shape_144" class="st3" d="M479,154.3H274.3 M479,162.8v-16.9"/>
<text id="text_57" transform="matrix(1 0 0 1 450.5628 568.8443)" class="st1 st4">1</text>
<text id="text_58" transform="matrix(1 0 0 1 450.5628 62.4146)" class="st1 st4">1</text>
<text id="text_61" transform="matrix(1 0 0 1 136.596 135.2164)" class="st1 st4">0.57</text>
<text id="text_62" transform="matrix(1 0 0 1 399.4085 374.7125)" class="st1 st4">1</text>
<text id="text_63" transform="matrix(1 0 0 1 85.4412 274.485)" class="st1 st4">0.76</text>
<text id="text_64" transform="matrix(1 0 0 1 450.5628 104.6168)" class="st1 st4">1</text>
<text id="text_65" transform="matrix(1 0 0 1 341.2142 220.6739)" class="st1 st4">0.91</text>
<text id="text_66" transform="matrix(1 0 0 1 443.5228 248.1055)" class="st1 st4">0.81</text>
<text id="text_69" transform="matrix(1 0 0 1 348.2542 452.7877)" class="st1 st4">1</text>
<text id="text_71" transform="matrix(1 0 0 1 238.9046 235.4449)" class="st1 st4">0.81</text>
<text id="text_73" transform="matrix(1 0 0 1 373.8314 307.1891)" class="st1 st4">1</text>
<text id="text_74" transform="matrix(1 0 0 1 290.0594 83.5157)" class="st1 st4">0.53</text>
<text id="text_75" transform="matrix(1 0 0 1 392.3685 497.1002)" class="st1 st4">0.96</text>
<text id="text_78" transform="matrix(1 0 0 1 213.3275 413.7535)" class="st1 st4">0.67</text>
<text id="text_79" transform="matrix(1 0 0 1 290.0594 204.8507)" class="st1 st4">0.51</text>
<text id="text_81" transform="matrix(1 0 0 1 392.3685 235.4449)" class="st1 st4">0.89</text>
<text id="text_84" transform="matrix(1 0 0 1 373.8314 163.7008)" class="st1 st4">1</text>
</svg>
