<svg xmlns="http://www.w3.org/2000/svg" xmlns:xlink="http://www.w3.org/1999/xlink" width="1280" height="649" style="border: 1px solid black; overflow: hidden;"><defs/><g id="container"><g id="container_1" transform="matrix(-0.2543,-0.1468,0.1468,-0.2543,452.0000,300.50)"><g id="container_2"/><g id="container_3"/><g id="container_4"><g id="I2261"><path d="M 108.2520454164297 -284.8433726228525L 90.39849202174639 -237.86535624745076M 183.84277979699235 -243.01457688895235M 183.84277979699235 -243.01457688895235A 304.71995711472846 304.71995711472846 0 0 0 23.96003205087263 -303.77651181110616" style="fill:none;stroke:#000000;stroke-linecap:round;stroke-miterlimit:10;" id="shape"/></g><g id="I2205"><path d="M -158.95772280435258 -77.12522961323067L -78.45630464754899 -38.066477071991024M -148.60303595396036 -95.56671171126956M -148.60303595396041 -95.5667117112695A 176.68010267723682 176.68010267723682 0 0 0 -167.03462417776106 -57.57858115508805" style="fill:none;stroke:#000000;stroke-linecap:round;stroke-miterlimit:10;" id="shape_1"/></g><g id="I1893"><g id="shape_2"><path d="M -15.825116030824638 148.60876539781611L -8.149983878467046 76.5339754749324" style="fill:none;stroke:#000000;stroke-linecap:round;stroke-miterlimit:10;"/><path d="M -15.825116030824638 148.60876539781611L -46.906222975955636 204.12908668350508L 2.867027652709634 209.42936264180005L -15.825116030824638 148.60876539781611" style="fill:#000000;fill-opacity:0.5;stroke:#000000;stroke-linecap:round;stroke-miterlimit:10;"/></g></g><g id="I1804"><path d="M -135.74606684377355 92.13752902905998L -105.05403850354243 71.30534053248043M -147.97094312157847 70.85844276334116M -147.97094312157853 70.85844276334103A 164.06193622877643 164.06193622877643 0 0 0 -120.48390017682135 111.35505699031746" style="fill:none;stroke:#000000;stroke-linecap:round;stroke-miterlimit:10;" id="shape_3"/></g><g id="I1801"><path d="M -25.261711808560648 72.70294048880042L -21.299554759561918 61.29989423747638M -41.06219005680614 65.09814273046166M -41.06219005680614 65.09814273046166A 76.96669175180149 76.96669175180149 0 0 0 -8.149983878467012 76.5339754749324" style="fill:none;stroke:#000000;stroke-linecap:round;stroke-miterlimit:10;" id="shape_4"/></g><g id="I1809"><g id="shape_5"><path d="M -204.98179239418016 83.4715453628556L -175.72288941471115 71.55689763345326" style="fill:none;stroke:#000000;stroke-linecap:round;stroke-miterlimit:10;"/><path d="M -204.98179239418016 83.4715453628556L -271.3623424900706 74.20639237428414L -246.00624956594916 136.47356801007479L -204.98179239418016 83.4715453628556" style="fill:#000000;fill-opacity:0.5;stroke:#000000;stroke-linecap:round;stroke-miterlimit:10;"/></g></g><g id="I2335"><path d="M 333.11185846281234 -288.37100857515156L 277.05639390045275 -239.84445378184364M 379.28213261754007 -224.20172325896513M 379.28213261754007 -224.20172325896513A 440.59204354504504 440.59204354504504 0 0 0 276.2176407859232 -343.25670241651153" style="fill:none;stroke:#000000;stroke-linecap:round;stroke-miterlimit:10;" id="shape_6"/></g><g id="I1774"><path d="M 25.91596608105936 89.05543879716987L 18.132822772064983 62.31010194822544M 17.822093199340575 91.02132426670745M 17.822093199340618 91.02132426670744A 92.74970877189367 92.74970877189367 0 0 0 33.80083798446076 86.37136000329811" style="fill:none;stroke:#000000;stroke-linecap:round;stroke-miterlimit:10;" id="shape_7"/></g><g id="I2194"><path d="M -184.11998773881638 -0.47257456784828794L -87.2032013147995 -0.22382151814384837M -181.98967356977946 -27.931199860177756M -181.98967356977948 -27.931199860177596A 184.12059420842655 184.12059420842655 0 0 0 -182.1306549655031 26.996624483459648" style="fill:none;stroke:#000000;stroke-linecap:round;stroke-miterlimit:10;" id="shape_8"/></g><g id="I1848"><g id="shape_9"><path d="M -41.74212339186882 115.91831363755908L -31.7215688882586 88.09112888063767" style="fill:none;stroke:#000000;stroke-linecap:round;stroke-miterlimit:10;"/><path d="M -41.74212339186882 115.91831363755908L -82.22223245662387 163.71792535512L -41.02885627737645 178.55163831593964L -41.74212339186882 115.91831363755908" style="fill:#000000;fill-opacity:0.5;stroke:#000000;stroke-linecap:round;stroke-miterlimit:10;"/></g></g><g id="I2340"><g id="shape_10"><path d="M 432.6305222722956 -190.14112692260898L 418.66746848932166 -184.00436438530318" style="fill:none;stroke:#000000;stroke-linecap:round;stroke-miterlimit:10;"/><path d="M 432.6305222722956 -190.14112692260898L 509.6711866476505 -154.48802790534438L 458.46141273213317 -271.0062772346119L 432.6305222722956 -190.14112692260898" style="fill:#000000;fill-opacity:0.5;stroke:#000000;stroke-linecap:round;stroke-miterlimit:10;"/></g></g><g id="I1805"><g id="shape_11"><path d="M -228.84521747902303 211.50603688077345L -120.48390017682135 111.35505699031746" style="fill:none;stroke:#000000;stroke-linecap:round;stroke-miterlimit:10;"/><path d="M -228.84521747902303 211.50603688077345L -301.0920621475955 217.81300566199047L -240.8134053352583 283.0332827330355L -228.84521747902303 211.50603688077345" style="fill:#000000;fill-opacity:0.5;stroke:#000000;stroke-linecap:round;stroke-miterlimit:10;"/></g></g><g id="I2204"><path d="M -554.0686883701686 -119.35731043894236L -219.89460138261234 -47.36962898639238" style="fill:none;stroke:#000000;stroke-linecap:round;stroke-miterlimit:10;" id="shape_12"/></g><g id="I2237"><g id="shape_13"><path d="M -410.5806647547459 -339.75654472533654L -372.51723881173115 -308.2589629126802" style="fill:none;stroke:#000000;stroke-linecap:round;stroke-miterlimit:10;"/><path d="M -410.5806647547459 -339.75654472533654L -408.36461456745633 -429.8843466874415L -498.7020254372599 -320.7156057669943L -410.5806647547459 -339.75654472533654" style="fill:#000000;fill-opacity:0.5;stroke:#000000;stroke-linecap:round;stroke-miterlimit:10;"/></g></g><g id="I2243"><path d="M 10.501398497733648 -254.24699741024318L 6.52866100153324 -158.06394330311394M 90.39849202174639 -237.86535624745076M 90.39849202174659 -237.86535624745068A 254.46377947073805 254.46377947073805 0 0 0 -70.47449554596959 -244.51004179802825" style="fill:none;stroke:#000000;stroke-linecap:round;stroke-miterlimit:10;" id="shape_14"/></g><g id="I2298"><g id="shape_15"><path d="M 93.97683389812188 -467.22837701473577L 75.29693013601121 -374.35675370569766" style="fill:none;stroke:#000000;stroke-linecap:round;stroke-miterlimit:10;"/><path d="M 93.97683389812188 -467.22837701473577L 167.90844273394904 -509.63815549830883L 42.19156666170647 -534.9244492296917L 93.97683389812188 -467.22837701473577" style="fill:#000000;fill-opacity:0.5;stroke:#000000;stroke-linecap:round;stroke-miterlimit:10;"/></g></g><g id="I2336"><path d="M 393.6808986126139 -232.71313961970736L 379.28213261754007 -224.20172325896513M 418.66746848932166 -184.00436438530318M 418.66746848932183 -184.0043643853028A 457.3183303609167 457.3183303609167 0 0 0 363.05307634749926 -278.087250766218" style="fill:none;stroke:#000000;stroke-linecap:round;stroke-miterlimit:10;" id="shape_16"/></g><g id="I1773"><path d="M -1.6619800765572574 64.87361473439331L -0.8529693617692391 33.294746751888994M -21.299554759561918 61.29989423747638M -21.299554759561904 61.29989423747638A 64.89490015772708 64.89490015772708 0 0 0 18.13282277206501 62.31010194822543" style="fill:none;stroke:#000000;stroke-linecap:round;stroke-miterlimit:10;" id="shape_17"/></g><g id="I1802"><path d="M -49.951389719183965 79.19067865171918L -41.06219005680614 65.09814273046166M -65.83618445423134 66.57252989564147M -65.83618445423137 66.57252989564144A 93.62854757069368 93.62854757069368 0 0 0 -31.721568888258577 88.09112888063767" style="fill:none;stroke:#000000;stroke-linecap:round;stroke-miterlimit:10;" id="shape_18"/></g><g id="I2169"><g id="shape_19"><path d="M 28.152268100047902 40.059539817071176L 19.15000319280551 27.24968065354305" style="fill:none;stroke:#000000;stroke-linecap:round;stroke-miterlimit:10;"/><path d="M 28.152268100047902 40.059539817071176L 51.54941090294569 95.99720595959475L 72.85463921258068 81.02472993903956L 28.152268100047902 40.059539817071176" style="fill:#000000;fill-opacity:0.5;stroke:#000000;stroke-linecap:round;stroke-miterlimit:10;"/></g></g><g id="I2202"><path d="M -222.3355876806985 -34.12336323114814L -181.98967356977946 -27.931199860177756M -219.89460138261234 -47.36962898639238M -219.8946013826123 -47.36962898639247A 224.93891941486348 224.93891941486348 0 0 0 -223.97936964025422 -20.754745073857453" style="fill:none;stroke:#000000;stroke-linecap:round;stroke-miterlimit:10;" id="shape_20"/></g><g id="I2207"><path d="M -406.6825098665929 -261.53779382056047L -148.60303595396036 -95.56671171126956M -372.51723881173115 -308.2589629126802M -372.51723881173115 -308.2589629126802A 483.52112821252956 483.52112821252956 0 0 0 -435.0202218801264 -211.06891761527328" style="fill:none;stroke:#000000;stroke-linecap:round;stroke-miterlimit:10;" id="shape_21"/></g><g id="I1808"><path d="M -171.12496248181665 81.94614499032977L -147.97094312157847 70.85844276334116M -175.72288941471115 71.55689763345326M -175.72288941471115 71.55689763345319A 189.73382266527838 189.73382266527838 0 0 0 -165.91345153412516 92.04156704018462" style="fill:none;stroke:#000000;stroke-linecap:round;stroke-miterlimit:10;" id="shape_22"/></g><g id="I1777"><g id="shape_23"><path d="M 38.71476185063721 288.34689995522564L 27.940846187598677 208.10295595779982" style="fill:none;stroke:#000000;stroke-linecap:round;stroke-miterlimit:10;"/><path d="M 38.71476185063721 288.34689995522564L 4.803739392213512 350.90142163706344L 87.92506634845097 339.74117549493604L 38.71476185063721 288.34689995522564" style="fill:#000000;fill-opacity:0.5;stroke:#000000;stroke-linecap:round;stroke-miterlimit:10;"/></g></g><g id="I2242"><path d="M -37.51942955324011 -153.6851521553153L -28.04039930852011 -114.85763737720687M 6.52866100153324 -158.06394330311394M 6.5286610015331 -158.06394330311397A 158.19871550364422 158.19871550364422 0 0 0 -78.63003807808721 -137.27399862625666" style="fill:none;stroke:#000000;stroke-linecap:round;stroke-miterlimit:10;" id="shape_24"/></g><g id="I1765"><path d="M -0.43905085878853206 6.955012373740718L 0 0M -5.780692662139941 3.892114479479102M -5.780692662139943 3.8921144794791A 6.968856633300002 6.968856633300002 0 0 0 5.245356270542339 4.588158712443545" style="fill:none;stroke:#000000;stroke-linecap:round;stroke-miterlimit:10;" id="shape_25"/></g><g id="I2395"><g id="shape_26"><path d="M 305.06332263758617 -379.10333988392705L 276.2176407859229 -343.25670241651176" style="fill:none;stroke:#000000;stroke-linecap:round;stroke-miterlimit:10;"/><path d="M 305.06332263758617 -379.10333988392705L 391.1086954148784 -381.8499474317988L 289.3383897063722 -463.74420775349756L 305.06332263758617 -379.10333988392705" style="fill:#000000;fill-opacity:0.5;stroke:#000000;stroke-linecap:round;stroke-miterlimit:10;"/></g></g><g id="I2193"><path d="M -84.96343109693797 -19.638324568488763L -54.9063241625974 -12.690968347753142M -78.45630464754899 -38.066477071991024M -78.45630464754896 -38.06647707199106A 87.20348855190046 87.20348855190046 0 0 0 -87.2032013147995 -0.22382151814380963" style="fill:none;stroke:#000000;stroke-linecap:round;stroke-miterlimit:10;" id="shape_27"/></g><g id="I2400"><g id="shape_28"><path d="M -86.47728590348466 -150.97389135851876L -78.63003807808734 -137.2739986262566" style="fill:none;stroke:#000000;stroke-linecap:round;stroke-miterlimit:10;"/><path d="M -86.47728590348466 -150.97389135851876L -91.2047830896921 -215.47981536828092L -139.72727991992556 -187.68630886605712L -86.47728590348466 -150.97389135851876" style="fill:#000000;fill-opacity:0.5;stroke:#000000;stroke-linecap:round;stroke-miterlimit:10;"/></g></g><g id="I599"><g id="shape_29"><path d="M 34.97840102395283 8.543303047113573L 14.125555692301328 3.4500977590591067" style="fill:none;stroke:#000000;stroke-linecap:round;stroke-miterlimit:10;"/><path d="M 34.97840102395283 8.543303047113573L 89.87484467241141 33.76067331227822L 95.31875469518796 11.471955837913415L 34.97840102395283 8.543303047113573" style="fill:#000000;fill-opacity:0.5;stroke:#000000;stroke-linecap:round;stroke-miterlimit:10;"/></g></g><g id="I674"><g id="shape_30"><path d="M 20.581225907749 10.691537998835111L 12.903575571899085 6.703151171177653" style="fill:none;stroke:#000000;stroke-linecap:round;stroke-miterlimit:10;"/><path d="M 20.581225907749 10.691537998835111L 68.71401724019752 46.89764898252347L 77.87921795473959 29.254624525573952L 20.581225907749 10.691537998835111" style="fill:#000000;fill-opacity:0.5;stroke:#000000;stroke-linecap:round;stroke-miterlimit:10;"/></g></g><g id="I2337"><g id="shape_31"><path d="M 459.0904307428063 -351.64884711277887L 363.05307634749926 -278.087250766218" style="fill:none;stroke:#000000;stroke-linecap:round;stroke-miterlimit:10;"/><path d="M 459.0904307428063 -351.64884711277887L 549.4709319746478 -324.80393679301034L 456.7137070726398 -445.90188630829186L 459.0904307428063 -351.64884711277887" style="fill:#000000;fill-opacity:0.5;stroke:#000000;stroke-linecap:round;stroke-miterlimit:10;"/></g></g><g id="I1772"><path d="M 9.634888052637882 31.881603633093416L 5.112313501271992 16.916517535566165M -0.8529693617692391 33.294746751888994M -0.8529693617692317 33.294746751888994A 33.305670958630145 33.305670958630145 0 0 0 19.150003192805517 27.249680653543045" style="fill:none;stroke:#000000;stroke-linecap:round;stroke-miterlimit:10;" id="shape_32"/></g><g id="I1843"><g id="shape_33"><path d="M -169.49250550408416 255.7898559498463L -70.1325226871831 105.84059644526064" style="fill:none;stroke:#000000;stroke-linecap:round;stroke-miterlimit:10;"/><path d="M -169.49250550408416 255.7898559498463L -237.7237355548421 279.4019260014831L -164.64142151357078 327.828023545086L -169.49250550408416 255.7898559498463" style="fill:#000000;fill-opacity:0.5;stroke:#000000;stroke-linecap:round;stroke-miterlimit:10;"/></g></g><g id="I2244"><g id="shape_34"><path d="M -83.86133064967783 -290.9554343530698L -70.47449554596936 -244.5100417980283" style="fill:none;stroke:#000000;stroke-linecap:round;stroke-miterlimit:10;"/><path d="M -83.86133064967783 -290.9554343530698L -58.10292748889934 -358.11705765532395L -141.41428107697445 -334.10444216437674L -83.86133064967783 -290.9554343530698" style="fill:#000000;fill-opacity:0.5;stroke:#000000;stroke-linecap:round;stroke-miterlimit:10;"/></g></g><g id="I2203"><path d="M -890.9517928834324 -82.55884175445341L -223.97936964025422 -20.754745073857553" style="fill:none;stroke:#000000;stroke-linecap:round;stroke-miterlimit:10;" id="shape_35"/></g><g id="I1766"><g id="shape_36"><path d="M 22.733110256836422 19.884849094351285L 5.245356270542341 4.588158712443543" style="fill:none;stroke:#000000;stroke-linecap:round;stroke-miterlimit:10;"/><path d="M 22.733110256836422 19.884849094351285L 60.3114752088366 67.07494599983163L 74.50409617809838 50.849405851308696L 22.733110256836422 19.884849094351285" style="fill:#000000;fill-opacity:0.5;stroke:#000000;stroke-linecap:round;stroke-miterlimit:10;"/></g></g><g id="I2314"><g id="shape_37"><path d="M 191.9608886350676 -409.82912650661245L 155.4365247460356 -331.85101203086424" style="fill:none;stroke:#000000;stroke-linecap:round;stroke-miterlimit:10;"/><path d="M 191.9608886350676 -409.82912650661245L 271.3168743328947 -434.8597815359048L 160.3897228520547 -486.8172271999705L 191.9608886350676 -409.82912650661245" style="fill:#000000;fill-opacity:0.5;stroke:#000000;stroke-linecap:round;stroke-miterlimit:10;"/></g></g><g id="I2208"><g id="shape_38"><path d="M -456.25276655614044 -221.37080703920685L -435.0202218801265 -211.0689176152731" style="fill:none;stroke:#000000;stroke-linecap:round;stroke-miterlimit:10;"/><path d="M -456.25276655614044 -221.37080703920685L -476.9970600230316 -306.7571280069082L -536.1601406281405 -184.8200055602068L -456.25276655614044 -221.37080703920685" style="fill:#000000;fill-opacity:0.5;stroke:#000000;stroke-linecap:round;stroke-miterlimit:10;"/></g></g><g id="I1803"><path d="M -89.27907806814686 90.27762077978412L -65.83618445423134 66.57252989564147M -105.05403850354243 71.30534053248043M -105.05403850354239 71.30534053248047A 126.96772264775316 126.96772264775316 0 0 0 -70.1325226871831 105.84059644526064" style="fill:none;stroke:#000000;stroke-linecap:round;stroke-miterlimit:10;" id="shape_39"/></g><g id="I1776"><path d="M 94.71947372741242 365.9946666276215L 52.6071501206363 203.27326169528015" style="fill:none;stroke:#000000;stroke-linecap:round;stroke-miterlimit:10;" id="shape_40"/></g><g id="I2262"><path d="M 30.025070315773945 -380.6719084533406L 23.9600320508729 -303.7765118111061M 75.29693013601121 -374.35675370569766M 75.29693013601121 -374.35675370569766A 381.8541694586766 381.8541694586766 0 0 0 -15.677033898407384 -381.53222320155857" style="fill:none;stroke:#000000;stroke-linecap:round;stroke-miterlimit:10;" id="shape_41"/></g><g id="I1"><g id="shape_42"><path d="M 14.035648382008805 0L 0 0" style="fill:none;stroke:#000000;stroke-linecap:round;stroke-miterlimit:10;"/><path d="M 14.035648382008805 0L 73.50520128674192 8.846616027611718L 73.50520128674192 -8.846616027611718L 14.035648382008805 0" style="fill:#000000;fill-opacity:0.5;stroke:#000000;stroke-linecap:round;stroke-miterlimit:10;"/></g></g><g id="I2240"><path d="M -50.32721729097039 -106.98463467714724L -23.98811843671626 -50.99348276513355M -28.04039930852011 -114.85763737720687M -28.040399308520215 -114.85763737720687A 118.23087945733639 118.23087945733639 0 0 0 -70.6025854725247 -94.8357305125555" style="fill:none;stroke:#000000;stroke-linecap:round;stroke-miterlimit:10;" id="shape_43"/></g><g id="I1771"><path d="M -14.659101177623363 9.869907169300369L -5.780692662139941 3.892114479479102M -13.751116194038259 -11.100050373059764M -13.75111619403825 -11.100050373059775A 17.672133851530365 17.672133851530365 0 0 0 5.112313501271992 16.916517535566165" style="fill:none;stroke:#000000;stroke-linecap:round;stroke-miterlimit:10;" id="shape_44"/></g><g id="I1800"><path d="M 171.3005956373201 437.72481088700465L 33.80083798446076 86.37136000329811" style="fill:none;stroke:#000000;stroke-linecap:round;stroke-miterlimit:10;" id="shape_45"/></g><g id="I2192"><path d="M -43.85035827604501 -35.396485555975616L -13.751116194038259 -11.100050373059764M -23.98811843671626 -50.99348276513355M -23.98811843671626 -50.99348276513355A 56.3539271981279 56.3539271981279 0 0 0 -54.90632416259741 -12.690968347753117" style="fill:none;stroke:#000000;stroke-linecap:round;stroke-miterlimit:10;" id="shape_46"/></g><g id="I2206"><path d="M -364.5113902360389 -125.65088686237846L -167.03462417776106 -57.57858115508812" style="fill:none;stroke:#000000;stroke-linecap:round;stroke-miterlimit:10;" id="shape_47"/></g><g id="I1842"><path d="M -414.8703954021513 230.15205191811103L -165.91345153412522 92.04156704018455" style="fill:none;stroke:#000000;stroke-linecap:round;stroke-miterlimit:10;" id="shape_48"/></g><g id="I2313"><path d="M 221.08557813671885 -292.2443747123057L 183.84277979699235 -243.01457688895235M 277.05639390045275 -239.84445378184364M 277.05639390045275 -239.84445378184364A 366.45000670082374 366.45000670082374 0 0 0 155.4365247460356 -331.85101203086424" style="fill:none;stroke:#000000;stroke-linecap:round;stroke-miterlimit:10;" id="shape_49"/></g><g id="I598"><path d="M 13.612092908508524 5.113259705266596L 0 0M 12.903575571899085 6.703151171177653M 12.903575571899083 6.703151171177655A 14.540787398327888 14.540787398327888 0 0 0 14.125555692301328 3.450097759059108" style="fill:none;stroke:#000000;stroke-linecap:round;stroke-miterlimit:10;" id="shape_50"/></g><g id="I0"><path d="M 0 0L 0 0M 0 0M 0 0A 0 0 0 0 0 0 0" style="fill:none;stroke:#000000;stroke-linecap:round;stroke-miterlimit:10;" id="shape_51"/></g><g id="I1775"><path d="M 40.346330861494835 206.05752776850403L 17.822093199340575 91.02132426670745M 27.940846187598677 208.10295595779982M 27.94084618759863 208.10295595779982A 209.9703101965919 209.9703101965919 0 0 0 52.6071501206363 203.27326169528015" style="fill:none;stroke:#000000;stroke-linecap:round;stroke-miterlimit:10;" id="shape_52"/></g><g id="I2195"><g id="shape_53"><path d="M -285.3348818704106 42.29424563013204L -182.13065496550308 26.99662448345973" style="fill:none;stroke:#000000;stroke-linecap:round;stroke-miterlimit:10;"/><path d="M -285.3348818704106 42.29424563013204L -348.32183777844386 9.538638883646016L -336.11180384283955 91.91269565526696L -285.3348818704106 42.29424563013204" style="fill:#000000;fill-opacity:0.5;stroke:#000000;stroke-linecap:round;stroke-miterlimit:10;"/></g></g><g id="I2263"><g id="shape_54"><path d="M -16.66285315835893 -405.5241222024556L -15.677033898407384 -381.53222320155857" style="fill:none;stroke:#000000;stroke-linecap:round;stroke-miterlimit:10;"/><path d="M -16.66285315835893 -405.5241222024556L 36.63091812721201 -464.4239419002482L -74.60915956051603 -459.85312359783006L -16.66285315835893 -405.5241222024556" style="fill:#000000;fill-opacity:0.5;stroke:#000000;stroke-linecap:round;stroke-miterlimit:10;"/></g></g><g id="I2241"><path d="M -258.2123157018807 -346.8393320589651L -70.6025854725247 -94.8357305125555" style="fill:none;stroke:#000000;stroke-linecap:round;stroke-miterlimit:10;" id="shape_55"/></g></g><g id="container_5"/><g id="container_6"/><g id="container_7"/><g id="container_8"/><g id="container_9"/></g><g id="container_10" transform="matrix(1.0000,0.0000,0.0000,1.0000,100.0000,100.00)"/><g id="container_11" transform="matrix(1.0000,0.0000,0.0000,1.0000,45.0000,36.00)"><path d="M 0 -3L 0 3M 0 0L 257.7239879178995 0M 257.7239879178995 -3L 257.7239879178995 3" style="fill:none;stroke:#000;stroke-width:0.5;stroke-linecap:round;stroke-miterlimit:10;" id="shape_57" transform="matrix(0.2936,0.0000,0.0000,1.0000,94.0615,8.00)"/><text id="text" transform="matrix(1.0000,0.0000,0.0000,1.0000,0.0000,10.22)" fill="#555" style="font-weight:bold;font-size:14px;font-family:Arial;">Tree scale: 1</text></g></g></svg>