<?xml version="1.0" encoding="utf-8"?>
<!-- Generator: Adobe Illustrator 23.0.3, SVG Export Plug-In . SVG Version: 6.00 Build 0)  -->
<svg version="1.1" id="Layer_1" xmlns="http://www.w3.org/2000/svg" xmlns:xlink="http://www.w3.org/1999/xlink" x="0px" y="0px"
	 viewBox="0 0 1678 948" style="enable-background:new 0 0 1678 948;" xml:space="preserve">
<style type="text/css">
	.st0{fill:none;stroke:#000000;stroke-linecap:round;stroke-miterlimit:10;}
	.st1{fill-opacity:0.5;stroke:#000000;stroke-linecap:round;stroke-miterlimit:10;}
	.st2{fill:none;stroke:#000000;stroke-width:0.5;stroke-linecap:round;stroke-miterlimit:10;}
	.st3{fill:#555555;}
	.st4{font-family:'Arial-BoldMT';}
	.st5{font-size:14px;}
	.st6{fill:#00ADEE;stroke:#000000;stroke-linecap:round;stroke-miterlimit:10;}
	.st7{fill:#00ADEE;fill-opacity:0.5;stroke:#000000;stroke-linecap:round;stroke-miterlimit:10;}
	.st8{fill:#EC1C24;stroke:#000000;stroke-linecap:round;stroke-miterlimit:10;}
	.st9{fill:#EC1C24;fill-opacity:0.5;stroke:#000000;stroke-linecap:round;stroke-miterlimit:10;}
	.st10{fill:#FFFFFF;stroke:#000000;stroke-linecap:round;stroke-miterlimit:10;}
	.st11{font-family:'MyriadPro-Regular';}
	.st12{font-size:12px;}
	.st13{font-size:24px;}
</style>
<g id="container_1" transform="matrix(-0.3457,-0.1996,0.1996,-0.3457,761.0000,507.00)">
	<g id="container_2">
	</g>
	<g id="container_3">
	</g>
	<g id="container_4">
		<g id="I949">
			<path id="shape" class="st0" d="M820.5-206.5l-0.5-17.3 M797.1-207.8c15.5,2.1,31.2,1.7,46.6-1.4"/>
		</g>
		<g id="I739">
			<path id="shape_1" class="st0" d="M1344.4-1195.7l-257.3,413.8"/>
		</g>
		<g id="I250">
			<path id="shape_2" class="st0" d="M758.2-394.8l10.6,8.8 M775.2-410c-12.9,8.4-22.9,20.5-28.8,34.7"/>
		</g>
		<g id="I1358">
			<path id="shape_3" class="st0" d="M357.5-376.6L550.2-364 M361.1-411.5c-3.3,23.2-4.8,46.6-4.6,70"/>
		</g>
		<g id="I1346">
			<path id="shape_4" class="st0" d="M629.3-283.3l27.4-9.2 M622.2-310.6c3.4,18.6,9.5,36.6,18,53.4"/>
		</g>
		<g id="I600">
			<path id="shape_5" class="st0" d="M958.3-1151.5l0,0.1"/>
		</g>
		<g id="I653">
			<path id="shape_6" class="st0" d="M974.3-747.7l-26.8,68 M1022.7-725.1c-31.4-17.1-64.7-30.2-99.3-39.1"/>
		</g>
		<g id="I951">
			<path id="shape_7" class="st0" d="M731.9-53.6l41.5-143.8 M704.3-63c18.1,7.1,36.8,12.5,55.8,16.1"/>
		</g>
		<g id="I963">
			<path id="shape_8" class="st0" d="M834.1,58.9L828-81.1"/>
		</g>
		<g id="I696">
			<g id="shape_9">
				<path class="st0" d="M1140.8-789l-21.3,29"/>
				<path class="st1" d="M1140.8-789l257.5-235.9L1197.9-960L1140.8-789"/>
			</g>
		</g>
		<g id="I740">
			<path id="shape_10" class="st0" d="M736.6-379.3l9.8,4 M740.1-386.8c-2.6,4.9-4.7,10-6.3,15.2"/>
		</g>
		<g id="I633">
			<g id="shape_11">
				<path class="st0" d="M1373.9-535.8l-36.5,12.4"/>
				<path class="st1" d="M1373.9-535.8l163.3,4.5l-67.4-94.3L1373.9-535.8"/>
			</g>
		</g>
		<g id="I992">
			<path id="shape_12" class="st0" d="M746.8-253.6l8.4-11.3 M733.5-265.3c8.3,8.4,17.7,15.5,28.1,21.1"/>
		</g>
		<g id="I8">
			<g id="shape_13">
				<path class="st0" d="M829.3-344.5l-12.9-2"/>
				<path class="st1" d="M829.3-344.5l234.8,55.8l-141.2-49.6L829.3-344.5"/>
			</g>
		</g>
		<g id="I638">
			<g id="shape_14">
				<path class="st0" d="M1189.3-719.5l-61.9,61.9"/>
				<path class="st1" d="M1189.3-719.5l182-103.1l-130.8-18.3L1189.3-719.5"/>
			</g>
		</g>
		<g id="I788">
			<g id="shape_15">
				<path class="st0" d="M717.1-376.6l16.7,5.1"/>
				<path class="st1" d="M717.1-376.6L308.3-544.1l233.7,136.8L717.1-376.6"/>
			</g>
		</g>
		<g id="I960">
			<path id="shape_16" class="st0" d="M497.4,560.6L694.5,0.1"/>
		</g>
		<g id="I594">
			<path id="shape_17" class="st0" d="M831.5-715.4l-0.6,13.5 M866.6-712.3c-23.3-3.2-46.8-4.2-70.3-2.9"/>
		</g>
		<g id="I2105">
			<path id="shape_18" class="st0" d="M878-308.4l-26.5-16.4 M874.1-302.8c2.8-3.7,5.2-7.6,7.3-11.7"/>
		</g>
		<g id="I288">
			<path id="shape_19" class="st0" d="M713.6-566.9l10.9,23.4 M730.7-574.1c-11.6,4.4-22.8,9.6-33.6,15.7"/>
		</g>
		<g id="I578">
			<g id="shape_20">
				<path class="st0" d="M706.3-639l24.4,64.9"/>
				<path class="st1" d="M706.3-639l-39.1-219.3l-46.3,92.6L706.3-639"/>
			</g>
		</g>
		<g id="I1347">
			<path id="shape_21" class="st0" d="M591.6-305l30.5-5.6 M588.1-335.3c1,20.4,4.7,40.5,11.1,59.9"/>
		</g>
		<g id="I601">
			<path id="shape_22" class="st0" d="M1032.2-632.2l-26.8,35.5 M1101.1-563.7c-39.6-51.9-92.7-92.1-153.5-116"/>
		</g>
		<g id="I604">
			<g id="shape_23">
				<path class="st0" d="M1235.5-653.9l-39.3,28.8"/>
				<path class="st1" d="M1235.5-653.9l165-55.9l-119-35.8L1235.5-653.9"/>
			</g>
		</g>
		<g id="I237">
			<path id="shape_24" class="st0" d="M833.4-325.8l-17.1-20.7 M822.7-320.5c8-1.9,14.6-7.4,18-14.9"/>
		</g>
		<g id="I1384">
			<g id="shape_25">
				<path class="st0" d="M607.4-240.6l32.8-16.6"/>
				<path class="st1" d="M607.4-240.6l-281.2,97.1l60.6,57.6L607.4-240.6"/>
			</g>
		</g>
		<g id="I987">
			<g id="shape_26">
				<path class="st0" d="M871.6-68.8l-27.9-140.4"/>
				<path class="st1" d="M871.6-68.8L857.4-6l45.7-30.4L871.6-68.8"/>
			</g>
		</g>
		<g id="I695">
			<path id="shape_27" class="st0" d="M1103.5-771.3l-6.8,10.1 M1119.5-760c-10.5-7.7-21.3-15-32.4-21.9"/>
		</g>
		<g id="I952">
			<g id="shape_28">
				<path class="st0" d="M741.9,50.5l18.3-97.3"/>
				<path class="st1" d="M741.9,50.5l-88.4,210.8L758.9,178L741.9,50.5"/>
			</g>
		</g>
		<g id="I287">
			<path id="shape_29" class="st0" d="M799.6-563.3l2.6,34.2 M876.9-555.3c-50.5-14.6-104.7-10.5-152.4,11.8"/>
		</g>
		<g id="I253">
			<g id="shape_30">
				<path class="st0" d="M376.6-699.5l32.2,25.8"/>
				<path class="st1" d="M376.6-699.5l28.2-32.5l-53.9,67.1L376.6-699.5"/>
			</g>
		</g>
		<g id="I964">
			<g id="shape_31">
				<path class="st0" d="M804.9,3.4l2.8-84.4"/>
				<path class="st1" d="M804.9,3.4l-61.9,320l93.9-199.9L804.9,3.4"/>
			</g>
		</g>
		<g id="I1348">
			<path id="shape_32" class="st0" d="M549.9-333.4l38.2-1.9 M550.2-364c-1.3,20.3-0.3,40.8,3,60.9"/>
		</g>
		<g id="I743">
			<g id="shape_33">
				<path class="st0" d="M568.7-489.5l103,59.5"/>
				<path class="st1" d="M568.7-489.5L411.7-623.3l59.8,111.4L568.7-489.5"/>
			</g>
		</g>
		<g id="I2106">
			<path id="shape_34" class="st0" d="M887.1-292.8l-13.1-9.9 M885-290.2c1.4-1.7,2.8-3.5,4.1-5.4"/>
		</g>
		<g id="I948">
			<path id="shape_35" class="st0" d="M958,160L849.4-228.3"/>
		</g>
		<g id="I676">
			<g id="shape_36">
				<path class="st0" d="M1026.3-838l-13.3,31.1"/>
				<path class="st1" d="M1026.3-838l159.6-218.4l-144.9,48.2L1026.3-838"/>
			</g>
		</g>
		<g id="I618">
			<g id="shape_37">
				<path class="st0" d="M1358.7-628.8l-54.2,28.2"/>
				<path class="st1" d="M1358.7-628.8L1691-720l-280.2,3.9L1358.7-628.8"/>
			</g>
		</g>
		<g id="I1381">
			<g id="shape_38">
				<path class="st0" d="M470.1-233.2l129.1-42.2"/>
				<path class="st1" d="M470.1-233.2l-49.5-16.5l26,56.3L470.1-233.2"/>
			</g>
		</g>
		<g id="I1734">
			<g id="shape_39">
				<path class="st0" d="M861.9-295.7l-16.7-18.6"/>
				<path class="st1" d="M861.9-295.7l141.3,192.7l-16.6-80.5L861.9-295.7"/>
			</g>
		</g>
		<g id="I238">
			<path id="shape_40" class="st0" d="M826.6-304.6l-3.9-15.9 M805.5-304.7c14,3.6,28.9,0,39.7-9.6"/>
		</g>
		<g id="I1316">
			<path id="shape_41" class="st0" d="M721.8-253.7l11.7-11.5 M708.9-269.1c7.8,10.9,17.3,20.5,28,28.6"/>
		</g>
		<g id="I584">
			<path id="shape_42" class="st0" d="M786.8-700.9l3.5,41.9 M830.9-701.8c-29.4-1.2-58.9,1.3-87.7,7.3"/>
		</g>
		<g id="I599">
			<path id="shape_43" class="st0" d="M896.7-1162.5l-0.3,2.6"/>
		</g>
		<g id="I602">
			<path id="shape_44" class="st0" d="M1166.1-613.4l-65,49.6 M1198.5-564.4c-19.4-34.1-43.4-65.4-71.1-93.2"/>
		</g>
		<g id="I1436">
			<g id="shape_45">
				<path class="st0" d="M671.1-204.4l41.7-40.8"/>
				<path class="st1" d="M671.1-204.4L456.6-44.6l168.3-83.6L671.1-204.4"/>
			</g>
		</g>
		<g id="I947">
			<path id="shape_46" class="st0" d="M834.8-225.1l-3.1-20.6 M820-223.8c10-0.3,19.9-1.8,29.5-4.5"/>
		</g>
		<g id="I289">
			<g id="shape_47">
				<path class="st0" d="M687.2-576l9.9,17.5"/>
				<path class="st1" d="M687.2-576L513.1-996.8l78.9,314.6L687.2-576"/>
			</g>
		</g>
		<g id="I585">
			<g id="shape_48">
				<path class="st0" d="M739.3-713l3.9,18.4"/>
				<path class="st1" d="M739.3-713l-13.4-320.6l-65,153.7L739.3-713"/>
			</g>
		</g>
		<g id="I252">
			<path id="shape_49" class="st0" d="M434.9-703.8l286.5,268.4 M463.2-731.9c-19.6,18-37.9,37.4-54.5,58.2"/>
		</g>
		<g id="I2107">
			<path id="shape_50" class="st0" d="M1059.8-176L889.1-295.6"/>
		</g>
		<g id="I675">
			<path id="shape_51" class="st0" d="M1055.9-786l-33.2,60.9 M1096.7-761.2c-26.4-17.9-54.5-33.1-83.8-45.7"/>
		</g>
		<g id="I961">
			<path id="shape_52" class="st0" d="M543.1,274.6L668.4-10.2"/>
		</g>
		<g id="I1">
			<g id="shape_53">
				<path class="st0" d="M847.9-346.5h-31.6"/>
				<path class="st1" d="M847.9-346.5l235.1,20.4L980-359L847.9-346.5"/>
			</g>
		</g>
		<g id="I1344">
			<path id="shape_54" class="st0" d="M698.8-261.8l10.1-7.3 M687.4-280.4c6.6,13,15.2,24.8,25.4,35.2"/>
		</g>
		<g id="I256">
			<g id="shape_55">
				<path class="st0" d="M454.7-741.2l8.5,9.3"/>
				<path class="st1" d="M454.7-741.2l-51-131.1l-33.4,108L454.7-741.2"/>
			</g>
		</g>
		<g id="I1359">
			<g id="shape_56">
				<path class="st0" d="M274.3-340.6l82.2-0.9"/>
				<path class="st1" d="M274.3-340.6L90.6-394.1l33.1,108.2L274.3-340.6"/>
			</g>
		</g>
		<g id="I603">
			<path id="shape_57" class="st0" d="M1225.6-579.8l-27,15.4 M1249.6-531.5c-14.1-33.1-32-64.5-53.3-93.5"/>
		</g>
		<g id="I742">
			<path id="shape_58" class="st0" d="M414-539.5l251.7,120.7"/>
		</g>
		<g id="I1740">
			<g id="shape_59">
				<path class="st0" d="M867.9-330.3l-12.2-3.8"/>
				<path class="st1" d="M867.9-330.3l419,172.7L989.4-306.2L867.9-330.3"/>
			</g>
		</g>
		<g id="I1739">
			<path id="shape_60" class="st0" d="M853.9-329.3l-13.1-6 M851.5-324.8c1.8-2.9,3.2-6,4.3-9.3"/>
		</g>
		<g id="I946">
			<path id="shape_61" class="st0" d="M791.5-247.6l6.7-26.8 M755.2-264.9c21.9,16.4,49.5,23.3,76.5,19.2"/>
		</g>
		<g id="I251">
			<path id="shape_62" class="st0" d="M745.5-455.7l29.7,45.7 M773.8-469.5c-20,6.9-38,18.6-52.4,34"/>
		</g>
		<g id="I2108">
			<g id="shape_63">
				<path class="st0" d="M892.4-284.2l-7.3-6"/>
				<path class="st1" d="M892.4-284.2l354,349.2l-241.4-279.6L892.4-284.2"/>
			</g>
		</g>
		<g id="I617">
			<path id="shape_64" class="st0" d="M1322.5-562.6l-72.9,31.1 M1337.5-523.4c-9-26.5-20-52.4-33-77.2"/>
		</g>
		<g id="I950">
			<path id="shape_65" class="st0" d="M795.1-192.7l2.1-15 M773.3-197.3c14.3,4.1,29,6.2,43.9,6.1"/>
		</g>
		<g id="I741">
			<path id="shape_66" class="st0" d="M668.6-424.5l71.5,37.7 M671.7-430.1c-2.1,3.7-4.1,7.4-6,11.3"/>
		</g>
		<g id="I1349">
			<g id="shape_67">
				<path class="st0" d="M490-292.6l63.2-10.4"/>
				<path class="st1" d="M490-292.6l-266.4-2l87.2,71.9L490-292.6"/>
			</g>
		</g>
		<g id="I654">
			<g id="shape_68">
				<path class="st0" d="M942-836.8l-18.6,72.7"/>
				<path class="st1" d="M942-836.8l111.2-207.4l-115.7,10.5L942-836.8"/>
			</g>
		</g>
		<g id="I583">
			<path id="shape_69" class="st0" d="M903.6-647.7l-26.7,92.4 M1005.4-596.7c-61.6-46.5-138.2-68.7-215.1-62.3"/>
		</g>
		<g id="I286">
			<path id="shape_70" class="st0" d="M538-763.1l176.6,264.4"/>
		</g>
		<g id="I595">
			<g id="shape_71">
				<path class="st0" d="M792-793.7l4.3,78.6"/>
				<path class="st1" d="M792-793.7l39.2-231.4l-91.6,95.6L792-793.7"/>
			</g>
		</g>
		<g id="I598">
			<path id="shape_72" class="st0" d="M927.5-1156.2l-60.9,444 M958.3-1151.4c-20.5-3.6-41.1-6.4-61.8-8.5"/>
		</g>
		<g id="I959">
			<path id="shape_73" class="st0" d="M681.3-4.8l23-58.2 M668.4-10.2c8.6,3.8,17.3,7.2,26.1,10.3"/>
		</g>
		<g id="I945">
			<path id="shape_74" class="st0" d="M823-272.4l-1.1-12.5 M798.3-274.4c16.3,4.1,33.5,2.5,48.8-4.4"/>
		</g>
		<g id="I240">
			<g id="shape_75">
				<path class="st0" d="M860.6-278.8L844-304.2"/>
				<path class="st1" d="M860.6-278.8l87.9,173l16.7-46.8L860.6-278.8"/>
			</g>
		</g>
		<g id="I0">
			<path id="shape_76" class="st0" d="M816.4-346.5L816.4-346.5 M816.4-346.5L816.4-346.5"/>
		</g>
		<g id="I239">
			<path id="shape_77" class="st0" d="M803.7-297.6l1.8-7.1 M771.7-323c13,24.7,43.5,34.2,68.2,21.2c1.4-0.7,2.8-1.5,4.1-2.4"/>
		</g>
		<g id="I2680">
			<g id="shape_78">
				<path class="st0" d="M911.6-299.5l-30.3-15"/>
				<path class="st1" d="M911.6-299.5l257.8,162l-118-114.6L911.6-299.5"/>
			</g>
		</g>
		<g id="I1317">
			<g id="shape_79">
				<path class="st0" d="M730.7-232.3l6.1-8.2"/>
				<path class="st1" d="M730.7-232.3L563.8-58.5l117-75.2L730.7-232.3"/>
			</g>
		</g>
		<g id="I1370">
			<g id="shape_80">
				<path class="st0" d="M311.3-418.6l49.8,7.1"/>
				<path class="st1" d="M311.3-418.6l-196.9-83.5L199-387L311.3-418.6"/>
			</g>
		</g>
		<g id="I249">
			<path id="shape_81" class="st0" d="M761.6-317.7l10.1-5.3 M768.8-386c-21.8,26.3-18.2,65.3,8.1,87.1c12.6,10.4,28.8,15.5,45,14"
				/>
		</g>
		<g id="I1391">
			<g id="shape_82">
				<path class="st0" d="M653.2-229.6l26.1-18.7"/>
				<path class="st1" d="M653.2-229.6L343-59.3l180.9-41.9L653.2-229.6"/>
			</g>
		</g>
		<g id="I993">
			<g id="shape_83">
				<path class="st0" d="M738.7-201.2l23-43"/>
				<path class="st1" d="M738.7-201.2L514.4,127.5L698.1-77.7L738.7-201.2"/>
			</g>
		</g>
		<g id="I1719">
			<g id="shape_84">
				<path class="st0" d="M864.5-240.3l-17.4-38.5"/>
				<path class="st1" d="M864.5-240.3l120.6,357.3l-29.6-210L864.5-240.3"/>
			</g>
		</g>
		<g id="I962">
			<path id="shape_85" class="st0" d="M817.8-80.9l-0.6-110.4 M807.7-81c6.8,0.2,13.5,0.2,20.3-0.1"/>
		</g>
		<g id="I1345">
			<path id="shape_86" class="st0" d="M666.3-269.6l21.1-10.8 M656.6-292.5c5.3,15.8,13,30.7,22.7,44.2"/>
		</g>
		<g id="I285">
			<path id="shape_87" class="st0" d="M756.5-519.5l17.3,50.1 M802.3-529.1c-31.3,2.4-61.5,12.9-87.6,30.3"/>
		</g>
	</g>
	<g id="container_5">
	</g>
	<g id="container_6">
	</g>
	<g id="container_7">
	</g>
	<g id="container_8">
	</g>
	<g id="container_9">
	</g>
</g>
<g id="container_10" transform="matrix(1.0000,0.0000,0.0000,1.0000,100.0000,100.00)">
</g>
<g id="container_11" transform="matrix(1.0000,0.0000,0.0000,1.0000,45.0000,36.00)">
	<path id="shape_89" class="st2" d="M94.1,5v6 M94.1,8h87.2 M181.2,5v6"/>
	<text id="text" transform="matrix(1 0 0 1 0 10.22)" class="st3 st4 st5">Tree scale: 1</text>
</g>
<g id="I949_1_">
	<path id="shape_1_" class="st0" d="M1156.6,407.3l-2.9,5.4 M1163.5,411.9c-4.4-3.4-9.3-6-14.5-7.8"/>
</g>
<g id="I739_1_">
	<path id="shape_1_1_" class="st0" d="M820.7,618l152.2-81.4"/>
</g>
<g id="I250_1_">
	<path id="shape_2_1_" class="st0" d="M1142.4,476.1l-1.7-4.6 M1134.4,477.8c5.4-0.3,10.7-2.2,15-5.5"/>
</g>
<g id="I1358_1_">
	<path id="shape_3_1_" class="st0" d="M1268.5,541.5l-56.9-38 M1261.2,551.6c5.1-6.5,9.7-13.4,13.8-20.7"/>
</g>
<g id="I1346_1_">
	<path id="shape_4_1_" class="st0" d="M1201.6,464.8l-10-2 M1199,474.4c2.2-6.3,3.6-12.9,3.9-19.6"/>
</g>
<g id="I600_1_">
	<path id="shape_5_1_" class="st0" d="M947,672.8L947,672.8"/>
</g>
<g id="I653_1_">
	<path id="shape_6_1_" class="st0" d="M1013.6,546.1l20.2-16.1 M1002.7,530.6c6.6,10.8,14.5,20.7,23.5,29.6"/>
</g>
<g id="I951_1_">
	<path id="shape_7_1_" class="st0" d="M1210.9,376.1l-38.2,36.7 M1217.6,383.9c-4.3-5.4-9.1-10.4-14.3-14.8"/>
</g>
<g id="I963_1_">
	<path id="shape_8_1_" class="st0" d="M1199.4,323.5l-22.9,44"/>
</g>
<g id="I696_1_">
	<g id="shape_9_1_">
		<path class="st6" d="M955.2,529.3l11.7-5.1"/>
		<path class="st7" d="M955.2,529.3L834.4,556l73,15.6L955.2,529.3"/>
	</g>
</g>
<g id="I740_1_">
	<path id="shape_10_1_" class="st0" d="M1151.7,475.2l-2.3-3 M1149.3,476.9c1.6-1,3.2-2.2,4.6-3.6"/>
</g>
<g id="I633_1_">
	<g id="shape_11_1_">
		<path class="st0" d="M928.5,410.3l13.4,2.7"/>
		<path class="st1" d="M928.5,410.3L879.2,380l4,40.9L928.5,410.3"/>
	</g>
</g>
<g id="I992_1_">
	<path id="shape_12_1_" class="st0" d="M1170.8,434.8l-4.6,2 M1172.9,440.8c-1-4-2.7-7.9-4.9-11.5"/>
</g>
<g id="I8_1_">
	<g id="shape_13_1_">
		<path class="st6" d="M1129.5,448.1l3.6,2.9"/>
		<path class="st7" d="M1129.5,448.1l-62.1-58.7l34.5,40.2L1129.5,448.1"/>
	</g>
</g>
<g id="I638_1_">
	<g id="shape_14_1_">
		<path class="st0" d="M952.6,499.4l29.9-8"/>
		<path class="st1" d="M952.6,499.4l-74.1-0.6l36.9,28.8L952.6,499.4"/>
	</g>
</g>
<g id="I788_1_">
	<g id="shape_15_1_">
		<path class="st6" d="M1158.2,477.8l-4.2-4.5"/>
		<path class="st7" d="M1158.2,477.8l95.7,123.8l-47.5-83.3L1158.2,477.8"/>
	</g>
</g>
<g id="I960_1_">
	<path id="shape_16_1_" class="st0" d="M1391.5,229.3l-159.7,137"/>
</g>
<g id="I594_1_">
	<path id="shape_17_1_" class="st0" d="M1063.1,561.5l2.6-4.1 M1052.9,554.3c6.6,5.1,13.6,9.6,21.1,13.3"/>
</g>
<g id="I2105_1_">
	<path id="shape_18_1_" class="st0" d="M1120.9,428.4l5.2,9.7 M1123.1,427.4c-1.5,0.6-2.9,1.4-4.3,2.3"/>
</g>
<g id="I288_1_">
	<path id="shape_19_1_" class="st0" d="M1125.5,536.8l0.8-9.1 M1119,536c4.3,0.7,8.7,1.1,13.1,1.1"/>
</g>
<g id="I578_1_">
	<g id="shape_20_1_">
		<path class="st0" d="M1115,560.2l4-24.2"/>
		<path class="st1" d="M1115,560.2l-26.9,74.2l30.6-20.2L1115,560.2"/>
	</g>
</g>
<g id="I1347_1_">
	<path id="shape_21_1_" class="st0" d="M1209.3,478.1l-10.4-3.7 M1205.1,488c3.3-6.4,5.7-13.3,7.2-20.3"/>
</g>
<g id="I601_1_">
	<path id="shape_22_1_" class="st0" d="M1016.2,500.4l14.5-6.1 M1007.3,467.2c3,23,12.1,44.7,26.6,62.8"/>
</g>
<g id="I604_1_">
	<g id="shape_23_1_">
		<path class="st0" d="M950.1,471l17.2-1.9"/>
		<path class="st1" d="M950.1,471L889.6,459l30.1,32.1L950.1,471"/>
	</g>
</g>
<g id="I237_1_">
	<path id="shape_24_1_" class="st0" d="M1131.5,441.6l1.6,9.4 M1135.7,441.9c-2.8-0.8-5.8-0.3-8.2,1.4"/>
</g>
<g id="I1384_1_">
	<g id="shape_25_1_">
		<path class="st0" d="M1215.9,455.5l-13-0.7"/>
		<path class="st1" d="M1215.9,455.5l103.5,20l-8.4-28.4L1215.9,455.5"/>
	</g>
</g>
<g id="I987_1_">
	<g id="shape_26_1_">
		<path class="st0" d="M1165.3,356l-16.3,48"/>
		<path class="st1" d="M1165.3,356l15.5-16.7l-19.4,1.2L1165.3,356"/>
	</g>
</g>
<g id="I695_1_">
	<path id="shape_27_1_" class="st0" d="M969.8,530.4l3.9-1.9 M966.8,524.1c1.9,4.2,3.9,8.4,6.1,12.5"/>
</g>
<g id="I952_1_">
	<g id="shape_28_1_">
		<path class="st0" d="M1226.2,342.4l-22.8,26.6"/>
		<path class="st1" d="M1226.2,342.4l64.4-49l-47.1,6.8L1226.2,342.4"/>
	</g>
</g>
<g id="I287_1_">
	<path id="shape_29_1_" class="st0" d="M1099.8,520.5l5.2-11 M1077.5,504.4c12.9,13.4,30.3,21.7,48.8,23.4"/>
</g>
<g id="I253_1_">
	<g id="shape_30_1_">
		<path class="st6" d="M1205.4,637.2l-5.3-13.6"/>
		<path class="st7" d="M1205.4,637.2l-14.4,5l28.4-11L1205.4,637.2"/>
	</g>
</g>
<g id="I964_1_">
	<g id="shape_31_1_">
		<path class="st0" d="M1198.5,345.7l-15.8,25.4"/>
		<path class="st1" d="M1198.5,345.7l75.7-87.2l-64.2,44.7L1198.5,345.7"/>
	</g>
</g>
<g id="I1348_1_">
	<path id="shape_32_1_" class="st0" d="M1217.1,494.2l-12-6.2 M1211.6,503.5c4-6,7.3-12.4,9.9-19.2"/>
</g>
<g id="I743_1_">
	<g id="shape_33_1_">
		<path class="st0" d="M1183.7,538.7l-21.1-36.5"/>
		<path class="st1" d="M1183.7,538.7l24.4,68.8l1.4-44.8L1183.7,538.7"/>
	</g>
</g>
<g id="I2106_1_">
	<path id="shape_34_1_" class="st0" d="M1120.9,422l2.3,5.4 M1122,421.6c-0.7,0.3-1.5,0.6-2.2,0.9"/>
</g>
<g id="I948_1_">
	<path id="shape_35_1_" class="st0" d="M1179.3,270.6l-35.4,138.3"/>
</g>
<g id="I676_1_">
	<g id="shape_36_1_">
		<path class="st0" d="M981.6,564.6l9.6-7.2"/>
		<path class="st1" d="M981.6,564.6L894,603.3l53,10.9L981.6,564.6"/>
	</g>
</g>
<g id="I618_1_">
	<g id="shape_37_1_">
		<path class="st0" d="M916.7,441.6l21.6,0.9"/>
		<path class="st1" d="M916.7,441.6l-118.1-30.9l86.6,48.4L916.7,441.6"/>
	</g>
</g>
<g id="I1381_1_">
	<g id="shape_38_1_">
		<path class="st0" d="M1259.3,477.6l-47.1-9.9"/>
		<path class="st1" d="M1259.3,477.6l12.3,13.8l2-21.9L1259.3,477.6"/>
	</g>
</g>
<g id="I1734_1_">
	<g id="shape_39_1_">
		<path class="st0" d="M1128.1,427.4l1.8,8.7"/>
		<path class="st1" d="M1128.1,427.4l-9.2-84.1l-9.2,27.6L1128.1,427.4"/>
	</g>
</g>
<g id="I238_1_">
	<path id="shape_40_1_" class="st0" d="M1137.4,436.3l-1.6,5.6 M1143.8,440.1c-3.7-3.6-8.9-5.1-13.9-4.1"/>
</g>
<g id="I1316_1_">
	<path id="shape_41_1_" class="st0" d="M1178.5,439.3l-5.6,1.5 M1179.7,446.3c-0.5-4.7-1.7-9.4-3.5-13.7"/>
</g>
<g id="I584_1_">
	<path id="shape_42_1_" class="st0" d="M1079.4,564.9l6.4-13.5 M1065.7,557.4c8.8,5.6,18.3,10,28.2,13.3"/>
</g>
<g id="I599_1_">
	<path id="shape_43_1_" class="st0" d="M963.9,687l0.5-0.7"/>
</g>
<g id="I602_1_">
	<path id="shape_44_1_" class="st0" d="M978.5,470.9l28.7-3.7 M977.3,450.2c-0.1,13.9,1.7,27.7,5.3,41.2"/>
</g>
<g id="I1436_1_">
	<g id="shape_45_1_">
		<path class="st8" d="M1202.8,433.1l-20,5.1"/>
		<path class="st9" d="M1202.8,433.1l94.1-11l-66.4-4.2L1202.8,433.1"/>
	</g>
</g>
<g id="I947_1_">
	<path id="shape_46_1_" class="st0" d="M1148.9,410.5l-2.7,6.9 M1153.7,412.7c-3.1-1.7-6.4-3-9.8-3.8"/>
</g>
<g id="I289_1_">
	<g id="shape_47_1_">
		<path class="st0" d="M1132,544.3l0.1-7.1"/>
		<path class="st1" d="M1132,544.3l-21.1,159.9l31.5-110.5L1132,544.3"/>
	</g>
</g>
<g id="I585_1_">
	<g id="shape_48_1_">
		<path class="st0" d="M1091.8,577.1l2.1-6.3"/>
		<path class="st1" d="M1091.8,577.1l-52.7,100.7l47.2-35.6L1091.8,577.1"/>
	</g>
</g>
<g id="I252_1_">
	<path id="shape_49_1_" class="st0" d="M1186.8,628.2l-40.4-133.1 M1173.1,631.7c9.2-2,18.2-4.8,27-8.2"/>
</g>
<g id="I2107_1_">
	<path id="shape_50_1_" class="st0" d="M1088.6,355.6l31.2,66.9"/>
</g>
<g id="I675_1_">
	<path id="shape_51_1_" class="st0" d="M981.7,543.4l21-12.8 M973.6,528.5c4.9,10.2,10.8,19.8,17.6,28.8"/>
</g>
<g id="I961_1_">
	<path id="shape_52_1_" class="st0" d="M1326.9,308.9l-88.8,65.1"/>
</g>
<g id="I1_1_">
	<g id="shape_53_1_">
		<path class="st0" d="M1123.4,445.4l9.7,5.6"/>
		<path class="st1" d="M1123.4,445.4l-68.5-47.9l25.8,28.4L1123.4,445.4"/>
	</g>
</g>
<g id="I1344_1_">
	<path id="shape_54_1_" class="st0" d="M1184.1,445.9l-4.4,0.4 M1184.3,453.6c0.3-5.1-0.3-10.3-1.5-15.3"/>
</g>
<g id="I256_1_">
	<g id="shape_55_1_">
		<path class="st6" d="M1174.1,636.1l-1-4.4"/>
		<path class="st7" d="M1174.1,636.1l-7.6,49.2l29.4-27.2L1174.1,636.1"/>
	</g>
</g>
<g id="I1359_1_">
	<g id="shape_56_1_">
		<path class="st0" d="M1300.4,545.2l-25.4-14.3"/>
		<path class="st1" d="M1300.4,545.2l46.9,48.9l9-39L1300.4,545.2"/>
	</g>
</g>
<g id="I603_1_">
	<path id="shape_57_1_" class="st0" d="M966.2,450.1l11,0.1 M967.4,431c-1.5,12.7-1.6,25.5-0.2,38.1"/>
</g>
<g id="I742_1_">
	<path id="shape_58_1_" class="st0" d="M1222.3,581.5l-55.8-81.6"/>
</g>
<g id="I1740_1_">
	<g id="shape_59_1_">
		<path class="st6" d="M1120.1,436.9l3.1,3.3"/>
		<path class="st7" d="M1120.1,436.9l-97.9-127.2l64.9,98.2L1120.1,436.9"/>
	</g>
</g>
<g id="I1739_1_">
	<path id="shape_60_1_" class="st0" d="M1124.6,439.1l3,4.2 M1126.1,438.1c-1.1,0.6-2.1,1.3-2.9,2.1"/>
</g>
<g id="I946_1_">
	<path id="shape_61_1_" class="st0" d="M1158.2,425.1l-6.8,7 M1166.3,436.8c-3.8-8.9-11-15.9-20.1-19.4"/>
</g>
<g id="I251_1_">
	<path id="shape_62_1_" class="st0" d="M1135.5,497l-1-19.3 M1124.3,496.3c7.4,1.4,14.9,1,22.1-1.2"/>
</g>
<g id="I2108_1_">
	<g id="shape_63_1_">
		<path class="st6" d="M1120.8,418.4l1.2,3.1"/>
		<path class="st7" d="M1120.8,418.4l-46.7-169.8l24.5,128.5L1120.8,418.4"/>
	</g>
</g>
<g id="I617_1_">
	<path id="shape_64_1_" class="st0" d="M939.6,427.7l27.9,3.4 M941.9,413c-1.9,9.7-3.1,19.6-3.6,29.5"/>
</g>
<g id="I950_1_">
	<path id="shape_65_1_" class="st0" d="M1166.8,407.6l-3.3,4.2 M1172.7,412.9c-3.6-3.8-7.8-7-12.4-9.6"/>
</g>
<g id="I741_1_">
	<path id="shape_66_1_" class="st0" d="M1164.6,501.1l-15.2-24.2 M1162.6,502.3c1.3-0.8,2.6-1.6,3.8-2.4"/>
</g>
<g id="I1349_1_">
	<g id="shape_67_1_">
		<path class="st0" d="M1242.7,492.3l-21.2-8"/>
		<path class="st1" d="M1242.7,492.3l81.4,47.8l-14-37.5L1242.7,492.3"/>
	</g>
</g>
<g id="I654_1_">
	<g id="shape_68_1_">
		<path class="st6" d="M1007.7,579.1l18.6-19"/>
		<path class="st7" d="M1007.7,579.1l-70.8,43.9l37.3,17.3L1007.7,579.1"/>
	</g>
</g>
<g id="I583_1_">
	<path id="shape_69_1_" class="st0" d="M1053,527.9l24.6-23.6 M1030.8,494.3c10.6,25.2,30.2,45.5,54.9,57.2"/>
</g>
<g id="I286_1_">
	<path id="shape_70_1_" class="st0" d="M1144.7,628.1l-7.4-112.4"/>
</g>
<g id="I595_1_">
	<g id="shape_71_1_">
		<path class="st0" d="M1061.4,592.5l12.6-24.9"/>
		<path class="st1" d="M1061.4,592.5l-53,64l45-13.1L1061.4,592.5"/>
	</g>
</g>
<g id="I598_1_">
	<path id="shape_72_1_" class="st0" d="M955.6,679.7l97.3-125.4 M947,672.8c5.6,4.7,11.5,9.3,17.5,13.5"/>
</g>
<g id="I959_1_">
	<path id="shape_73_1_" class="st0" d="M1235,370.1l-17.4,13.8 M1238,374.1c-2-2.7-4-5.3-6.2-7.8"/>
</g>
<g id="I945_1_">
	<path id="shape_74_1_" class="st0" d="M1144.1,427.1l-1.9,4 M1151.4,432.1c-4.3-4.1-9.8-6.7-15.7-7.3"/>
</g>
<g id="I240_1_">
	<g id="shape_75_1_">
		<path class="st0" d="M1131.5,422.4l0.6,10.7"/>
		<path class="st1" d="M1131.5,422.4l3.7-68.6l-13.4,11.4L1131.5,422.4"/>
	</g>
</g>
<g id="I0_1_">
	<path id="shape_76_1_" class="st0" d="M1133.1,451L1133.1,451 M1133.1,451L1133.1,451"/>
</g>
<g id="I239_1_">
	<path id="shape_77_1_" class="st0" d="M1145.6,438.3l-1.8,1.8 M1150.9,451.7c0.4-9.9-7.3-18.2-17.2-18.6c-0.6,0-1.1,0-1.7,0"/>
</g>
<g id="I2680_1_">
	<g id="shape_78_1_">
		<path class="st0" d="M1112.2,419.7l6.7,10"/>
		<path class="st1" d="M1112.2,419.7l-50.4-95.3l15.9,56.1L1112.2,419.7"/>
	</g>
</g>
<g id="I1317_1_">
	<g id="shape_79_1_">
		<path class="st6" d="M1179.5,431.2l-3.3,1.4"/>
		<path class="st7" d="M1179.5,431.2l82-23.8l-49.2,2.3L1179.5,431.2"/>
	</g>
</g>
<g id="I1370_1_">
	<g id="shape_80_1_">
		<path class="st0" d="M1275.2,562.6l-14-11"/>
		<path class="st1" d="M1275.2,562.6l45.6,60.5l-5.5-50.3L1275.2,562.6"/>
	</g>
</g>
<g id="I249_1_">
	<path id="shape_81_1_" class="st0" d="M1154.9,451.9l-4-0.2 M1140.7,471.6c11.3-4.2,17.1-16.8,12.9-28.2c-2-5.4-6.1-9.8-11.3-12.3"
		/>
</g>
<g id="I1391_1_">
	<g id="shape_82_1_">
		<path class="st0" d="M1203.8,444l-11.3,1.1"/>
		<path class="st1" d="M1203.8,444l125.3,2.7l-62.9-19.2L1203.8,444"/>
	</g>
</g>
<g id="I993_1_">
	<g id="shape_83_1_">
		<path class="st6" d="M1182.6,420.2l-14.7,9.1"/>
		<path class="st7" d="M1182.6,420.2l127-61.1l-92.7,30.4L1182.6,420.2"/>
	</g>
</g>
<g id="I1719_1_">
	<g id="shape_84_1_">
		<path class="st0" d="M1137.1,409.9l-1.5,14.9"/>
		<path class="st1" d="M1137.1,409.9l26.3-131l-28.1,69.6L1137.1,409.9"/>
	</g>
</g>
<g id="I962_1_">
	<path id="shape_85_1_" class="st0" d="M1179.7,369.3l-19.4,34 M1182.7,371.1c-2-1.3-4.1-2.5-6.2-3.6"/>
</g>
<g id="I1345_1_">
	<path id="shape_86_1_" class="st0" d="M1192.7,454l-8.4-0.4 M1191.6,462.7c1.2-5.8,1.5-11.7,0.9-17.6"/>
</g>
<g id="I285_1_">
	<path id="shape_87_1_" class="st0" d="M1120.8,514.7l3.6-18.4 M1105.1,509.5c10,4.8,21.1,6.9,32.2,6.2"/>
</g>
<g id="container_9_1_">
</g>
<path class="st10" d="M1336.6,345.5c98.6,154.9-23.2,437.5,98.6,154.9"/>
<text transform="matrix(1 0 0 1 1446.7686 465.6523)" class="st11 st12">CLADE1</text>
<text transform="matrix(1 0 0 1 1067.651 235.7383)" class="st11 st13">29</text>
<text transform="matrix(1 0 0 1 1016.2487 297.7766)" class="st11 st13">1</text>
<text transform="matrix(1 0 0 1 1030.7725 392.9524)" class="st11 st13">2</text>
<text transform="matrix(1 0 0 1 1319.3678 360.258)" class="st11 st13">6</text>
<text transform="matrix(1 0 0 1 1283.3748 403.2417)" class="st11 st13">1</text>
<text transform="matrix(1 0 0 1 1320.7942 425.068)" class="st11 st13">14</text>
<text transform="matrix(1 0 0 1 1258.4159 633.9351)" class="st11 st13">18</text>
<text transform="matrix(1 0 0 1 1179.3031 721.588)" class="st11 st13">13</text>
<text transform="matrix(1 0 0 1 1226.3187 665.978)" class="st11 st13">1</text>
<text transform="matrix(1 0 0 1 820.6984 525.2254)" class="st11 st13">12</text>
<text transform="matrix(1 0 0 1 915.587 650.9247)" class="st11 st13">2</text>
</svg>
