<svg xmlns="http://www.w3.org/2000/svg" xmlns:xlink="http://www.w3.org/1999/xlink" width="1620" height="911" style="border: 1px solid black; overflow: hidden;"><defs/><g id="container"><g id="container_1" transform="matrix(-0.3569,-0.2061,0.2061,-0.3569,741.0000,441.50)"><g id="container_2"/><g id="container_3"/><g id="container_4"><g id="I949"><path d="M -10.990049884769414 139.6418238966535L -9.633981130087948 122.41133666334133M -32.69953815226078 136.2033787476748M -32.69953815226075 136.20337874767483A 140.07362413264573 140.07362413264573 0 0 0 10.990049884769494 139.6418238966535" style="fill:none;stroke:#000000;stroke-linecap:round;stroke-miterlimit:10;" id="shape"/></g><g id="I739"><path d="M 649.4480483301838 -760.4059656000309L 332.9753815679709 -389.8640810350157" style="fill:none;stroke:#000000;stroke-linecap:round;stroke-miterlimit:10;" id="shape_1"/></g><g id="I250"><path d="M -49.32196117131643 -57.355514900331706L -40.333366157875 -46.902858862673845M -29.419500303354422 -69.69077374493662M -29.419500303354422 -69.69077374493662A 75.6459578779132 75.6459578779132 0 0 0 -64.49878195774667 -39.52490441777274" style="fill:none;stroke:#000000;stroke-linecap:round;stroke-miterlimit:10;" id="shape_2"/></g><g id="I1358"><path d="M -447.1587029406821 -107.35330651387312L -259.38172821242125 -62.27204343729398M -437.3574185387159 -142.10603957680777M -437.35741853871593 -142.10603957680758A 459.864804083825 459.864804083825 0 0 0 -454.2031052436612 -71.93870461768408" style="fill:none;stroke:#000000;stroke-linecap:round;stroke-miterlimit:10;" id="shape_3"/></g><g id="I1346"><path d="M -194.76564754723526 32.811037478146304L -166.28714633004225 28.01342977614054M -197.47198259834585 3.8778516687448032M -197.47198259834585 3.8778516687446283A 197.51005454124657 197.51005454124657 0 0 0 -187.84322440526373 61.03396341316797" style="fill:none;stroke:#000000;stroke-linecap:round;stroke-miterlimit:10;" id="shape_4"/></g><g id="I653"><path d="M 239.52978478911155 -358.48165624540906L 198.94786124801178 -297.74651561374884M 280.0044746867294 -327.8431176965264M 280.0044746867294 -327.8431176965264A 431.1422220863665 431.1422220863665 0 0 0 195.73447286380846 -384.1505327320226" style="fill:none;stroke:#000000;stroke-linecap:round;stroke-miterlimit:10;" id="shape_5"/></g><g id="I951"><path d="M -116.66863975390905 281.6630123975081L -59.41259676104487 143.43469687631836M -138.4080145264271 271.6410233556754M -138.40801452642734 271.6410233556752A 304.86984772992264 304.86984772992264 0 0 0 -94.20996402104856 289.94845530545416" style="fill:none;stroke:#000000;stroke-linecap:round;stroke-miterlimit:10;" id="shape_6"/></g><g id="I963"><path d="M 2.484899112631863e-14 405.8148217693373L 1.6264334768917275e-14 265.6167440316855" style="fill:none;stroke:#000000;stroke-linecap:round;stroke-miterlimit:10;" id="shape_7"/></g><g id="I696"><g id="shape_8"><path d="M 417.2003900983045 -356.3227951507861L 389.86408103501554 -332.975381567971" style="fill:none;stroke:#000000;stroke-linecap:round;stroke-miterlimit:10;"/><path d="M 417.2003900983045 -356.3227951507861L 492.4120844864685 -357.75832068318834L 430.38394310566684 -430.383943105667L 417.2003900983045 -356.3227951507861" style="fill:#000000;fill-opacity:0.5;stroke:#000000;stroke-linecap:round;stroke-miterlimit:10;"/></g></g><g id="I740"><path d="M -73.5575787310075 -45.076142220026476L -64.49878195774666 -39.52490441777276M -69.79419190689762 -50.708448628128686M -69.79419190689762 -50.708448628128686A 86.27036563159113 86.27036563159113 0 0 0 -76.86745862186369 -39.165926405799404" style="fill:none;stroke:#000000;stroke-linecap:round;stroke-miterlimit:10;" id="shape_9"/></g><g id="I633"><g id="shape_10"><path d="M 586.9793155280522 -46.196274002803854L 548.6025191143929 -43.17595462258798" style="fill:none;stroke:#000000;stroke-linecap:round;stroke-miterlimit:10;"/><path d="M 586.9793155280522 -46.196274002803854L 648.794372076978 -1.589087902137776e-13L 640.8066367441747 -101.49380051697472L 586.9793155280522 -46.196274002803854" style="fill:#000000;fill-opacity:0.5;stroke:#000000;stroke-linecap:round;stroke-miterlimit:10;"/></g></g><g id="I992"><path d="M -82.0122573557896 82.11296334257158L -72.07105038453018 72.15954918314146M -93.80593874083874 68.33004436147235M -93.80593874083867 68.33004436147245A 116.05407836647004 116.05407836647004 0 0 0 -68.21487573220602 93.8897216649962" style="fill:none;stroke:#000000;stroke-linecap:round;stroke-miterlimit:10;" id="shape_11"/></g><g id="I8"><g id="shape_12"><path d="M 12.681092079369353 3.0444608501956827L 0 0" style="fill:none;stroke:#000000;stroke-linecap:round;stroke-miterlimit:10;"/><path d="M 12.681092079369353 3.0444608501956827L 69.46652583701321 22.57104247331767L 72.14216658558263 11.426196678456968L 12.681092079369353 3.0444608501956827" style="fill:#000000;fill-opacity:0.5;stroke:#000000;stroke-linecap:round;stroke-miterlimit:10;"/></g></g><g id="I638"><g id="shape_13"><path d="M 449.7080114541681 -275.58142385195623L 375.08929130089206 -229.85501333203558" style="fill:none;stroke:#000000;stroke-linecap:round;stroke-miterlimit:10;"/><path d="M 449.7080114541681 -275.58142385195623L 523.4039725034348 -266.68764435698245L 475.2408620849968 -345.2826973506808L 449.7080114541681 -275.58142385195623" style="fill:#000000;fill-opacity:0.5;stroke:#000000;stroke-linecap:round;stroke-miterlimit:10;"/></g></g><g id="I788"><g id="shape_14"><path d="M -92.45027760245509 -47.10576925127558L -76.86745862186366 -39.16592640579943" style="fill:none;stroke:#000000;stroke-linecap:round;stroke-miterlimit:10;"/><path d="M -92.45027760245509 -47.10576925127558L -139.62781805255295 -85.56403694886343L -151.29393226002384 -62.66799864685818L -92.45027760245509 -47.10576925127558" style="fill:#000000;fill-opacity:0.5;stroke:#000000;stroke-linecap:round;stroke-miterlimit:10;"/></g></g><g id="I594"><path d="M 86.18021029469855 -358.96641012685274L 83.01902727227873 -345.7991352103537M 114.07872540277491 -351.0982151140569M 114.07872540277491 -351.0982151140569A 369.1665101899119 369.1665101899119 0 0 0 57.750365532327415 -364.62145785277215" style="fill:none;stroke:#000000;stroke-linecap:round;stroke-miterlimit:10;" id="shape_15"/></g><g id="I2105"><path d="M 58.572221336323615 42.555209760582095L 33.36738927721442 24.242827358406338M 55.05281944911034 47.019549771792626M 55.052819449110316 47.01954977179265A 72.39924716485956 72.39924716485956 0 0 0 61.730506001758414 37.82850273015432" style="fill:none;stroke:#000000;stroke-linecap:round;stroke-miterlimit:10;" id="shape_16"/></g><g id="I288"><path d="M -56.77233933992054 -236.47381200006646L -50.75477617276665 -211.40885752341575M -38.04380771170444 -240.19914856377972M -38.04380771170423 -240.19914856377977A 243.19326116479846 243.19326116479846 0 0 0 -75.15085061738768 -231.29053574985068" style="fill:none;stroke:#000000;stroke-linecap:round;stroke-miterlimit:10;" id="shape_17"/></g><g id="I578"><g id="shape_18"><path d="M -48.89580360529928 -308.71595407421137L -38.04380771170444 -240.19914856377972" style="fill:none;stroke:#000000;stroke-linecap:round;stroke-miterlimit:10;"/><path d="M -48.89580360529928 -308.71595407421137L -29.23104531118263 -371.4156463762874L -86.97337058570933 -362.27016050464414L -48.89580360529928 -308.71595407421137" style="fill:#000000;fill-opacity:0.5;stroke:#000000;stroke-linecap:round;stroke-miterlimit:10;"/></g></g><g id="I1347"><path d="M -228.48551849017318 4.4868792904323715L -197.47198259834585 3.8778516687448032M -226.9455071901461 -26.860770869383767M -226.94550719014606 -26.86077086938387A 228.52956973987017 228.52956973987017 0 0 0 -225.71599151329312 35.74990098813095" style="fill:none;stroke:#000000;stroke-linecap:round;stroke-miterlimit:10;" id="shape_19"/></g><g id="I601"><path d="M 274.56890341509785 -229.8807437188187L 240.42880349775132 -201.29720253109204M 328.08387443466256 -143.50683046889134M 328.08387443466245 -143.50683046889165A 358.0966895341069 358.0966895341069 0 0 0 198.94786124801178 -297.74651561374884" style="fill:none;stroke:#000000;stroke-linecap:round;stroke-miterlimit:10;" id="shape_20"/></g><g id="I604"><g id="shape_21"><path d="M 480.19941911369233 -198.90511204057378L 435.1675487642573 -180.2523006028109" style="fill:none;stroke:#000000;stroke-linecap:round;stroke-miterlimit:10;"/><path d="M 480.19941911369233 -198.90511204057378L 551.3884307670774 -179.15696143117782L 516.573600787972 -263.2073961384472L 480.19941911369233 -198.90511204057378" style="fill:#000000;fill-opacity:0.5;stroke:#000000;stroke-linecap:round;stroke-miterlimit:10;"/></g></g><g id="I237"><path d="M 14.980446839776224 22.23153858442116L 0 0M 3.358575190616762 26.596523608151156M 3.358575190616762 26.596523608151156A 26.80774319762796 26.80774319762796 0 0 0 23.389648898563333 13.098832762956528" style="fill:none;stroke:#000000;stroke-linecap:round;stroke-miterlimit:10;" id="shape_22"/></g><g id="I1384"><g id="shape_23"><path d="M -222.79959008775555 72.3919751321296L -187.84322440526373 61.03396341316797" style="fill:none;stroke:#000000;stroke-linecap:round;stroke-miterlimit:10;"/><path d="M -222.79959008775555 72.3919751321296L -286.13477743779924 68.69488229693206L -271.8657363509768 112.61047514112278L -222.79959008775555 72.3919751321296" style="fill:#000000;fill-opacity:0.5;stroke:#000000;stroke-linecap:round;stroke-miterlimit:10;"/></g></g><g id="I987"><g id="shape_24"><path d="M 22.218216946017794 282.30921338884815L 10.990049884769432 139.6418238966535" style="fill:none;stroke:#000000;stroke-linecap:round;stroke-miterlimit:10;"/><path d="M 22.218216946017794 282.30921338884815L 2.1013847270754123e-14 343.18216951017683L 53.68551909867036 338.95702752534584L 22.218216946017794 282.30921338884815" style="fill:#000000;fill-opacity:0.5;stroke:#000000;stroke-linecap:round;stroke-miterlimit:10;"/></g></g><g id="I695"><path d="M 362.53731284628685 -362.537312846287L 353.94553980314913 -353.9455398031493M 389.86408103501554 -332.975381567971M 389.86408103501554 -332.975381567971A 512.7051846935167 512.7051846935167 0 0 0 332.9753815679709 -389.8640810350157" style="fill:none;stroke:#000000;stroke-linecap:round;stroke-miterlimit:10;" id="shape_25"/></g><g id="I952"><g id="shape_26"><path d="M -124.81330817862617 384.13586380173933L -94.20996402104856 289.94845530545416" style="fill:none;stroke:#000000;stroke-linecap:round;stroke-miterlimit:10;"/><path d="M -124.81330817862617 384.13586380173933L -177.52850885627169 428.59173378868326L -108.29631972468239 451.0866356508584L -124.81330817862617 384.13586380173933" style="fill:#000000;fill-opacity:0.5;stroke:#000000;stroke-linecap:round;stroke-miterlimit:10;"/></g></g><g id="I287"><path d="M 28.202132336402173 -215.57920139796326L 23.749924293096566 -181.54619130551237M 103.42921313298754 -191.23846426489254M 103.42921313298754 -191.23846426489254A 217.41608115248408 217.41608115248408 0 0 0 -50.75477617276665 -211.40885752341575" style="fill:none;stroke:#000000;stroke-linecap:round;stroke-miterlimit:10;" id="shape_27"/></g><g id="I253"><g id="shape_28"><path d="M -366.24030566388717 -428.81230297948554L -339.462743677985 -397.4598061467404" style="fill:none;stroke:#000000;stroke-linecap:round;stroke-miterlimit:10;"/><path d="M -366.24030566388717 -428.81230297948554L -366.73419863685126 -504.76632062224604L -441.18194142798603 -441.18194142798586L -366.24030566388717 -428.81230297948554" style="fill:#000000;fill-opacity:0.5;stroke:#000000;stroke-linecap:round;stroke-miterlimit:10;"/></g></g><g id="I964"><g id="shape_29"><path d="M -54.76446133675296 345.76920071528644L -41.55161325832471 262.34656114693894" style="fill:none;stroke:#000000;stroke-linecap:round;stroke-miterlimit:10;"/><path d="M -54.76446133675296 345.76920071528644L -95.73110142918198 398.7487347734746L -32.17444770417625 408.81511980260996L -54.76446133675296 345.76920071528644" style="fill:#000000;fill-opacity:0.5;stroke:#000000;stroke-linecap:round;stroke-miterlimit:10;"/></g></g><g id="I1348"><path d="M -264.9031065182122 -31.353348805499564L -226.9455071901461 -26.860770869383767M -259.38172821242125 -62.27204343729398M -259.3817282124213 -62.27204343729387A 266.75211025279367 266.75211025279367 0 0 0 -266.75211025279367 3.266771179868856e-14" style="fill:none;stroke:#000000;stroke-linecap:round;stroke-miterlimit:10;" id="shape_30"/></g><g id="I743"><g id="shape_31"><path d="M -217.50836184411602 -185.76969077785847L -127.06527431161251 -108.5239965826655" style="fill:none;stroke:#000000;stroke-linecap:round;stroke-miterlimit:10;"/><path d="M -217.50836184411602 -185.76969077785847L -244.6889410734174 -244.6889410734173L -279.95419776886564 -203.39863057270435L -217.50836184411602 -185.76969077785847" style="fill:#000000;fill-opacity:0.5;stroke:#000000;stroke-linecap:round;stroke-miterlimit:10;"/></g></g><g id="I2106"><path d="M 67.53803318466659 57.68292967721439L 55.05281944911034 47.019549771792626M 62.80408546663022 62.80408546663021M 62.80408546663022 62.80408546663021A 88.81838943934744 88.81838943934744 0 0 0 71.85558646944445 52.20613944481797" style="fill:none;stroke:#000000;stroke-linecap:round;stroke-miterlimit:10;" id="shape_32"/></g><g id="I948"><path d="M 122.76929821221047 511.370929617482L 28.664722801490853 119.39716329475536" style="fill:none;stroke:#000000;stroke-linecap:round;stroke-miterlimit:10;" id="shape_33"/></g><g id="I676"><g id="shape_34"><path d="M 314.11466059231424 -432.3417397942006L 294.21860169674125 -404.9571640417042" style="fill:none;stroke:#000000;stroke-linecap:round;stroke-miterlimit:10;"/><path d="M 314.11466059231424 -432.3417397942006L 386.03437477364383 -451.98818020824604L 310.5751218574773 -506.8125365833535L 314.11466059231424 -432.3417397942006" style="fill:#000000;fill-opacity:0.5;stroke:#000000;stroke-linecap:round;stroke-miterlimit:10;"/></g></g><g id="I618"><g id="shape_35"><path d="M 594.4827179367642 -142.72267321683285L 535.0941043864212 -128.46472857217796" style="fill:none;stroke:#000000;stroke-linecap:round;stroke-miterlimit:10;"/><path d="M 594.4827179367642 -142.72267321683285L 663.1093184321038 -105.02619827385365L 638.5156252131978 -207.46630298423665L 594.4827179367642 -142.72267321683285" style="fill:#000000;fill-opacity:0.5;stroke:#000000;stroke-linecap:round;stroke-miterlimit:10;"/></g></g><g id="I1381"><g id="shape_36"><path d="M -359.83615030437574 56.99244727449431L -225.71599151329315 35.74990098813075" style="fill:none;stroke:#000000;stroke-linecap:round;stroke-miterlimit:10;"/><path d="M -359.83615030437574 56.99244727449431L -423.01351144269273 33.291885360415236L -412.59751488961825 99.0558993742393L -359.83615030437574 56.99244727449431" style="fill:#000000;fill-opacity:0.5;stroke:#000000;stroke-linecap:round;stroke-miterlimit:10;"/></g></g><g id="I1734"><g id="shape_37"><path d="M 40.08215902899664 55.16835902096139L 25.374758207009535 34.925358432455454" style="fill:none;stroke:#000000;stroke-linecap:round;stroke-miterlimit:10;"/><path d="M 40.08215902899664 55.16835902096139L 66.98005343083776 109.30151319508906L 83.25394157083927 97.4778413653759L 40.08215902899664 55.16835902096139" style="fill:#000000;fill-opacity:0.5;stroke:#000000;stroke-linecap:round;stroke-miterlimit:10;"/></g></g><g id="I238"><path d="M 5.408515122078077 42.82997758432682L 3.358575190616762 26.596523608151156M -15.895982155932217 40.136975060385026M -15.895982155932217 40.136975060385026A 43.17011716106044 43.17011716106044 0 0 0 25.374758207009535 34.925358432455454" style="fill:none;stroke:#000000;stroke-linecap:round;stroke-miterlimit:10;" id="shape_38"/></g><g id="I1316"><path d="M -107.08627454549344 78.00369559131977L -93.80593874083874 68.33004436147235M -117.89625375917613 60.43608252929721M -117.89625375917606 60.43608252929732A 132.4841376238532 132.4841376238532 0 0 0 -93.68043211347832 93.6804321134785" style="fill:none;stroke:#000000;stroke-linecap:round;stroke-miterlimit:10;" id="shape_39"/></g><g id="I584"><path d="M 41.799246915385304 -353.1600540247587L 36.85628201035123 -311.3971544098906M 83.01902727227873 -345.7991352103537M 83.01902727227873 -345.7991352103537A 355.62508460661746 355.62508460661746 0 0 0 -6.532726823400011e-14 -355.62508460661746" style="fill:none;stroke:#000000;stroke-linecap:round;stroke-miterlimit:10;" id="shape_40"/></g><g id="I602"><path d="M 403.04492551533565 -176.2954668129991L 328.08387443466256 -143.50683046889134M 423.3986007728215 -119.41075523625422M 423.3986007728215 -119.41075523625422A 439.9151095410065 439.9151095410065 0 0 0 375.0892913008923 -229.8550133320352" style="fill:none;stroke:#000000;stroke-linecap:round;stroke-miterlimit:10;" id="shape_41"/></g><g id="I1436"><g id="shape_42"><path d="M -164.4452341001352 119.47645610154564L -117.26455820842544 85.19768856618124" style="fill:none;stroke:#000000;stroke-linecap:round;stroke-miterlimit:10;"/><path d="M -164.4452341001352 119.47645610154564L -224.4707288919672 137.55583957934255L -200.18864755373386 170.9772573246974L -164.4452341001352 119.47645610154564" style="fill:#000000;fill-opacity:0.5;stroke:#000000;stroke-linecap:round;stroke-miterlimit:10;"/></g></g><g id="I947"><path d="M 9.633981130087964 122.41133666334133L 8.001764973619418 101.67206400555983M -9.633981130087948 122.41133666334133M -9.633981130088003 122.41133666334133A 122.78985681285236 122.78985681285236 0 0 0 28.6647228014908 119.39716329475537" style="fill:none;stroke:#000000;stroke-linecap:round;stroke-miterlimit:10;" id="shape_43"/></g><g id="I289"><g id="shape_44"><path d="M -81.36287472909493 -250.4091800909878L -75.15085061738768 -231.29053574985068" style="fill:none;stroke:#000000;stroke-linecap:round;stroke-miterlimit:10;"/><path d="M -81.36287472909493 -250.4091800909878L -75.47190413925604 -314.36310495952955L -123.71994391358733 -298.68636653222063L -81.36287472909493 -250.4091800909878" style="fill:#000000;fill-opacity:0.5;stroke:#000000;stroke-linecap:round;stroke-miterlimit:10;"/></g></g><g id="I585"><g id="shape_45"><path d="M -6.878701402859656e-14 -374.4590634975394L -6.532726823400011e-14 -355.62508460661746" style="fill:none;stroke:#000000;stroke-linecap:round;stroke-miterlimit:10;"/><path d="M -6.878701402859656e-14 -374.4590634975394L 34.087265252783034 -433.11977119815873L -34.08726525278319 -433.1197711981587L -6.878701402859656e-14 -374.4590634975394" style="fill:#000000;fill-opacity:0.5;stroke:#000000;stroke-linecap:round;stroke-miterlimit:10;"/></g></g><g id="I252"><path d="M -307.23195635075103 -422.86851011216237L -76.48233437926024 -105.26890227504462M -273.10698184762236 -445.67008909469365M -273.10698184762276 -445.6700890946934A 522.6942240426899 522.6942240426899 0 0 0 -339.462743677985 -397.4598061467404" style="fill:none;stroke:#000000;stroke-linecap:round;stroke-miterlimit:10;" id="shape_46"/></g><g id="I2107"><path d="M 240.44480655392823 174.69337759945097L 71.85558646944445 52.20613944481797" style="fill:none;stroke:#000000;stroke-linecap:round;stroke-miterlimit:10;" id="shape_47"/></g><g id="I675"><path d="M 325.0841968374293 -380.62469081714727L 280.0044746867294 -327.8431176965264M 353.94553980314913 -353.9455398031493M 353.94553980314885 -353.94553980314964A 500.5545827310798 500.5545827310798 0 0 0 294.21860169674125 -404.9571640417042" style="fill:none;stroke:#000000;stroke-linecap:round;stroke-miterlimit:10;" id="shape_48"/></g><g id="I1"><g id="shape_49"><path d="M 31.452822198251756 2.475390791453661L 0 0" style="fill:none;stroke:#000000;stroke-linecap:round;stroke-miterlimit:10;"/><path d="M 31.452822198251756 2.475390791453661L 90.42294715690106 14.321587877940892L 91.55008056733377 0L 31.452822198251756 2.475390791453661" style="fill:#000000;fill-opacity:0.5;stroke:#000000;stroke-linecap:round;stroke-miterlimit:10;"/></g></g><g id="I1344"><path d="M -128.98679425914938 66.12132527093715L -117.89625375917613 60.43608252929721M -137.63122824103246 45.46721633993042M -137.63122824103246 45.46721633993042A 144.9469652970948 144.9469652970948 0 0 0 -117.26455820842544 85.19768856618124" style="fill:none;stroke:#000000;stroke-linecap:round;stroke-miterlimit:10;" id="shape_50"/></g><g id="I256"><g id="shape_51"><path d="M -279.7180428965455 -456.4583602210903L -273.10698184762236 -445.67008909469365" style="fill:none;stroke:#000000;stroke-linecap:round;stroke-miterlimit:10;"/><path d="M -279.7180428965455 -456.4583602210903L -270.2818853254838 -530.4580675875327L -349.93619083938273 -481.64584638987657L -279.7180428965455 -456.4583602210903" style="fill:#000000;fill-opacity:0.5;stroke:#000000;stroke-linecap:round;stroke-miterlimit:10;"/></g></g><g id="I1359"><g id="shape_52"><path d="M -535.4174730997249 -84.80179681687731L -454.20310524366124 -71.93870461768367" style="fill:none;stroke:#000000;stroke-linecap:round;stroke-miterlimit:10;"/><path d="M -535.4174730997249 -84.80179681687731L -585.4556826462185 -140.5554737861063L -600.2354720350429 -47.239556145838066L -535.4174730997249 -84.80179681687731" style="fill:#000000;fill-opacity:0.5;stroke:#000000;stroke-linecap:round;stroke-miterlimit:10;"/></g></g><g id="I603"><path d="M 453.3375524668209 -127.8544128823512L 423.3986007728215 -119.41075523625422M 465.22289865164015 -73.68406842909862M 465.2228986516401 -73.68406842909903A 471.0219606027922 471.0219606027922 0 0 0 435.1675487642573 -180.2523006028109" style="fill:none;stroke:#000000;stroke-linecap:round;stroke-miterlimit:10;" id="shape_53"/></g><g id="I742"><path d="M -380.5011125544617 -233.17138166149502L -142.4777832815397 -87.31049788735793" style="fill:none;stroke:#000000;stroke-linecap:round;stroke-miterlimit:10;" id="shape_54"/></g><g id="I1740"><g id="shape_55"><path d="M 49.88725970309439 20.663979558650478L 38.10482130894234 15.78353377796723" style="fill:none;stroke:#000000;stroke-linecap:round;stroke-miterlimit:10;"/><path d="M 49.88725970309439 20.663979558650478L 101.57258823145266 51.75381867494344L 108.41814205848057 35.22718978377759L 49.88725970309439 20.663979558650478" style="fill:#000000;fill-opacity:0.5;stroke:#000000;stroke-linecap:round;stroke-miterlimit:10;"/></g></g><g id="I1739"><path d="M 35.98554061686443 20.15287106143091L 23.389648898563337 13.098832762956523M 33.36738927721442 24.242827358406338M 33.36738927721442 24.242827358406338A 41.2443613783346 41.2443613783346 0 0 0 38.10482130894234 15.783533777967246" style="fill:none;stroke:#000000;stroke-linecap:round;stroke-miterlimit:10;" id="shape_56"/></g><g id="I946"><path d="M -35.269894613565995 95.69363289055154L -25.721878827041866 69.78813111574905M -72.07105038453018 72.15954918314146M -72.0710503845302 72.15954918314144A 101.98645420762357 101.98645420762357 0 0 0 8.001764973619464 101.67206400555983" style="fill:none;stroke:#000000;stroke-linecap:round;stroke-miterlimit:10;" id="shape_57"/></g><g id="I251"><path d="M -50.604835206904305 -119.87593549989892L -29.419500303354422 -69.69077374493662M -22.088132245683827 -128.23105580237203M -22.088132245683827 -128.23105580237203A 130.11951912873744 130.11951912873744 0 0 0 -76.48233437926024 -105.26890227504462" style="fill:none;stroke:#000000;stroke-linecap:round;stroke-miterlimit:10;" id="shape_58"/></g><g id="I2108"><g id="shape_59"><path d="M 69.50613160863573 69.50613160863571L 62.80408546663022 62.80408546663021" style="fill:none;stroke:#000000;stroke-linecap:round;stroke-miterlimit:10;"/><path d="M 69.50613160863573 69.50613160863571L 102.80536206764187 120.36961357094101L 120.369613570941 102.80536206764188L 69.50613160863573 69.50613160863571" style="fill:#000000;fill-opacity:0.5;stroke:#000000;stroke-linecap:round;stroke-miterlimit:10;"/></g></g><g id="I617"><path d="M 543.5238142779232 -86.08571512746622L 465.22289865164015 -73.68406842909862M 548.6025191143929 -43.17595462258798M 548.6025191143929 -43.17595462258846A 550.2989069916727 550.2989069916727 0 0 0 535.0941043864212 -128.46472857217796" style="fill:none;stroke:#000000;stroke-linecap:round;stroke-miterlimit:10;" id="shape_60"/></g><g id="I950"><path d="M -36.24299903130989 150.9629555325025L -32.69953815226078 136.2033787476748M -59.41259676104487 143.43469687631836M -59.41259676104493 143.43469687631833A 155.2525971502308 155.2525971502308 0 0 0 -12.180978381806563 154.77400520615151" style="fill:none;stroke:#000000;stroke-linecap:round;stroke-miterlimit:10;" id="shape_61"/></g><g id="I741"><path d="M -135.18826911344897 -98.22002679835424L -69.79419190689762 -50.708448628128686M -127.06527431161251 -108.5239965826655M -127.06527431161251 -108.5239965826655A 167.10189038475815 167.10189038475815 0 0 0 -142.47778328153973 -87.31049788735787" style="fill:none;stroke:#000000;stroke-linecap:round;stroke-miterlimit:10;" id="shape_62"/></g><g id="I1349"><g id="shape_63"><path d="M -330.771481347243 4.050782358811296e-14L -266.75211025279367 3.266771179868856e-14" style="fill:none;stroke:#000000;stroke-linecap:round;stroke-miterlimit:10;"/><path d="M -330.771481347243 4.050782358811296e-14L -389.5668632836383 -30.659577062734893L -389.56686328363827 30.659577062735163L -330.771481347243 4.050782358811296e-14" style="fill:#000000;fill-opacity:0.5;stroke:#000000;stroke-linecap:round;stroke-miterlimit:10;"/></g></g><g id="I654"><g id="shape_64"><path d="M 229.7974890363353 -451.00296612141653L 195.73447286380812 -384.15053273202284" style="fill:none;stroke:#000000;stroke-linecap:round;stroke-miterlimit:10;"/><path d="M 229.7974890363353 -451.00296612141653L 295.8242988440904 -482.7413811624199L 216.66482111811442 -523.0751496324921L 229.7974890363353 -451.00296612141653" style="fill:#000000;fill-opacity:0.5;stroke:#000000;stroke-linecap:round;stroke-miterlimit:10;"/></g></g><g id="I583"><path d="M 149.1718958525276 -275.81573339091165L 103.42921313298754 -191.23846426489254M 240.42880349775132 -201.29720253109204M 240.42880349775115 -201.29720253109224A 313.5706830974538 313.5706830974538 0 0 0 36.85628201035123 -311.3971544098906" style="fill:none;stroke:#000000;stroke-linecap:round;stroke-miterlimit:10;" id="shape_65"/></g><g id="I286"><path d="M -227.47104569571962 -446.4370639806614L -83.12252203409416 -163.1371349881965" style="fill:none;stroke:#000000;stroke-linecap:round;stroke-miterlimit:10;" id="shape_66"/></g><g id="I595"><g id="shape_67"><path d="M 70.05808364984615 -442.3293317594476L 57.750365532327734 -364.6214578527721" style="fill:none;stroke:#000000;stroke-linecap:round;stroke-miterlimit:10;"/><path d="M 70.05808364984615 -442.3293317594476L 118.55359917375935 -493.8112793818527L 39.84490431857936 -506.2775119651651L 70.05808364984615 -442.3293317594476" style="fill:#000000;fill-opacity:0.5;stroke:#000000;stroke-linecap:round;stroke-miterlimit:10;"/></g></g><g id="I598"><g id="shape_68"><path d="M 252.5636143976847 -777.3108781212335L 114.07872540277491 -351.0982151140569" style="fill:none;stroke:#000000;stroke-linecap:round;stroke-miterlimit:10;"/><path d="M 252.5636143976847 -777.3108781212335L 335.7331596020565 -810.5315472496551L 204.80465829788653 -853.0727961216357L 252.5636143976847 -777.3108781212335" style="fill:#000000;fill-opacity:0.5;stroke:#000000;stroke-linecap:round;stroke-miterlimit:10;"/></g></g><g id="I959"><g id="shape_69"><path d="M -166.82789395497227 327.4181772873278L -138.4080145264271 271.6410233556754" style="fill:none;stroke:#000000;stroke-linecap:round;stroke-miterlimit:10;"/><path d="M -166.82789395497227 327.4181772873278L -223.35246723168385 364.4781004764011L -163.5856910609864 394.9307939696086L -166.82789395497227 327.4181772873278" style="fill:#000000;fill-opacity:0.5;stroke:#000000;stroke-linecap:round;stroke-miterlimit:10;"/></g></g><g id="I945"><path d="M -1.4488959164693118 74.36329064562194L -1.2050526671189943 61.848253355988874M -25.721878827041866 69.78813111574905M -25.721878827041866 69.78813111574905A 74.3774044654827 74.3774044654827 0 0 0 22.983881977333258 70.73711518201758" style="fill:none;stroke:#000000;stroke-linecap:round;stroke-miterlimit:10;" id="shape_70"/></g><g id="I240"><g id="shape_71"><path d="M 36.705665489136344 72.03892470053682L 22.927411362779463 44.997578404629124" style="fill:none;stroke:#000000;stroke-linecap:round;stroke-miterlimit:10;"/><path d="M 36.705665489136344 72.03892470053682L 53.90141122502486 130.12951801050437L 73.59453694449726 120.0953692763399L 36.705665489136344 72.03892470053682" style="fill:#000000;fill-opacity:0.5;stroke:#000000;stroke-linecap:round;stroke-miterlimit:10;"/></g></g><g id="I0"><path d="M 0 0L 0 0M 0 0M 0 0A 0 0 0 0 0 0 0" style="fill:none;stroke:#000000;stroke-linecap:round;stroke-miterlimit:10;" id="shape_72"/></g><g id="I239"><path d="M -18.595694278106016 46.95368365095618L -15.895982155932217 40.136975060385026M -47.519736138547245 17.09745394500893M -47.519736138547266 17.09745394500889A 50.501962873524576 50.501962873524576 0 0 0 22.927411362779463 44.997578404629124" style="fill:none;stroke:#000000;stroke-linecap:round;stroke-miterlimit:10;" id="shape_73"/></g><g id="I2680"><g id="shape_74"><path d="M 90.5544580034842 55.49184323411948L 61.73050600175841 37.82850273015435" style="fill:none;stroke:#000000;stroke-linecap:round;stroke-miterlimit:10;"/><path d="M 90.5544580034842 55.49184323411948L 134.46248865255848 97.69271642752199L 148.0895401222044 75.45538949618944L 90.5544580034842 55.49184323411948" style="fill:#000000;fill-opacity:0.5;stroke:#000000;stroke-linecap:round;stroke-miterlimit:10;"/></g></g><g id="I1317"><g id="shape_75"><path d="M -100.91975355090383 100.91975355090385L -93.6804321134784 93.68043211347842" style="fill:none;stroke:#000000;stroke-linecap:round;stroke-miterlimit:10;"/><path d="M -100.91975355090383 100.91975355090385L -154.15108217165414 131.6574619261016L -131.65746192610155 154.1510821716542L -100.91975355090383 100.91975355090385" style="fill:#000000;fill-opacity:0.5;stroke:#000000;stroke-linecap:round;stroke-miterlimit:10;"/></g></g><g id="I1370"><g id="shape_76"><path d="M -485.20698099693493 -157.65330487560982L -437.3574185387159 -142.10603957680777" style="fill:none;stroke:#000000;stroke-linecap:round;stroke-miterlimit:10;"/><path d="M -485.20698099693493 -157.65330487560982L -526.7746860157955 -218.1972192625712L -554.422780767072 -133.1051332123058L -485.20698099693493 -157.65330487560982" style="fill:#000000;fill-opacity:0.5;stroke:#000000;stroke-linecap:round;stroke-miterlimit:10;"/></g></g><g id="I249"><path d="M -58.20705422729445 20.942717906182146L -47.519736138547245 17.09745394500893M -40.333366157875 -46.902858862673845M -40.33336615787504 -46.90285886267381A 61.859991877764735 61.859991877764735 0 0 0 -1.2050526671189943 61.848253355988874" style="fill:none;stroke:#000000;stroke-linecap:round;stroke-miterlimit:10;" id="shape_77"/></g><g id="I1391"><g id="shape_78"><path d="M -178.87558761653415 91.14166418389466L -150.25066895480853 76.55653963603746" style="fill:none;stroke:#000000;stroke-linecap:round;stroke-miterlimit:10;"/><path d="M -178.87558761653415 91.14166418389466L -240.90783838229825 99.78729393993363L -222.331691182868 136.2450355853455L -178.87558761653415 91.14166418389466" style="fill:#000000;fill-opacity:0.5;stroke:#000000;stroke-linecap:round;stroke-miterlimit:10;"/></g></g><g id="I993"><g id="shape_79"><path d="M -96.84938944426332 133.30174863975577L -68.21487573220602 93.8897216649962" style="fill:none;stroke:#000000;stroke-linecap:round;stroke-miterlimit:10;"/><path d="M -96.84938944426332 133.30174863975577L -145.97645265548306 170.91646625432003L -117.44201432419754 191.6479492147453L -96.84938944426332 133.30174863975577" style="fill:#000000;fill-opacity:0.5;stroke:#000000;stroke-linecap:round;stroke-miterlimit:10;"/></g></g><g id="I1719"><g id="shape_80"><path d="M 36.048226810067845 110.9450341977054L 22.983881977333258 70.73711518201758" style="fill:none;stroke:#000000;stroke-linecap:round;stroke-miterlimit:10;"/><path d="M 36.048226810067845 110.9450341977054L 41.23917693000743 171.77353418527792L 67.60275515785209 163.20748835587418L 36.048226810067845 110.9450341977054" style="fill:#000000;fill-opacity:0.5;stroke:#000000;stroke-linecap:round;stroke-miterlimit:10;"/></g></g><g id="I962"><path d="M -20.840049546900485 264.79793625494267L -12.180978381806495 154.77400520615151M -41.55161325832471 262.34656114693894M -41.55161325832488 262.3465611469389A 265.6167440316855 265.6167440316855 0 0 0 1.6264334768917275e-14 265.6167440316855" style="fill:none;stroke:#000000;stroke-linecap:round;stroke-miterlimit:10;" id="shape_81"/></g><g id="I1345"><path d="M -160.11919155755217 52.896235947064824L -137.63122824103246 45.46721633993042M -166.28714633004225 28.01342977614054M -166.28714633004225 28.013429776140615A 168.63026799009614 168.63026799009614 0 0 0 -150.25066895480862 76.55653963603733" style="fill:none;stroke:#000000;stroke-linecap:round;stroke-miterlimit:10;" id="shape_82"/></g><g id="I285"><path d="M -31.08053537589242 -180.4358024401294L -22.088132245683827 -128.23105580237203M 23.749924293096566 -181.54619130551237M 23.749924293096566 -181.54619130551237A 183.09308692975142 183.09308692975142 0 0 0 -83.1225220340943 -163.1371349881964" style="fill:none;stroke:#000000;stroke-linecap:round;stroke-miterlimit:10;" id="shape_83"/></g></g><g id="container_5"/><g id="container_6"/><g id="container_7"/><g id="container_8"/><g id="container_9"/></g><g id="container_10" transform="matrix(1.0000,0.0000,0.0000,1.0000,100.0000,100.00)"/><g id="container_11" transform="matrix(1.0000,0.0000,0.0000,1.0000,45.0000,36.00)"><path d="M 0 -3L 0 3M 0 0L 218.33965790542402 0M 218.33965790542402 -3L 218.33965790542402 3" style="fill:none;stroke:#000;stroke-width:0.5;stroke-linecap:round;stroke-miterlimit:10;" id="shape_85" transform="matrix(0.4121,0.0000,0.0000,1.0000,94.0615,8.00)"/><text id="text" transform="matrix(1.0000,0.0000,0.0000,1.0000,0.0000,10.22)" fill="#555" style="font-weight:bold;font-size:14px;font-family:Arial;">Tree scale: 1</text></g></g></svg>