<svg xmlns="http://www.w3.org/2000/svg" xmlns:xlink="http://www.w3.org/1999/xlink" width="1653" height="920" style="border: 1px solid black; overflow: hidden;"><defs/><g id="container"><g id="container_1" transform="matrix(0.4826,0.0000,0.0000,0.4826,110.0000,218.33)"><g id="container_2"/><g id="container_3"/><g id="container_4"><g id="I11"><path d="M 373.83755867429187 898.125L 373.83755867429187 898.125M 373.83755867429187 926.2500000000001L 373.83755867429187 869.9999999999999" style="fill:none;stroke:#000000;stroke-linecap:round;stroke-miterlimit:10;" id="shape"/></g><g id="I12"><path d="M 373.83755867429187 926.2500000000001L 373.83755867429187 926.2500000000001M 373.83755867429187 952.5L 373.83755867429187 899.9999999999999" style="fill:none;stroke:#000000;stroke-linecap:round;stroke-miterlimit:10;" id="shape_1"/></g><g id="I51"><path d="M 1005 180.00000000000003L 276.308981705065 180.00000000000003" style="fill:none;stroke:#aaaaaa;stroke-width:0.3;stroke-linecap:round;stroke-miterlimit:10;stroke-dasharray:5,10;" id="shape_2"/><text id="text" transform="matrix(1.0000,0.0000,0.0000,1.0000,1005.0000,186.60)" fill="#000000" style="font-size:20px;font-family:Arial;">Erysipelotrichaceae bacterium MTC7 111 refined c7 extraction</text><path d="M 276.308981705065 180.00000000000003L 195.6003221505644 180.00000000000003" style="fill:none;stroke:#000000;stroke-linecap:round;stroke-miterlimit:10;" id="shape_3"/></g><g id="I22"><path d="M 375.9713692204147 764.9999999999997L 373.83755867429187 764.9999999999997M 375.9713692204147 779.9999999999998L 375.9713692204147 749.9999999999997" style="fill:none;stroke:#000000;stroke-linecap:round;stroke-miterlimit:10;" id="shape_4"/></g><g id="I5"><path d="M 325.42248374033466 621.5332031249998L 284.2410308399357 621.5332031249998M 325.42248374033466 688.0664062499997L 325.42248374033466 554.9999999999998" style="fill:none;stroke:#000000;stroke-linecap:round;stroke-miterlimit:10;" id="shape_5"/></g><g id="I47"><path d="M 195.6003221505644 202.50000000000003L 165.1157457186534 202.50000000000003M 195.6003221505644 225.00000000000003L 195.6003221505644 180.00000000000003" style="fill:none;stroke:#000000;stroke-linecap:round;stroke-miterlimit:10;" id="shape_6"/></g><g id="I46"><path d="M 165.1157457186534 250.31250000000003L 132.6301387141006 250.31250000000003M 165.1157457186534 298.125L 165.1157457186534 202.50000000000003" style="fill:none;stroke:#000000;stroke-linecap:round;stroke-miterlimit:10;" id="shape_7"/></g><g id="I43"><path d="M 162.91745895989413 135L 132.6301387141006 135M 162.91745895989413 150L 162.91745895989413 120" style="fill:none;stroke:#000000;stroke-linecap:round;stroke-miterlimit:10;" id="shape_8"/></g><g id="I6"><path d="M 373.83755867429187 688.0664062499997L 325.42248374033466 688.0664062499997M 373.83755867429187 753.6328124999997L 373.83755867429187 622.4999999999998" style="fill:none;stroke:#000000;stroke-linecap:round;stroke-miterlimit:10;" id="shape_9"/></g><g id="I50"><path d="M 1005 240L 213.31344869172418 240" style="fill:none;stroke:#aaaaaa;stroke-width:0.3;stroke-linecap:round;stroke-miterlimit:10;stroke-dasharray:5,10;" id="shape_10"/><text id="text_1" transform="matrix(1.0000,0.0000,0.0000,1.0000,1005.0000,246.60)" fill="#000000" style="font-size:20px;font-family:Arial;">Campylobacter sp. P0111 101 refined c7 extraction</text><path d="M 213.31344869172418 240L 207.47400051971127 240" style="fill:none;stroke:#000000;stroke-linecap:round;stroke-miterlimit:10;" id="shape_11"/></g><g id="I20"><path d="M 1005 839.9999999999999L 373.83755867429187 839.9999999999999" style="fill:none;stroke:#aaaaaa;stroke-width:0.3;stroke-linecap:round;stroke-miterlimit:10;stroke-dasharray:5,10;" id="shape_12"/><text id="text_2" transform="matrix(1.0000,0.0000,0.0000,1.0000,1005.0000,846.60)" fill="#000000" style="font-size:20px;font-family:Arial;">Enterococcus faecalis D32 123 refined c7 extraction</text><path d="M 373.83755867429187 839.9999999999999L 373.83755867429187 839.9999999999999" style="fill:none;stroke:#000000;stroke-linecap:round;stroke-miterlimit:10;" id="shape_13"/></g><g id="I26"><path d="M 1005 689.9999999999997L 376.46839538727363 689.9999999999997" style="fill:none;stroke:#aaaaaa;stroke-width:0.3;stroke-linecap:round;stroke-miterlimit:10;stroke-dasharray:5,10;" id="shape_14"/><text id="text_3" transform="matrix(1.0000,0.0000,0.0000,1.0000,1005.0000,696.60)" fill="#000000" style="font-size:20px;font-family:Arial;">Lactobacillus reuteri 119 refined c7 extraction</text><path d="M 376.46839538727363 689.9999999999997L 374.5246828777184 689.9999999999997" style="fill:none;stroke:#000000;stroke-linecap:round;stroke-miterlimit:10;" id="shape_15"/></g><g id="I33"><path d="M 338.68464222873354 554.9999999999998L 325.42248374033466 554.9999999999998M 338.68464222873354 569.9999999999998L 338.68464222873354 539.9999999999999" style="fill:none;stroke:#000000;stroke-linecap:round;stroke-miterlimit:10;" id="shape_16"/></g><g id="I44"><path d="M 1005 120L 226.50804883957858 120" style="fill:none;stroke:#aaaaaa;stroke-width:0.3;stroke-linecap:round;stroke-miterlimit:10;stroke-dasharray:5,10;" id="shape_17"/><text id="text_4" transform="matrix(1.0000,0.0000,0.0000,1.0000,1005.0000,126.60)" fill="#000000" style="font-size:20px;font-family:Arial;">Alkaliphilus oremlandii 113 refined c7 extraction</text><path d="M 226.50804883957858 120L 162.91745895989413 120" style="fill:none;stroke:#000000;stroke-linecap:round;stroke-miterlimit:10;" id="shape_18"/></g><g id="I56"><path d="M 182.36748352730834 352.5L 182.36748352730834 352.5M 182.36748352730834 375L 182.36748352730834 330" style="fill:none;stroke:#000000;stroke-linecap:round;stroke-miterlimit:10;" id="shape_19"/></g><g id="I28"><path d="M 373.83755867429187 622.4999999999998L 373.83755867429187 622.4999999999998M 373.83755867429187 644.9999999999998L 373.83755867429187 599.9999999999998" style="fill:none;stroke:#000000;stroke-linecap:round;stroke-miterlimit:10;" id="shape_20"/></g><g id="I54"><path d="M 182.36748352730834 326.25000000000006L 181.77365845479412 326.25000000000006M 182.36748352730834 352.5L 182.36748352730834 300" style="fill:none;stroke:#000000;stroke-linecap:round;stroke-miterlimit:10;" id="shape_21"/></g><g id="I4"><path d="M 284.2410308399357 565.7666015624998L 185.24782986078756 565.7666015624998M 284.2410308399357 621.5332031249998L 284.2410308399357 509.9999999999999" style="fill:none;stroke:#000000;stroke-linecap:round;stroke-miterlimit:10;" id="shape_22"/></g><g id="I27"><path d="M 1005 719.9999999999997L 376.46941571435127 719.9999999999997" style="fill:none;stroke:#aaaaaa;stroke-width:0.3;stroke-linecap:round;stroke-miterlimit:10;stroke-dasharray:5,10;" id="shape_23"/><text id="text_5" transform="matrix(1.0000,0.0000,0.0000,1.0000,1005.0000,726.60)" fill="#000000" style="font-size:20px;font-family:Arial;">Absiella sp. AM27-20 120 refined c7 extraction</text><path d="M 376.46941571435127 719.9999999999997L 374.5246828777184 719.9999999999997" style="fill:none;stroke:#000000;stroke-linecap:round;stroke-miterlimit:10;" id="shape_24"/></g><g id="I15"><path d="M 1005 960L 373.83755867429187 960" style="fill:none;stroke:#aaaaaa;stroke-width:0.3;stroke-linecap:round;stroke-miterlimit:10;stroke-dasharray:5,10;" id="shape_25"/><text id="text_6" transform="matrix(1.0000,0.0000,0.0000,1.0000,1005.0000,966.60)" fill="#000000" style="font-size:20px;font-family:Arial;">3643350-assembly 6 34 RUMEN 8 refined c7 extraction</text><path d="M 373.83755867429187 960L 373.83755867429187 960" style="fill:none;stroke:#000000;stroke-linecap:round;stroke-miterlimit:10;" id="shape_26"/></g><g id="I62"><path d="M 1005 60L 251.5434918566876 60" style="fill:none;stroke:#aaaaaa;stroke-width:0.3;stroke-linecap:round;stroke-miterlimit:10;stroke-dasharray:5,10;" id="shape_27"/><text id="text_7" transform="matrix(1.0000,0.0000,0.0000,1.0000,1005.0000,66.60)" fill="#000000" style="font-size:20px;font-family:Arial;">4304098-submission.assembly 1 297 RUMEN 11 refined c7 extraction</text><path d="M 251.5434918566876 60L 244.12218250753264 60" style="fill:none;stroke:#000000;stroke-linecap:round;stroke-miterlimit:10;" id="shape_28"/></g><g id="I61"><path d="M 244.12218250753264 75L 51.46474269563573 75M 244.12218250753264 90L 244.12218250753264 60" style="fill:none;stroke:#000000;stroke-linecap:round;stroke-miterlimit:10;" id="shape_29"/></g><g id="I21"><path d="M 1005 809.9999999999998L 373.83755867429187 809.9999999999998" style="fill:none;stroke:#aaaaaa;stroke-width:0.3;stroke-linecap:round;stroke-miterlimit:10;stroke-dasharray:5,10;" id="shape_30"/><text id="text_8" transform="matrix(1.0000,0.0000,0.0000,1.0000,1005.0000,816.60)" fill="#000000" style="font-size:20px;font-family:Arial;">RUG117 52 14 RUMEN 10 refined c7 extraction</text><path d="M 373.83755867429187 809.9999999999998L 373.83755867429187 809.9999999999998" style="fill:none;stroke:#000000;stroke-linecap:round;stroke-miterlimit:10;" id="shape_31"/></g><g id="I25"><path d="M 374.5246828777184 704.9999999999997L 373.83755867429187 704.9999999999997M 374.5246828777184 719.9999999999997L 374.5246828777184 689.9999999999997" style="fill:none;stroke:#000000;stroke-linecap:round;stroke-miterlimit:10;" id="shape_32"/></g><g id="I23"><path d="M 1005 749.9999999999997L 377.9188088314711 749.9999999999997" style="fill:none;stroke:#aaaaaa;stroke-width:0.3;stroke-linecap:round;stroke-miterlimit:10;stroke-dasharray:5,10;" id="shape_33"/><text id="text_9" transform="matrix(1.0000,0.0000,0.0000,1.0000,1005.0000,756.60)" fill="#000000" style="font-size:20px;font-family:Arial;">Blautia 118 refined c7 extraction</text><path d="M 377.9188088314711 749.9999999999997L 375.9713692204147 749.9999999999997" style="fill:none;stroke:#000000;stroke-linecap:round;stroke-miterlimit:10;" id="shape_34"/></g><g id="I1"><path d="M 51.46474269563573 211.69738769531247L 0 211.69738769531247M 51.46474269563573 348.39477539062494L 51.46474269563573 75" style="fill:none;stroke:#000000;stroke-linecap:round;stroke-miterlimit:10;" id="shape_35"/></g><g id="I29"><path d="M 1005 599.9999999999998L 375.78058391690354 599.9999999999998" style="fill:none;stroke:#aaaaaa;stroke-width:0.3;stroke-linecap:round;stroke-miterlimit:10;stroke-dasharray:5,10;" id="shape_36"/><text id="text_10" transform="matrix(1.0000,0.0000,0.0000,1.0000,1005.0000,606.60)" fill="#000000" style="font-size:20px;font-family:Arial;">Coprococcus 124 refined c7 extraction</text><path d="M 375.78058391690354 599.9999999999998L 373.83755867429187 599.9999999999998" style="fill:none;stroke:#000000;stroke-linecap:round;stroke-miterlimit:10;" id="shape_37"/></g><g id="I37"><path d="M 323.9886387161439 442.5L 185.24782986078756 442.5M 323.9886387161439 465L 323.9886387161439 420" style="fill:none;stroke:#000000;stroke-linecap:round;stroke-miterlimit:10;" id="shape_38"/></g><g id="I40"><path d="M 1005 449.99999999999994L 325.93958867528085 449.99999999999994" style="fill:none;stroke:#aaaaaa;stroke-width:0.3;stroke-linecap:round;stroke-miterlimit:10;stroke-dasharray:5,10;" id="shape_39"/><text id="text_11" transform="matrix(1.0000,0.0000,0.0000,1.0000,1005.0000,456.60)" fill="#000000" style="font-size:20px;font-family:Arial;">Eubacterium sp. Marseille-P5640 115 refined c7 extraction</text><path d="M 325.93958867528085 449.99999999999994L 323.9886387161439 449.99999999999994" style="fill:none;stroke:#000000;stroke-linecap:round;stroke-miterlimit:10;" id="shape_40"/></g><g id="I57"><path d="M 1005 330L 182.36748352730834 330" style="fill:none;stroke:#aaaaaa;stroke-width:0.3;stroke-linecap:round;stroke-miterlimit:10;stroke-dasharray:5,10;" id="shape_41"/><text id="text_12" transform="matrix(1.0000,0.0000,0.0000,1.0000,1005.0000,336.60)" fill="#000000" style="font-size:20px;font-family:Arial;">Bacteroides sp. HMSC067B03 102 refined c7 extraction</text><path d="M 182.36748352730834 330L 182.36748352730834 330" style="fill:none;stroke:#000000;stroke-linecap:round;stroke-miterlimit:10;" id="shape_42"/></g><g id="I31"><path d="M 1005 629.9999999999998L 380.4546070995066 629.9999999999998" style="fill:none;stroke:#aaaaaa;stroke-width:0.3;stroke-linecap:round;stroke-miterlimit:10;stroke-dasharray:5,10;" id="shape_43"/><text id="text_13" transform="matrix(1.0000,0.0000,0.0000,1.0000,1005.0000,636.60)" fill="#000000" style="font-size:20px;font-family:Arial;">Intestinimonas butyriciproducens 125 refined c7 extraction</text><path d="M 380.4546070995066 629.9999999999998L 376.5615570647972 629.9999999999998" style="fill:none;stroke:#000000;stroke-linecap:round;stroke-miterlimit:10;" id="shape_44"/></g><g id="I36"><path d="M 1005 509.9999999999999L 349.110571634756 509.9999999999999" style="fill:none;stroke:#aaaaaa;stroke-width:0.3;stroke-linecap:round;stroke-miterlimit:10;stroke-dasharray:5,10;" id="shape_45"/><text id="text_14" transform="matrix(1.0000,0.0000,0.0000,1.0000,1005.0000,516.60)" fill="#000000" style="font-size:20px;font-family:Arial;">bacterium 0.1xD8-82 132 refined c7 extraction</text><path d="M 349.110571634756 509.9999999999999L 284.2410308399357 509.9999999999999" style="fill:none;stroke:#000000;stroke-linecap:round;stroke-miterlimit:10;" id="shape_46"/></g><g id="I58"><path d="M 182.36748352730834 375L 182.36748352730834 375M 182.36748352730834 390.00000000000006L 182.36748352730834 360.00000000000006" style="fill:none;stroke:#000000;stroke-linecap:round;stroke-miterlimit:10;" id="shape_47"/></g><g id="I17"><path d="M 1005 930L 373.83755867429187 930" style="fill:none;stroke:#aaaaaa;stroke-width:0.3;stroke-linecap:round;stroke-miterlimit:10;stroke-dasharray:5,10;" id="shape_48"/><text id="text_15" transform="matrix(1.0000,0.0000,0.0000,1.0000,1005.0000,936.60)" fill="#000000" style="font-size:20px;font-family:Arial;">3964017-submission.assembly 7 86 RUMEN 7 refined c7 extraction</text><path d="M 373.83755867429187 930L 373.83755867429187 930" style="fill:none;stroke:#000000;stroke-linecap:round;stroke-miterlimit:10;" id="shape_49"/></g><g id="I53"><path d="M 1005 270L 183.70483098596515 270" style="fill:none;stroke:#aaaaaa;stroke-width:0.3;stroke-linecap:round;stroke-miterlimit:10;stroke-dasharray:5,10;" id="shape_50"/><text id="text_16" transform="matrix(1.0000,0.0000,0.0000,1.0000,1005.0000,276.60)" fill="#000000" style="font-size:20px;font-family:Arial;">Streptococcus gallolyticus 103 refined c7 extraction</text><path d="M 183.70483098596515 270L 181.77365845479412 270" style="fill:none;stroke:#000000;stroke-linecap:round;stroke-miterlimit:10;" id="shape_51"/></g><g id="I55"><path d="M 1005 300L 182.36748352730834 300" style="fill:none;stroke:#aaaaaa;stroke-width:0.3;stroke-linecap:round;stroke-miterlimit:10;stroke-dasharray:5,10;" id="shape_52"/><text id="text_17" transform="matrix(1.0000,0.0000,0.0000,1.0000,1005.0000,306.60)" fill="#000000" style="font-size:20px;font-family:Arial;">4309689-submission.assembly 79 12 RUMEN 3 refined c7 extraction</text><path d="M 182.36748352730834 300L 182.36748352730834 300" style="fill:none;stroke:#000000;stroke-linecap:round;stroke-miterlimit:10;" id="shape_53"/></g><g id="I16"><path d="M 1005 990.0000000000001L 373.83755867429187 990.0000000000001" style="fill:none;stroke:#aaaaaa;stroke-width:0.3;stroke-linecap:round;stroke-miterlimit:10;stroke-dasharray:5,10;" id="shape_54"/><text id="text_18" transform="matrix(1.0000,0.0000,0.0000,1.0000,1005.0000,996.60)" fill="#000000" style="font-size:20px;font-family:Arial;">3394949-submission.assembly 17 40 RUMEN 9 refined c7 extraction</text><path d="M 373.83755867429187 990.0000000000001L 373.83755867429187 990.0000000000001" style="fill:none;stroke:#000000;stroke-linecap:round;stroke-miterlimit:10;" id="shape_55"/></g><g id="I49"><path d="M 1005 210L 207.47400051971127 210" style="fill:none;stroke:#aaaaaa;stroke-width:0.3;stroke-linecap:round;stroke-miterlimit:10;stroke-dasharray:5,10;" id="shape_56"/><text id="text_19" transform="matrix(1.0000,0.0000,0.0000,1.0000,1005.0000,216.60)" fill="#000000" style="font-size:20px;font-family:Arial;">Hungateiclostridium clariflavum 107 refined c7 extraction</text><path d="M 207.47400051971127 210L 207.47400051971127 210" style="fill:none;stroke:#000000;stroke-linecap:round;stroke-miterlimit:10;" id="shape_57"/></g><g id="I0"><path d="M 0 105.84869384765624L 0 105.84869384765624M 0 211.69738769531247L 0 0" style="fill:none;stroke:#000000;stroke-linecap:round;stroke-miterlimit:10;" id="shape_58"/></g><g id="I63"><path d="M 1005 90L 259.1006897405758 90" style="fill:none;stroke:#aaaaaa;stroke-width:0.3;stroke-linecap:round;stroke-miterlimit:10;stroke-dasharray:5,10;" id="shape_59"/><text id="text_20" transform="matrix(1.0000,0.0000,0.0000,1.0000,1005.0000,96.60)" fill="#000000" style="font-size:20px;font-family:Arial;">Lachnospiraceae bacterium TF09-5 137 refined c7 extraction</text><path d="M 259.1006897405758 90L 244.12218250753264 90" style="fill:none;stroke:#000000;stroke-linecap:round;stroke-miterlimit:10;" id="shape_60"/></g><g id="I64"><path d="M 1005 0L 138.34144332116654 0" style="fill:none;stroke:#aaaaaa;stroke-width:0.3;stroke-linecap:round;stroke-miterlimit:10;stroke-dasharray:5,10;" id="shape_61"/><text id="text_21" transform="matrix(1.0000,0.0000,0.0000,1.0000,1005.0000,6.60)" fill="#000000" style="font-size:20px;font-family:Arial;">Salinicoccus sediminis 134 refined c7 extraction</text><path d="M 138.34144332116654 0L 0 0" style="fill:none;stroke:#000000;stroke-linecap:round;stroke-miterlimit:10;" id="shape_62"/></g><g id="I8"><path d="M 373.83755867429187 802.2656249999998L 373.83755867429187 802.2656249999998M 373.83755867429187 839.5312499999998L 373.83755867429187 764.9999999999997" style="fill:none;stroke:#000000;stroke-linecap:round;stroke-miterlimit:10;" id="shape_63"/></g><g id="I32"><path d="M 1005 659.9999999999997L 378.5047779141544 659.9999999999997" style="fill:none;stroke:#aaaaaa;stroke-width:0.3;stroke-linecap:round;stroke-miterlimit:10;stroke-dasharray:5,10;" id="shape_64"/><text id="text_22" transform="matrix(1.0000,0.0000,0.0000,1.0000,1005.0000,666.60)" fill="#000000" style="font-size:20px;font-family:Arial;">Lachnoclostridium sp. An169 122 refined c7 extraction</text><path d="M 378.5047779141544 659.9999999999997L 376.5615570647972 659.9999999999997" style="fill:none;stroke:#000000;stroke-linecap:round;stroke-miterlimit:10;" id="shape_65"/></g><g id="I2"><path d="M 98.20475248157686 348.39477539062494L 51.46474269563573 348.39477539062494M 98.20475248157686 504.1333007812499L 98.20475248157686 192.65625" style="fill:none;stroke:#000000;stroke-linecap:round;stroke-miterlimit:10;" id="shape_66"/></g><g id="I39"><path d="M 323.9886387161439 465L 323.9886387161439 465M 323.9886387161439 479.99999999999994L 323.9886387161439 449.99999999999994" style="fill:none;stroke:#000000;stroke-linecap:round;stroke-miterlimit:10;" id="shape_67"/></g><g id="I42"><path d="M 132.6301387141006 192.65625L 98.20475248157686 192.65625M 132.6301387141006 250.31250000000003L 132.6301387141006 135" style="fill:none;stroke:#000000;stroke-linecap:round;stroke-miterlimit:10;" id="shape_68"/></g><g id="I18"><path d="M 1005 899.9999999999999L 373.83755867429187 899.9999999999999" style="fill:none;stroke:#aaaaaa;stroke-width:0.3;stroke-linecap:round;stroke-miterlimit:10;stroke-dasharray:5,10;" id="shape_69"/><text id="text_23" transform="matrix(1.0000,0.0000,0.0000,1.0000,1005.0000,906.60)" fill="#000000" style="font-size:20px;font-family:Arial;">4309680-submission.assembly 59 3 RUMEN 6 refined c7 extraction</text><path d="M 373.83755867429187 899.9999999999999L 373.83755867429187 899.9999999999999" style="fill:none;stroke:#000000;stroke-linecap:round;stroke-miterlimit:10;" id="shape_70"/></g><g id="I35"><path d="M 1005 569.9999999999998L 376.34809723881995 569.9999999999998" style="fill:none;stroke:#aaaaaa;stroke-width:0.3;stroke-linecap:round;stroke-miterlimit:10;stroke-dasharray:5,10;" id="shape_71"/><text id="text_24" transform="matrix(1.0000,0.0000,0.0000,1.0000,1005.0000,576.60)" fill="#000000" style="font-size:20px;font-family:Arial;">bacterium D16-50 116 refined c7 extraction</text><path d="M 376.34809723881995 569.9999999999998L 338.68464222873354 569.9999999999998" style="fill:none;stroke:#000000;stroke-linecap:round;stroke-miterlimit:10;" id="shape_72"/></g><g id="I59"><path d="M 1005 360.00000000000006L 182.36748352730834 360.00000000000006" style="fill:none;stroke:#aaaaaa;stroke-width:0.3;stroke-linecap:round;stroke-miterlimit:10;stroke-dasharray:5,10;" id="shape_73"/><text id="text_25" transform="matrix(1.0000,0.0000,0.0000,1.0000,1005.0000,366.60)" fill="#000000" style="font-size:20px;font-family:Arial;">RUG782 1 138 RUMEN 1 refined c7 extraction</text><path d="M 182.36748352730834 360.00000000000006L 182.36748352730834 360.00000000000006" style="fill:none;stroke:#000000;stroke-linecap:round;stroke-miterlimit:10;" id="shape_74"/></g><g id="I10"><path d="M 373.83755867429187 869.0624999999998L 373.83755867429187 869.0624999999998M 373.83755867429187 898.125L 373.83755867429187 839.9999999999999" style="fill:none;stroke:#000000;stroke-linecap:round;stroke-miterlimit:10;" id="shape_75"/></g><g id="I30"><path d="M 376.5615570647972 644.9999999999998L 373.83755867429187 644.9999999999998M 376.5615570647972 659.9999999999997L 376.5615570647972 629.9999999999998" style="fill:none;stroke:#000000;stroke-linecap:round;stroke-miterlimit:10;" id="shape_76"/></g><g id="I7"><path d="M 373.83755867429187 753.6328124999997L 373.83755867429187 753.6328124999997M 373.83755867429187 802.2656249999998L 373.83755867429187 704.9999999999997" style="fill:none;stroke:#000000;stroke-linecap:round;stroke-miterlimit:10;" id="shape_77"/></g><g id="I41"><path d="M 1005 479.99999999999994L 323.9886387161439 479.99999999999994" style="fill:none;stroke:#aaaaaa;stroke-width:0.3;stroke-linecap:round;stroke-miterlimit:10;stroke-dasharray:5,10;" id="shape_78"/><text id="text_26" transform="matrix(1.0000,0.0000,0.0000,1.0000,1005.0000,486.60)" fill="#000000" style="font-size:20px;font-family:Arial;">4304452-submission.assembly 11 59 RUMEN 5 refined c7 extraction</text><path d="M 323.9886387161439 479.99999999999994L 323.9886387161439 479.99999999999994" style="fill:none;stroke:#000000;stroke-linecap:round;stroke-miterlimit:10;" id="shape_79"/></g><g id="I65"><path d="M 1005 30L 1000 30" style="fill:none;stroke:#aaaaaa;stroke-width:0.3;stroke-linecap:round;stroke-miterlimit:10;stroke-dasharray:5,10;" id="shape_80"/><text id="text_27" transform="matrix(1.0000,0.0000,0.0000,1.0000,1005.0000,36.60)" fill="#000000" style="font-size:20px;font-family:Arial;">RUG783 103 3 RUMEN 96</text><path d="M 1000 30L 0 30" style="fill:none;stroke:#000000;stroke-linecap:round;stroke-miterlimit:10;" id="shape_81"/></g><g id="I13"><path d="M 373.83755867429187 952.5L 373.83755867429187 952.5M 373.83755867429187 975.0000000000001L 373.83755867429187 930" style="fill:none;stroke:#000000;stroke-linecap:round;stroke-miterlimit:10;" id="shape_82"/></g><g id="I34"><path d="M 1005 539.9999999999999L 407.2147782313017 539.9999999999999" style="fill:none;stroke:#aaaaaa;stroke-width:0.3;stroke-linecap:round;stroke-miterlimit:10;stroke-dasharray:5,10;" id="shape_83"/><text id="text_28" transform="matrix(1.0000,0.0000,0.0000,1.0000,1005.0000,546.60)" fill="#000000" style="font-size:20px;font-family:Arial;">uncultured Bacteroides sp. 133 refined c7 extraction</text><path d="M 407.2147782313017 539.9999999999999L 338.68464222873354 539.9999999999999" style="fill:none;stroke:#000000;stroke-linecap:round;stroke-miterlimit:10;" id="shape_84"/></g><g id="I24"><path d="M 1005 779.9999999999998L 377.9164351171817 779.9999999999998" style="fill:none;stroke:#aaaaaa;stroke-width:0.3;stroke-linecap:round;stroke-miterlimit:10;stroke-dasharray:5,10;" id="shape_85"/><text id="text_29" transform="matrix(1.0000,0.0000,0.0000,1.0000,1005.0000,786.60)" fill="#000000" style="font-size:20px;font-family:Arial;">Massiliomicrobiota timonensis 128 refined c7 extraction</text><path d="M 377.9164351171817 779.9999999999998L 375.9713692204147 779.9999999999998" style="fill:none;stroke:#000000;stroke-linecap:round;stroke-miterlimit:10;" id="shape_86"/></g><g id="I19"><path d="M 1005 869.9999999999999L 373.83755867429187 869.9999999999999" style="fill:none;stroke:#aaaaaa;stroke-width:0.3;stroke-linecap:round;stroke-miterlimit:10;stroke-dasharray:5,10;" id="shape_87"/><text id="text_30" transform="matrix(1.0000,0.0000,0.0000,1.0000,1005.0000,876.60)" fill="#000000" style="font-size:20px;font-family:Arial;">Christensenella massiliensis 121 refined c7 extraction</text><path d="M 373.83755867429187 869.9999999999999L 373.83755867429187 869.9999999999999" style="fill:none;stroke:#000000;stroke-linecap:round;stroke-miterlimit:10;" id="shape_88"/></g><g id="I52"><path d="M 181.77365845479412 298.125L 165.1157457186534 298.125M 181.77365845479412 326.25000000000006L 181.77365845479412 270" style="fill:none;stroke:#000000;stroke-linecap:round;stroke-miterlimit:10;" id="shape_89"/></g><g id="I45"><path d="M 1005 150L 195.4338608101838 150" style="fill:none;stroke:#aaaaaa;stroke-width:0.3;stroke-linecap:round;stroke-miterlimit:10;stroke-dasharray:5,10;" id="shape_90"/><text id="text_31" transform="matrix(1.0000,0.0000,0.0000,1.0000,1005.0000,156.60)" fill="#000000" style="font-size:20px;font-family:Arial;">Macrococcus caseolyticus 106 refined c7 extraction</text><path d="M 195.4338608101838 150L 162.91745895989413 150" style="fill:none;stroke:#000000;stroke-linecap:round;stroke-miterlimit:10;" id="shape_91"/></g><g id="I60"><path d="M 1005 390.00000000000006L 182.36748352730834 390.00000000000006" style="fill:none;stroke:#aaaaaa;stroke-width:0.3;stroke-linecap:round;stroke-miterlimit:10;stroke-dasharray:5,10;" id="shape_92"/><text id="text_32" transform="matrix(1.0000,0.0000,0.0000,1.0000,1005.0000,396.60)" fill="#000000" style="font-size:20px;font-family:Arial;">4309680-submission.assembly 52 14 RUMEN 2 refined c7 extraction</text><path d="M 182.36748352730834 390.00000000000006L 182.36748352730834 390.00000000000006" style="fill:none;stroke:#000000;stroke-linecap:round;stroke-miterlimit:10;" id="shape_93"/></g><g id="I9"><path d="M 373.83755867429187 839.5312499999998L 373.83755867429187 839.5312499999998M 373.83755867429187 869.0624999999998L 373.83755867429187 809.9999999999998" style="fill:none;stroke:#000000;stroke-linecap:round;stroke-miterlimit:10;" id="shape_94"/></g><g id="I3"><path d="M 185.24782986078756 504.1333007812499L 98.20475248157686 504.1333007812499M 185.24782986078756 565.7666015624998L 185.24782986078756 442.5" style="fill:none;stroke:#000000;stroke-linecap:round;stroke-miterlimit:10;" id="shape_95"/></g><g id="I14"><path d="M 373.83755867429187 975.0000000000001L 373.83755867429187 975.0000000000001M 373.83755867429187 990.0000000000001L 373.83755867429187 960" style="fill:none;stroke:#000000;stroke-linecap:round;stroke-miterlimit:10;" id="shape_96"/></g><g id="I38"><path d="M 1005 420L 323.9886387161439 420" style="fill:none;stroke:#aaaaaa;stroke-width:0.3;stroke-linecap:round;stroke-miterlimit:10;stroke-dasharray:5,10;" id="shape_97"/><text id="text_33" transform="matrix(1.0000,0.0000,0.0000,1.0000,1005.0000,426.60)" fill="#000000" style="font-size:20px;font-family:Arial;">2917049-submission.assembly 6 69 RUMEN 4 refined c7 extraction</text><path d="M 323.9886387161439 420L 323.9886387161439 420" style="fill:none;stroke:#000000;stroke-linecap:round;stroke-miterlimit:10;" id="shape_98"/></g><g id="I48"><path d="M 207.47400051971127 225.00000000000003L 195.6003221505644 225.00000000000003M 207.47400051971127 240L 207.47400051971127 210" style="fill:none;stroke:#000000;stroke-linecap:round;stroke-miterlimit:10;" id="shape_99"/></g></g><g id="container_5"/><g id="container_6"/><g id="container_7"><text id="text_34" transform="matrix(1.0000,0.0000,0.0000,1.0000,304.8318,633.94)" fill="#000000" text-anchor="middle" style="font-size:17px;font-family:Arial;">0.95</text><text id="text_35" transform="matrix(1.0000,0.0000,0.0000,1.0000,180.3580,214.91)" fill="#000000" text-anchor="middle" style="font-size:17px;font-family:Arial;">0.67</text><text id="text_36" transform="matrix(1.0000,0.0000,0.0000,1.0000,148.8729,262.72)" fill="#000000" text-anchor="middle" style="font-size:17px;font-family:Arial;">0.67</text><text id="text_37" transform="matrix(1.0000,0.0000,0.0000,1.0000,147.7738,147.41)" fill="#000000" text-anchor="middle" style="font-size:17px;font-family:Arial;">0.99</text><text id="text_38" transform="matrix(1.0000,0.0000,0.0000,1.0000,349.6300,700.47)" fill="#000000" text-anchor="middle" style="font-size:17px;font-family:Arial;">1</text><text id="text_39" transform="matrix(1.0000,0.0000,0.0000,1.0000,182.0706,338.66)" fill="#000000" text-anchor="middle" style="font-size:17px;font-family:Arial;">0.59</text><text id="text_40" transform="matrix(1.0000,0.0000,0.0000,1.0000,234.7444,578.17)" fill="#000000" text-anchor="middle" style="font-size:17px;font-family:Arial;">1</text><text id="text_41" transform="matrix(1.0000,0.0000,0.0000,1.0000,147.7935,87.41)" fill="#000000" text-anchor="middle" style="font-size:17px;font-family:Arial;">1</text><text id="text_42" transform="matrix(1.0000,0.0000,0.0000,1.0000,25.7324,224.10)" fill="#000000" text-anchor="middle" style="font-size:17px;font-family:Arial;">0.67</text><text id="text_43" transform="matrix(1.0000,0.0000,0.0000,1.0000,254.6182,454.91)" fill="#000000" text-anchor="middle" style="font-size:17px;font-family:Arial;">1</text><text id="text_44" transform="matrix(1.0000,0.0000,0.0000,1.0000,74.8347,360.80)" fill="#000000" text-anchor="middle" style="font-size:17px;font-family:Arial;">0.74</text><text id="text_45" transform="matrix(1.0000,0.0000,0.0000,1.0000,115.4174,205.06)" fill="#000000" text-anchor="middle" style="font-size:17px;font-family:Arial;">0.85</text><text id="text_46" transform="matrix(1.0000,0.0000,0.0000,1.0000,173.4447,310.53)" fill="#000000" text-anchor="middle" style="font-size:17px;font-family:Arial;">1</text><text id="text_47" transform="matrix(1.0000,0.0000,0.0000,1.0000,141.7263,516.54)" fill="#000000" text-anchor="middle" style="font-size:17px;font-family:Arial;">0.97</text><text id="text_48" transform="matrix(1.0000,0.0000,0.0000,1.0000,201.5372,237.41)" fill="#000000" text-anchor="middle" style="font-size:17px;font-family:Arial;">0.97</text></g><g id="container_8"/><g id="container_9"/></g><g id="container_10" transform="matrix(1.0000,0.0000,0.0000,1.0000,100.0000,100.00)"/><g id="container_11" transform="matrix(1.0000,0.0000,0.0000,1.0000,45.0000,36.00)"><path d="M 0 -3L 0 3M 0 0L 52.866687960311246 0M 52.866687960311246 -3L 52.866687960311246 3" style="fill:none;stroke:#000;stroke-width:0.5;stroke-linecap:round;stroke-miterlimit:10;" id="shape_101" transform="matrix(0.4826,0.0000,0.0000,1.0000,105.7373,8.00)"/><text id="text_49" transform="matrix(1.0000,0.0000,0.0000,1.0000,0.0000,10.22)" fill="#555" style="font-weight:bold;font-size:14px;font-family:Arial;">Tree scale: 0.1</text></g></g></svg>