<svg xmlns="http://www.w3.org/2000/svg" xmlns:xlink="http://www.w3.org/1999/xlink" width="1280" height="649" style="border: 1px solid black; overflow: hidden;"><defs/><g id="container"><g id="container_1" transform="matrix(0.4871,0.0000,0.0000,0.4871,231.8182,50.00)"><g id="container_2"/><g id="container_3"/><g id="container_4"><g id="I11"><path d="M 1005 2280.0000000000005L 1000 2280.0000000000005" style="fill:none;stroke:#aaaaaa;stroke-width:0.3;stroke-linecap:round;stroke-miterlimit:10;stroke-dasharray:5,10;" id="shape"/><text id="text" transform="matrix(1.0000,0.0000,0.0000,1.0000,1005.0000,2286.60)" fill="#000000" style="font-size:20px;font-family:Arial;">RUG117 52 14 RUMEN 10 refined c7 extraction</text><path d="M 1000 2280.0000000000005L 909.090909090909 2280.0000000000005" style="fill:none;stroke:#000000;stroke-linecap:round;stroke-miterlimit:10;" id="shape_1"/></g><g id="I135"><path d="M 1005 90L 1000 90" style="fill:none;stroke:#aaaaaa;stroke-width:0.3;stroke-linecap:round;stroke-miterlimit:10;stroke-dasharray:5,10;" id="shape_2"/><text id="text_1" transform="matrix(1.0000,0.0000,0.0000,1.0000,1005.0000,96.60)" fill="#000000" style="font-size:20px;font-family:Arial;">Paenibacillus glycanilyticus 240 refined c7 extraction</text><path d="M 1000 90L 181.8181818181818 90" style="fill:none;stroke:#000000;stroke-linecap:round;stroke-miterlimit:10;" id="shape_3"/></g><g id="I5"><path d="M 909.090909090909 2235.0000000000005L 818.1818181818181 2235.0000000000005M 909.090909090909 2429.9999999999995L 909.090909090909 2040.0000000000011" style="fill:none;stroke:#000000;stroke-linecap:round;stroke-miterlimit:10;" id="shape_4"/></g><g id="I43"><path d="M 1005 1650.0000000000018L 1000 1650.0000000000018" style="fill:none;stroke:#aaaaaa;stroke-width:0.3;stroke-linecap:round;stroke-miterlimit:10;stroke-dasharray:5,10;" id="shape_5"/><text id="text_2" transform="matrix(1.0000,0.0000,0.0000,1.0000,1005.0000,1656.60)" fill="#000000" style="font-size:20px;font-family:Arial;">Enterococcus faecalis EnGen0076 112 refined c7 extraction</text><path d="M 1000 1650.0000000000018L 909.090909090909 1650.0000000000018" style="fill:none;stroke:#000000;stroke-linecap:round;stroke-miterlimit:10;" id="shape_6"/></g><g id="I50"><path d="M 1005 1530.0000000000014L 1000 1530.0000000000014" style="fill:none;stroke:#aaaaaa;stroke-width:0.3;stroke-linecap:round;stroke-miterlimit:10;stroke-dasharray:5,10;" id="shape_7"/><text id="text_3" transform="matrix(1.0000,0.0000,0.0000,1.0000,1005.0000,1536.60)" fill="#000000" style="font-size:20px;font-family:Arial;">Macrococcus caseolyticus 106 refined c7 extraction</text><path d="M 1000 1530.0000000000014L 909.090909090909 1530.0000000000014" style="fill:none;stroke:#000000;stroke-linecap:round;stroke-miterlimit:10;" id="shape_8"/></g><g id="I33"><path d="M 909.090909090909 1335.0000000000007L 818.1818181818181 1335.0000000000007M 909.090909090909 1350.000000000001L 909.090909090909 1320.000000000001" style="fill:none;stroke:#000000;stroke-linecap:round;stroke-miterlimit:10;" id="shape_9"/></g><g id="I194"><g id="shape_10"><path d="M 909.090909090909 1230.0000000000007L 181.8181818181818 1230.0000000000007" style="fill:none;stroke:#000000;stroke-linecap:round;stroke-miterlimit:10;"/><path d="M 909.090909090909 1230.0000000000007L 969.090909090909 1260.0000000000007L 969.090909090909 1200.0000000000007L 909.090909090909 1230.0000000000007" style="fill:#000000;fill-opacity:0.5;stroke:#000000;stroke-linecap:round;stroke-miterlimit:10;"/></g></g><g id="I92"><g id="shape_11"><path d="M 909.090909090909 749.9999999999998L 181.8181818181818 749.9999999999998" style="fill:none;stroke:#000000;stroke-linecap:round;stroke-miterlimit:10;"/><path d="M 909.090909090909 749.9999999999998L 969.090909090909 779.9999999999998L 969.090909090909 719.9999999999998L 909.090909090909 749.9999999999998" style="fill:#000000;fill-opacity:0.5;stroke:#000000;stroke-linecap:round;stroke-miterlimit:10;"/></g></g><g id="I88"><path d="M 1005 30L 1000 30" style="fill:none;stroke:#aaaaaa;stroke-width:0.3;stroke-linecap:round;stroke-miterlimit:10;stroke-dasharray:5,10;" id="shape_12"/><text id="text_4" transform="matrix(1.0000,0.0000,0.0000,1.0000,1005.0000,36.60)" fill="#000000" style="font-size:20px;font-family:Arial;">Paenibacillus daejeonensis 225 refined c7 extraction</text><path d="M 1000 30L 181.8181818181818 30" style="fill:none;stroke:#000000;stroke-linecap:round;stroke-miterlimit:10;" id="shape_13"/></g><g id="I27"><path d="M 363.6363636363636 1464.3750000000011L 272.7272727272727 1464.3750000000011M 363.6363636363636 1556.2500000000014L 363.6363636363636 1372.500000000001" style="fill:none;stroke:#000000;stroke-linecap:round;stroke-miterlimit:10;" id="shape_14"/></g><g id="I174"><path d="M 1005 389.99999999999994L 1000 389.99999999999994" style="fill:none;stroke:#aaaaaa;stroke-width:0.3;stroke-linecap:round;stroke-miterlimit:10;stroke-dasharray:5,10;" id="shape_15"/><text id="text_5" transform="matrix(1.0000,0.0000,0.0000,1.0000,1005.0000,396.60)" fill="#000000" style="font-size:20px;font-family:Arial;">Paenibacillus tuaregi 194 refined c7 extraction</text><path d="M 1000 389.99999999999994L 181.8181818181818 389.99999999999994" style="fill:none;stroke:#000000;stroke-linecap:round;stroke-miterlimit:10;" id="shape_16"/></g><g id="I15"><path d="M 1005 2160.000000000001L 1000 2160.000000000001" style="fill:none;stroke:#aaaaaa;stroke-width:0.3;stroke-linecap:round;stroke-miterlimit:10;stroke-dasharray:5,10;" id="shape_17"/><text id="text_6" transform="matrix(1.0000,0.0000,0.0000,1.0000,1005.0000,2166.60)" fill="#000000" style="font-size:20px;font-family:Arial;">Coprococcus 124 refined c7 extraction</text><path d="M 1000 2160.000000000001L 909.090909090909 2160.000000000001" style="fill:none;stroke:#000000;stroke-linecap:round;stroke-miterlimit:10;" id="shape_18"/></g><g id="I21"><path d="M 1005 2010.0000000000014L 1000 2010.0000000000014" style="fill:none;stroke:#aaaaaa;stroke-width:0.3;stroke-linecap:round;stroke-miterlimit:10;stroke-dasharray:5,10;" id="shape_19"/><text id="text_7" transform="matrix(1.0000,0.0000,0.0000,1.0000,1005.0000,2016.60)" fill="#000000" style="font-size:20px;font-family:Arial;">bacterium D16-50 116 refined c7 extraction</text><path d="M 1000 2010.0000000000014L 818.1818181818181 2010.0000000000014" style="fill:none;stroke:#000000;stroke-linecap:round;stroke-miterlimit:10;" id="shape_20"/></g><g id="I25"><path d="M 1005 1890.0000000000018L 1000 1890.0000000000018" style="fill:none;stroke:#aaaaaa;stroke-width:0.3;stroke-linecap:round;stroke-miterlimit:10;stroke-dasharray:5,10;" id="shape_21"/><text id="text_8" transform="matrix(1.0000,0.0000,0.0000,1.0000,1005.0000,1896.60)" fill="#000000" style="font-size:20px;font-family:Arial;">Eubacterium sp. Marseille-P5640 115 refined c7 extraction</text><path d="M 1000 1890.0000000000018L 909.090909090909 1890.0000000000018" style="fill:none;stroke:#000000;stroke-linecap:round;stroke-miterlimit:10;" id="shape_22"/></g><g id="I23"><path d="M 909.090909090909 1890.0000000000018L 636.3636363636364 1890.0000000000018M 909.090909090909 1920.0000000000016L 909.090909090909 1860.0000000000018" style="fill:none;stroke:#000000;stroke-linecap:round;stroke-miterlimit:10;" id="shape_23"/></g><g id="I1"><path d="M 272.7272727272727 1711.8750000000016L 181.8181818181818 1711.8750000000016M 272.7272727272727 1959.3750000000018L 272.7272727272727 1464.3750000000011" style="fill:none;stroke:#000000;stroke-linecap:round;stroke-miterlimit:10;" id="shape_24"/></g><g id="I29"><path d="M 909.090909090909 1410.0000000000011L 818.1818181818181 1410.0000000000011M 909.090909090909 1440.0000000000011L 909.090909090909 1380.000000000001" style="fill:none;stroke:#000000;stroke-linecap:round;stroke-miterlimit:10;" id="shape_25"/></g><g id="I40"><path d="M 727.2727272727273 1616.2500000000016L 636.3636363636364 1616.2500000000016M 727.2727272727273 1642.5000000000018L 727.2727272727273 1590.0000000000016" style="fill:none;stroke:#000000;stroke-linecap:round;stroke-miterlimit:10;" id="shape_26"/></g><g id="I31"><path d="M 1005 1410.0000000000011L 1000 1410.0000000000011" style="fill:none;stroke:#aaaaaa;stroke-width:0.3;stroke-linecap:round;stroke-miterlimit:10;stroke-dasharray:5,10;" id="shape_27"/><text id="text_9" transform="matrix(1.0000,0.0000,0.0000,1.0000,1005.0000,1416.60)" fill="#000000" style="font-size:20px;font-family:Arial;">RUG084 1 22 RUMEN 14 refined c7 extraction</text><path d="M 1000 1410.0000000000011L 909.090909090909 1410.0000000000011" style="fill:none;stroke:#000000;stroke-linecap:round;stroke-miterlimit:10;" id="shape_28"/></g><g id="I36"><path d="M 454.5454545454545 1556.2500000000014L 363.6363636363636 1556.2500000000014M 454.5454545454545 1642.5000000000016L 454.5454545454545 1470.0000000000011" style="fill:none;stroke:#000000;stroke-linecap:round;stroke-miterlimit:10;" id="shape_29"/></g><g id="I53"><path d="M 1005 1740.000000000002L 1000 1740.000000000002" style="fill:none;stroke:#aaaaaa;stroke-width:0.3;stroke-linecap:round;stroke-miterlimit:10;stroke-dasharray:5,10;" id="shape_30"/><text id="text_10" transform="matrix(1.0000,0.0000,0.0000,1.0000,1005.0000,1746.60)" fill="#000000" style="font-size:20px;font-family:Arial;">Bacteroides sp. HMSC067B03 102 refined c7 extraction</text><path d="M 1000 1740.000000000002L 909.090909090909 1740.000000000002" style="fill:none;stroke:#000000;stroke-linecap:round;stroke-miterlimit:10;" id="shape_31"/></g><g id="I183"><path d="M 1005 479.99999999999994L 1000 479.99999999999994" style="fill:none;stroke:#aaaaaa;stroke-width:0.3;stroke-linecap:round;stroke-miterlimit:10;stroke-dasharray:5,10;" id="shape_32"/><text id="text_11" transform="matrix(1.0000,0.0000,0.0000,1.0000,1005.0000,486.60)" fill="#000000" style="font-size:20px;font-family:Arial;">Paenibacillus sp. FSL H7-0331 195 refined c7 extraction</text><path d="M 1000 479.99999999999994L 181.8181818181818 479.99999999999994" style="fill:none;stroke:#000000;stroke-linecap:round;stroke-miterlimit:10;" id="shape_33"/></g><g id="I49"><path d="M 1005 1500.0000000000014L 1000 1500.0000000000014" style="fill:none;stroke:#aaaaaa;stroke-width:0.3;stroke-linecap:round;stroke-miterlimit:10;stroke-dasharray:5,10;" id="shape_34"/><text id="text_12" transform="matrix(1.0000,0.0000,0.0000,1.0000,1005.0000,1506.60)" fill="#000000" style="font-size:20px;font-family:Arial;">Alkaliphilus oremlandii 113 refined c7 extraction</text><path d="M 1000 1500.0000000000014L 909.090909090909 1500.0000000000014" style="fill:none;stroke:#000000;stroke-linecap:round;stroke-miterlimit:10;" id="shape_35"/></g><g id="I0"><path d="M 181.8181818181818 855.9375000000008L 90.9090909090909 855.9375000000008M 181.8181818181818 1711.8750000000016L 181.8181818181818 0" style="fill:none;stroke:#000000;stroke-linecap:round;stroke-miterlimit:10;" id="shape_36"/></g><g id="I8"><path d="M 1005 2370L 1000 2370" style="fill:none;stroke:#aaaaaa;stroke-width:0.3;stroke-linecap:round;stroke-miterlimit:10;stroke-dasharray:5,10;" id="shape_37"/><text id="text_13" transform="matrix(1.0000,0.0000,0.0000,1.0000,1005.0000,2376.60)" fill="#000000" style="font-size:20px;font-family:Arial;">3964017-submission.assembly 7 86 RUMEN 7 refined c7 extraction</text><path d="M 1000 2370L 909.090909090909 2370" style="fill:none;stroke:#000000;stroke-linecap:round;stroke-miterlimit:10;" id="shape_38"/></g><g id="I42"><path d="M 909.090909090909 1665.0000000000018L 818.1818181818181 1665.0000000000018M 909.090909090909 1680.0000000000018L 909.090909090909 1650.0000000000018" style="fill:none;stroke:#000000;stroke-linecap:round;stroke-miterlimit:10;" id="shape_39"/></g><g id="I18"><path d="M 1005 2070.000000000001L 1000 2070.000000000001" style="fill:none;stroke:#aaaaaa;stroke-width:0.3;stroke-linecap:round;stroke-miterlimit:10;stroke-dasharray:5,10;" id="shape_40"/><text id="text_14" transform="matrix(1.0000,0.0000,0.0000,1.0000,1005.0000,2076.60)" fill="#000000" style="font-size:20px;font-family:Arial;">Lactobacillus reuteri 119 refined c7 extraction</text><path d="M 1000 2070.000000000001L 909.090909090909 2070.000000000001" style="fill:none;stroke:#000000;stroke-linecap:round;stroke-miterlimit:10;" id="shape_41"/></g><g id="I180"><g id="shape_42"><path d="M 909.090909090909 1110.0000000000002L 181.8181818181818 1110.0000000000002" style="fill:none;stroke:#000000;stroke-linecap:round;stroke-miterlimit:10;"/><path d="M 909.090909090909 1110.0000000000002L 969.090909090909 1140.0000000000002L 969.090909090909 1080.0000000000002L 909.090909090909 1110.0000000000002" style="fill:#000000;fill-opacity:0.5;stroke:#000000;stroke-linecap:round;stroke-miterlimit:10;"/></g></g><g id="I7"><path d="M 1005 2400L 1000 2400" style="fill:none;stroke:#aaaaaa;stroke-width:0.3;stroke-linecap:round;stroke-miterlimit:10;stroke-dasharray:5,10;" id="shape_43"/><text id="text_15" transform="matrix(1.0000,0.0000,0.0000,1.0000,1005.0000,2406.60)" fill="#000000" style="font-size:20px;font-family:Arial;">3394949-submission.assembly 17 40 RUMEN 9 refined c7 extraction</text><path d="M 1000 2400L 909.090909090909 2400" style="fill:none;stroke:#000000;stroke-linecap:round;stroke-miterlimit:10;" id="shape_44"/></g><g id="I131"><path d="M 1005 60L 1000 60" style="fill:none;stroke:#aaaaaa;stroke-width:0.3;stroke-linecap:round;stroke-miterlimit:10;stroke-dasharray:5,10;" id="shape_45"/><text id="text_16" transform="matrix(1.0000,0.0000,0.0000,1.0000,1005.0000,66.60)" fill="#000000" style="font-size:20px;font-family:Arial;">Paenibacillus senegalensis 196 refined c7 extraction</text><path d="M 1000 60L 181.8181818181818 60" style="fill:none;stroke:#000000;stroke-linecap:round;stroke-miterlimit:10;" id="shape_46"/></g><g id="I176"><g id="shape_47"><path d="M 909.090909090909 1050L 181.8181818181818 1050" style="fill:none;stroke:#000000;stroke-linecap:round;stroke-miterlimit:10;"/><path d="M 909.090909090909 1050L 969.090909090909 1080L 969.090909090909 1020L 909.090909090909 1050" style="fill:#000000;fill-opacity:0.5;stroke:#000000;stroke-linecap:round;stroke-miterlimit:10;"/></g></g><g id="I13"><path d="M 1005 2220.0000000000005L 1000 2220.0000000000005" style="fill:none;stroke:#aaaaaa;stroke-width:0.3;stroke-linecap:round;stroke-miterlimit:10;stroke-dasharray:5,10;" id="shape_48"/><text id="text_17" transform="matrix(1.0000,0.0000,0.0000,1.0000,1005.0000,2226.60)" fill="#000000" style="font-size:20px;font-family:Arial;">Massiliomicrobiota timonensis 128 refined c7 extraction</text><path d="M 1000 2220.0000000000005L 909.090909090909 2220.0000000000005" style="fill:none;stroke:#000000;stroke-linecap:round;stroke-miterlimit:10;" id="shape_49"/></g><g id="I34"><path d="M 1005 1320.000000000001L 1000 1320.000000000001" style="fill:none;stroke:#aaaaaa;stroke-width:0.3;stroke-linecap:round;stroke-miterlimit:10;stroke-dasharray:5,10;" id="shape_50"/><text id="text_18" transform="matrix(1.0000,0.0000,0.0000,1.0000,1005.0000,1326.60)" fill="#000000" style="font-size:20px;font-family:Arial;">4304098-submission.assembly 1 297 RUMEN 11 refined c7 extraction</text><path d="M 1000 1320.000000000001L 909.090909090909 1320.000000000001" style="fill:none;stroke:#000000;stroke-linecap:round;stroke-miterlimit:10;" id="shape_51"/></g><g id="I184"><path d="M 1005 509.9999999999999L 1000 509.9999999999999" style="fill:none;stroke:#aaaaaa;stroke-width:0.3;stroke-linecap:round;stroke-miterlimit:10;stroke-dasharray:5,10;" id="shape_52"/><text id="text_19" transform="matrix(1.0000,0.0000,0.0000,1.0000,1005.0000,516.60)" fill="#000000" style="font-size:20px;font-family:Arial;">Paenibacillus mucilaginosus KNP414 231 refined c7 extraction</text><path d="M 1000 509.9999999999999L 181.8181818181818 509.9999999999999" style="fill:none;stroke:#000000;stroke-linecap:round;stroke-miterlimit:10;" id="shape_53"/></g><g id="I19"><path d="M 1005 2040.0000000000011L 1000 2040.0000000000011" style="fill:none;stroke:#aaaaaa;stroke-width:0.3;stroke-linecap:round;stroke-miterlimit:10;stroke-dasharray:5,10;" id="shape_54"/><text id="text_20" transform="matrix(1.0000,0.0000,0.0000,1.0000,1005.0000,2046.60)" fill="#000000" style="font-size:20px;font-family:Arial;">Lachnoclostridium sp. An169 122 refined c7 extraction</text><path d="M 1000 2040.0000000000011L 909.090909090909 2040.0000000000011" style="fill:none;stroke:#000000;stroke-linecap:round;stroke-miterlimit:10;" id="shape_55"/></g><g id="I24"><path d="M 1005 1860.0000000000018L 1000 1860.0000000000018" style="fill:none;stroke:#aaaaaa;stroke-width:0.3;stroke-linecap:round;stroke-miterlimit:10;stroke-dasharray:5,10;" id="shape_56"/><text id="text_21" transform="matrix(1.0000,0.0000,0.0000,1.0000,1005.0000,1866.60)" fill="#000000" style="font-size:20px;font-family:Arial;">2917049-submission.assembly 6 69 RUMEN 4 refined c7 extraction</text><path d="M 1000 1860.0000000000018L 909.090909090909 1860.0000000000018" style="fill:none;stroke:#000000;stroke-linecap:round;stroke-miterlimit:10;" id="shape_57"/></g><g id="I153"><path d="M 1005 240L 1000 240" style="fill:none;stroke:#aaaaaa;stroke-width:0.3;stroke-linecap:round;stroke-miterlimit:10;stroke-dasharray:5,10;" id="shape_58"/><text id="text_22" transform="matrix(1.0000,0.0000,0.0000,1.0000,1005.0000,246.60)" fill="#000000" style="font-size:20px;font-family:Arial;">Laceyella sediminis 162 refined c7 extraction</text><path d="M 1000 240L 181.8181818181818 240" style="fill:none;stroke:#000000;stroke-linecap:round;stroke-miterlimit:10;" id="shape_59"/></g><g id="I172"><path d="M 1005 329.99999999999994L 1000 329.99999999999994" style="fill:none;stroke:#aaaaaa;stroke-width:0.3;stroke-linecap:round;stroke-miterlimit:10;stroke-dasharray:5,10;" id="shape_60"/><text id="text_23" transform="matrix(1.0000,0.0000,0.0000,1.0000,1005.0000,336.60)" fill="#000000" style="font-size:20px;font-family:Arial;">Paenibacillus contaminans 237 refined c7 extraction</text><path d="M 1000 329.99999999999994L 181.8181818181818 329.99999999999994" style="fill:none;stroke:#000000;stroke-linecap:round;stroke-miterlimit:10;" id="shape_61"/></g><g id="I159"><path d="M 1005 270L 1000 270" style="fill:none;stroke:#aaaaaa;stroke-width:0.3;stroke-linecap:round;stroke-miterlimit:10;stroke-dasharray:5,10;" id="shape_62"/><text id="text_24" transform="matrix(1.0000,0.0000,0.0000,1.0000,1005.0000,276.60)" fill="#000000" style="font-size:20px;font-family:Arial;">Paenibacillus sp. N2SHLJ1 238 refined c7 extraction</text><path d="M 1000 270L 181.8181818181818 270" style="fill:none;stroke:#000000;stroke-linecap:round;stroke-miterlimit:10;" id="shape_63"/></g><g id="I3"><path d="M 727.2727272727273 2028.7500000000014L 636.3636363636364 2028.7500000000014M 727.2727272727273 2107.500000000001L 727.2727272727273 1950.0000000000016" style="fill:none;stroke:#000000;stroke-linecap:round;stroke-miterlimit:10;" id="shape_64"/></g><g id="I151"><path d="M 1005 180.00000000000003L 1000 180.00000000000003" style="fill:none;stroke:#aaaaaa;stroke-width:0.3;stroke-linecap:round;stroke-miterlimit:10;stroke-dasharray:5,10;" id="shape_65"/><text id="text_25" transform="matrix(1.0000,0.0000,0.0000,1.0000,1005.0000,186.60)" fill="#000000" style="font-size:20px;font-family:Arial;">Bacillus halosaccharovorans 188 refined c7 extraction</text><path d="M 1000 180.00000000000003L 181.8181818181818 180.00000000000003" style="fill:none;stroke:#000000;stroke-linecap:round;stroke-miterlimit:10;" id="shape_66"/></g><g id="I138"><g id="shape_67"><path d="M 909.090909090909 869.9999999999997L 181.8181818181818 869.9999999999997" style="fill:none;stroke:#000000;stroke-linecap:round;stroke-miterlimit:10;"/><path d="M 909.090909090909 869.9999999999997L 969.090909090909 899.9999999999997L 969.090909090909 839.9999999999997L 909.090909090909 869.9999999999997" style="fill:#000000;fill-opacity:0.5;stroke:#000000;stroke-linecap:round;stroke-miterlimit:10;"/></g></g><g id="I38"><path d="M 545.4545454545454 1642.5000000000016L 454.5454545454545 1642.5000000000016M 545.4545454545454 1770.0000000000018L 545.4545454545454 1515.0000000000014" style="fill:none;stroke:#000000;stroke-linecap:round;stroke-miterlimit:10;" id="shape_68"/></g><g id="I161"><g id="shape_69"><path d="M 909.090909090909 989.9999999999999L 181.8181818181818 989.9999999999999" style="fill:none;stroke:#000000;stroke-linecap:round;stroke-miterlimit:10;"/><path d="M 909.090909090909 989.9999999999999L 969.090909090909 1019.9999999999999L 969.090909090909 959.9999999999999L 909.090909090909 989.9999999999999" style="fill:#000000;fill-opacity:0.5;stroke:#000000;stroke-linecap:round;stroke-miterlimit:10;"/></g></g><g id="I152"><path d="M 1005 210.00000000000003L 1000 210.00000000000003" style="fill:none;stroke:#aaaaaa;stroke-width:0.3;stroke-linecap:round;stroke-miterlimit:10;stroke-dasharray:5,10;" id="shape_70"/><text id="text_26" transform="matrix(1.0000,0.0000,0.0000,1.0000,1005.0000,216.60)" fill="#000000" style="font-size:20px;font-family:Arial;">Seinonella peptonophila 171 refined c7 extraction</text><path d="M 1000 210.00000000000003L 181.8181818181818 210.00000000000003" style="fill:none;stroke:#000000;stroke-linecap:round;stroke-miterlimit:10;" id="shape_71"/></g><g id="I12"><path d="M 1005 2250.0000000000005L 1000 2250.0000000000005" style="fill:none;stroke:#aaaaaa;stroke-width:0.3;stroke-linecap:round;stroke-miterlimit:10;stroke-dasharray:5,10;" id="shape_72"/><text id="text_27" transform="matrix(1.0000,0.0000,0.0000,1.0000,1005.0000,2256.60)" fill="#000000" style="font-size:20px;font-family:Arial;">Blautia 118 refined c7 extraction</text><path d="M 1000 2250.0000000000005L 909.090909090909 2250.0000000000005" style="fill:none;stroke:#000000;stroke-linecap:round;stroke-miterlimit:10;" id="shape_73"/></g><g id="I160"><path d="M 1005 300L 1000 300" style="fill:none;stroke:#aaaaaa;stroke-width:0.3;stroke-linecap:round;stroke-miterlimit:10;stroke-dasharray:5,10;" id="shape_74"/><text id="text_28" transform="matrix(1.0000,0.0000,0.0000,1.0000,1005.0000,306.60)" fill="#000000" style="font-size:20px;font-family:Arial;">Bacillus sp. 7586-K 161 refined c7 extraction</text><path d="M 1000 300L 181.8181818181818 300" style="fill:none;stroke:#000000;stroke-linecap:round;stroke-miterlimit:10;" id="shape_75"/></g><g id="I51"><path d="M 909.090909090909 1770.0000000000018L 545.4545454545454 1770.0000000000018M 909.090909090909 1830.000000000002L 909.090909090909 1710.0000000000018" style="fill:none;stroke:#000000;stroke-linecap:round;stroke-miterlimit:10;" id="shape_76"/></g><g id="I22"><path d="M 1005 1950.0000000000016L 1000 1950.0000000000016" style="fill:none;stroke:#aaaaaa;stroke-width:0.3;stroke-linecap:round;stroke-miterlimit:10;stroke-dasharray:5,10;" id="shape_77"/><text id="text_29" transform="matrix(1.0000,0.0000,0.0000,1.0000,1005.0000,1956.60)" fill="#000000" style="font-size:20px;font-family:Arial;">bacterium 0.1xD8-82 132 refined c7 extraction</text><path d="M 1000 1950.0000000000016L 727.2727272727273 1950.0000000000016" style="fill:none;stroke:#000000;stroke-linecap:round;stroke-miterlimit:10;" id="shape_78"/></g><g id="I46"><path d="M 1005 1590.0000000000016L 1000 1590.0000000000016" style="fill:none;stroke:#aaaaaa;stroke-width:0.3;stroke-linecap:round;stroke-miterlimit:10;stroke-dasharray:5,10;" id="shape_79"/><text id="text_30" transform="matrix(1.0000,0.0000,0.0000,1.0000,1005.0000,1596.60)" fill="#000000" style="font-size:20px;font-family:Arial;">Hungateiclostridium clariflavum 107 refined c7 extraction</text><path d="M 1000 1590.0000000000016L 727.2727272727273 1590.0000000000016" style="fill:none;stroke:#000000;stroke-linecap:round;stroke-miterlimit:10;" id="shape_80"/></g><g id="I47"><path d="M 1005 1560.0000000000016L 1000 1560.0000000000016" style="fill:none;stroke:#aaaaaa;stroke-width:0.3;stroke-linecap:round;stroke-miterlimit:10;stroke-dasharray:5,10;" id="shape_81"/><text id="text_31" transform="matrix(1.0000,0.0000,0.0000,1.0000,1005.0000,1566.60)" fill="#000000" style="font-size:20px;font-family:Arial;">Erysipelotrichaceae bacterium MTC7 111 refined c7 extraction</text><path d="M 1000 1560.0000000000016L 636.3636363636364 1560.0000000000016" style="fill:none;stroke:#000000;stroke-linecap:round;stroke-miterlimit:10;" id="shape_82"/></g><g id="I6"><path d="M 1005 2429.9999999999995L 1000 2429.9999999999995" style="fill:none;stroke:#aaaaaa;stroke-width:0.3;stroke-linecap:round;stroke-miterlimit:10;stroke-dasharray:5,10;" id="shape_83"/><text id="text_32" transform="matrix(1.0000,0.0000,0.0000,1.0000,1005.0000,2436.60)" fill="#000000" style="font-size:20px;font-family:Arial;">Christensenella massiliensis 121 refined c7 extraction</text><path d="M 1000 2429.9999999999995L 909.090909090909 2429.9999999999995" style="fill:none;stroke:#000000;stroke-linecap:round;stroke-miterlimit:10;" id="shape_84"/></g><g id="I20"><path d="M 1005 1980.0000000000014L 1000 1980.0000000000014" style="fill:none;stroke:#aaaaaa;stroke-width:0.3;stroke-linecap:round;stroke-miterlimit:10;stroke-dasharray:5,10;" id="shape_85"/><text id="text_33" transform="matrix(1.0000,0.0000,0.0000,1.0000,1005.0000,1986.60)" fill="#000000" style="font-size:20px;font-family:Arial;">uncultured Bacteroides sp. 133 refined c7 extraction</text><path d="M 1000 1980.0000000000014L 818.1818181818181 1980.0000000000014" style="fill:none;stroke:#000000;stroke-linecap:round;stroke-miterlimit:10;" id="shape_86"/></g><g id="I26"><path d="M 1005 1920.0000000000016L 1000 1920.0000000000016" style="fill:none;stroke:#aaaaaa;stroke-width:0.3;stroke-linecap:round;stroke-miterlimit:10;stroke-dasharray:5,10;" id="shape_87"/><text id="text_34" transform="matrix(1.0000,0.0000,0.0000,1.0000,1005.0000,1926.60)" fill="#000000" style="font-size:20px;font-family:Arial;">4304452-submission.assembly 11 59 RUMEN 5 refined c7 extraction</text><path d="M 1000 1920.0000000000016L 909.090909090909 1920.0000000000016" style="fill:none;stroke:#000000;stroke-linecap:round;stroke-miterlimit:10;" id="shape_88"/></g><g id="I44"><path d="M 1005 1680.0000000000018L 1000 1680.0000000000018" style="fill:none;stroke:#aaaaaa;stroke-width:0.3;stroke-linecap:round;stroke-miterlimit:10;stroke-dasharray:5,10;" id="shape_89"/><text id="text_35" transform="matrix(1.0000,0.0000,0.0000,1.0000,1005.0000,1686.60)" fill="#000000" style="font-size:20px;font-family:Arial;">Enterococcus faecium EnGen0149 108 refined c7 extraction</text><path d="M 1000 1680.0000000000018L 909.090909090909 1680.0000000000018" style="fill:none;stroke:#000000;stroke-linecap:round;stroke-miterlimit:10;" id="shape_90"/></g><g id="I56"><path d="M 1005 1830.000000000002L 1000 1830.000000000002" style="fill:none;stroke:#aaaaaa;stroke-width:0.3;stroke-linecap:round;stroke-miterlimit:10;stroke-dasharray:5,10;" id="shape_91"/><text id="text_36" transform="matrix(1.0000,0.0000,0.0000,1.0000,1005.0000,1836.60)" fill="#000000" style="font-size:20px;font-family:Arial;">4309689-submission.assembly 79 12 RUMEN 3 refined c7 extraction</text><path d="M 1000 1830.000000000002L 909.090909090909 1830.000000000002" style="fill:none;stroke:#000000;stroke-linecap:round;stroke-miterlimit:10;" id="shape_92"/></g><g id="I28"><path d="M 818.1818181818181 1372.500000000001L 363.6363636363636 1372.500000000001M 818.1818181818181 1410.0000000000011L 818.1818181818181 1335.0000000000007" style="fill:none;stroke:#000000;stroke-linecap:round;stroke-miterlimit:10;" id="shape_93"/></g><g id="I54"><path d="M 1005 1770.000000000002L 1000 1770.000000000002" style="fill:none;stroke:#aaaaaa;stroke-width:0.3;stroke-linecap:round;stroke-miterlimit:10;stroke-dasharray:5,10;" id="shape_94"/><text id="text_37" transform="matrix(1.0000,0.0000,0.0000,1.0000,1005.0000,1776.60)" fill="#000000" style="font-size:20px;font-family:Arial;">4309680-submission.assembly 52 14 RUMEN 2 refined c7 extraction</text><path d="M 1000 1770.000000000002L 909.090909090909 1770.000000000002" style="fill:none;stroke:#000000;stroke-linecap:round;stroke-miterlimit:10;" id="shape_95"/></g><g id="I4"><path d="M 818.1818181818181 2107.500000000001L 727.2727272727273 2107.500000000001M 818.1818181818181 2235.0000000000005L 818.1818181818181 1980.0000000000014" style="fill:none;stroke:#000000;stroke-linecap:round;stroke-miterlimit:10;" id="shape_96"/></g><g id="I136"><path d="M 1005 120L 1000 120" style="fill:none;stroke:#aaaaaa;stroke-width:0.3;stroke-linecap:round;stroke-miterlimit:10;stroke-dasharray:5,10;" id="shape_97"/><text id="text_38" transform="matrix(1.0000,0.0000,0.0000,1.0000,1005.0000,126.60)" fill="#000000" style="font-size:20px;font-family:Arial;">Paenibacillus ginsengarvi 221 refined c7 extraction</text><path d="M 1000 120L 181.8181818181818 120" style="fill:none;stroke:#000000;stroke-linecap:round;stroke-miterlimit:10;" id="shape_98"/></g><g id="I173"><path d="M 1005 359.99999999999994L 1000 359.99999999999994" style="fill:none;stroke:#aaaaaa;stroke-width:0.3;stroke-linecap:round;stroke-miterlimit:10;stroke-dasharray:5,10;" id="shape_99"/><text id="text_39" transform="matrix(1.0000,0.0000,0.0000,1.0000,1005.0000,366.60)" fill="#000000" style="font-size:20px;font-family:Arial;">Paenibacillus sp. cl123 213 refined c7 extraction</text><path d="M 1000 359.99999999999994L 181.8181818181818 359.99999999999994" style="fill:none;stroke:#000000;stroke-linecap:round;stroke-miterlimit:10;" id="shape_100"/></g><g id="I89"><g id="shape_101"><path d="M 909.090909090909 689.9999999999998L 181.8181818181818 689.9999999999998" style="fill:none;stroke:#000000;stroke-linecap:round;stroke-miterlimit:10;"/><path d="M 909.090909090909 689.9999999999998L 969.090909090909 719.9999999999998L 969.090909090909 659.9999999999998L 909.090909090909 689.9999999999998" style="fill:#000000;fill-opacity:0.5;stroke:#000000;stroke-linecap:round;stroke-miterlimit:10;"/></g></g><g id="I37"><path d="M 1005 1470.0000000000011L 1000 1470.0000000000011" style="fill:none;stroke:#aaaaaa;stroke-width:0.3;stroke-linecap:round;stroke-miterlimit:10;stroke-dasharray:5,10;" id="shape_102"/><text id="text_40" transform="matrix(1.0000,0.0000,0.0000,1.0000,1005.0000,1476.60)" fill="#000000" style="font-size:20px;font-family:Arial;">Salinicoccus sediminis 134 refined c7 extraction</text><path d="M 1000 1470.0000000000011L 454.5454545454545 1470.0000000000011" style="fill:none;stroke:#000000;stroke-linecap:round;stroke-miterlimit:10;" id="shape_103"/></g><g id="I57"><g id="shape_104"><path d="M 909.090909090909 569.9999999999999L 181.8181818181818 569.9999999999999" style="fill:none;stroke:#000000;stroke-linecap:round;stroke-miterlimit:10;"/><path d="M 909.090909090909 569.9999999999999L 969.090909090909 599.9999999999999L 969.090909090909 539.9999999999999L 909.090909090909 569.9999999999999" style="fill:#000000;fill-opacity:0.5;stroke:#000000;stroke-linecap:round;stroke-miterlimit:10;"/></g></g><g id="I17"><path d="M 1005 2100.000000000001L 1000 2100.000000000001" style="fill:none;stroke:#aaaaaa;stroke-width:0.3;stroke-linecap:round;stroke-miterlimit:10;stroke-dasharray:5,10;" id="shape_105"/><text id="text_41" transform="matrix(1.0000,0.0000,0.0000,1.0000,1005.0000,2106.60)" fill="#000000" style="font-size:20px;font-family:Arial;">Enterococcus faecalis D32 123 refined c7 extraction</text><path d="M 1000 2100.000000000001L 909.090909090909 2100.000000000001" style="fill:none;stroke:#000000;stroke-linecap:round;stroke-miterlimit:10;" id="shape_106"/></g><g id="I55"><path d="M 1005 1800.000000000002L 1000 1800.000000000002" style="fill:none;stroke:#aaaaaa;stroke-width:0.3;stroke-linecap:round;stroke-miterlimit:10;stroke-dasharray:5,10;" id="shape_107"/><text id="text_42" transform="matrix(1.0000,0.0000,0.0000,1.0000,1005.0000,1806.60)" fill="#000000" style="font-size:20px;font-family:Arial;">RUG782 1 138 RUMEN 1 refined c7 extraction</text><path d="M 1000 1800.000000000002L 909.090909090909 1800.000000000002" style="fill:none;stroke:#000000;stroke-linecap:round;stroke-miterlimit:10;" id="shape_108"/></g><g id="I16"><path d="M 1005 2130.000000000001L 1000 2130.000000000001" style="fill:none;stroke:#aaaaaa;stroke-width:0.3;stroke-linecap:round;stroke-miterlimit:10;stroke-dasharray:5,10;" id="shape_109"/><text id="text_43" transform="matrix(1.0000,0.0000,0.0000,1.0000,1005.0000,2136.60)" fill="#000000" style="font-size:20px;font-family:Arial;">Intestinimonas butyriciproducens 125 refined c7 extraction</text><path d="M 1000 2130.000000000001L 909.090909090909 2130.000000000001" style="fill:none;stroke:#000000;stroke-linecap:round;stroke-miterlimit:10;" id="shape_110"/></g><g id="I32"><path d="M 1005 1440.0000000000011L 1000 1440.0000000000011" style="fill:none;stroke:#aaaaaa;stroke-width:0.3;stroke-linecap:round;stroke-miterlimit:10;stroke-dasharray:5,10;" id="shape_111"/><text id="text_44" transform="matrix(1.0000,0.0000,0.0000,1.0000,1005.0000,1446.60)" fill="#000000" style="font-size:20px;font-family:Arial;">RMG 330 81 6 RUMEN 13 refined c7 extraction</text><path d="M 1000 1440.0000000000011L 909.090909090909 1440.0000000000011" style="fill:none;stroke:#000000;stroke-linecap:round;stroke-miterlimit:10;" id="shape_112"/></g><g id="I2"><path d="M 636.3636363636364 1959.3750000000018L 272.7272727272727 1959.3750000000018M 636.3636363636364 2028.7500000000014L 636.3636363636364 1890.0000000000018" style="fill:none;stroke:#000000;stroke-linecap:round;stroke-miterlimit:10;" id="shape_113"/></g><g id="I39"><path d="M 636.3636363636364 1588.1250000000014L 545.4545454545454 1588.1250000000014M 636.3636363636364 1616.2500000000016L 636.3636363636364 1560.0000000000016" style="fill:none;stroke:#000000;stroke-linecap:round;stroke-miterlimit:10;" id="shape_114"/></g><g id="I35"><path d="M 1005 1350.000000000001L 1000 1350.000000000001" style="fill:none;stroke:#aaaaaa;stroke-width:0.3;stroke-linecap:round;stroke-miterlimit:10;stroke-dasharray:5,10;" id="shape_115"/><text id="text_45" transform="matrix(1.0000,0.0000,0.0000,1.0000,1005.0000,1356.60)" fill="#000000" style="font-size:20px;font-family:Arial;">Lachnospiraceae bacterium TF09-5 137 refined c7 extraction</text><path d="M 1000 1350.000000000001L 909.090909090909 1350.000000000001" style="fill:none;stroke:#000000;stroke-linecap:round;stroke-miterlimit:10;" id="shape_116"/></g><g id="I175"><path d="M 1005 419.9999999999999L 1000 419.9999999999999" style="fill:none;stroke:#aaaaaa;stroke-width:0.3;stroke-linecap:round;stroke-miterlimit:10;stroke-dasharray:5,10;" id="shape_117"/><text id="text_46" transform="matrix(1.0000,0.0000,0.0000,1.0000,1005.0000,426.60)" fill="#000000" style="font-size:20px;font-family:Arial;">Paenibacillus harenae 202 refined c7 extraction</text><path d="M 1000 419.9999999999999L 181.8181818181818 419.9999999999999" style="fill:none;stroke:#000000;stroke-linecap:round;stroke-miterlimit:10;" id="shape_118"/></g><g id="I10"><path d="M 1005 2310L 1000 2310" style="fill:none;stroke:#aaaaaa;stroke-width:0.3;stroke-linecap:round;stroke-miterlimit:10;stroke-dasharray:5,10;" id="shape_119"/><text id="text_47" transform="matrix(1.0000,0.0000,0.0000,1.0000,1005.0000,2316.60)" fill="#000000" style="font-size:20px;font-family:Arial;">4309680-submission.assembly 59 3 RUMEN 6 refined c7 extraction</text><path d="M 1000 2310L 909.090909090909 2310" style="fill:none;stroke:#000000;stroke-linecap:round;stroke-miterlimit:10;" id="shape_120"/></g><g id="I30"><path d="M 1005 1380.000000000001L 1000 1380.000000000001" style="fill:none;stroke:#aaaaaa;stroke-width:0.3;stroke-linecap:round;stroke-miterlimit:10;stroke-dasharray:5,10;" id="shape_121"/><text id="text_48" transform="matrix(1.0000,0.0000,0.0000,1.0000,1005.0000,1386.60)" fill="#000000" style="font-size:20px;font-family:Arial;">hRUG880 98 9 RUMEN 12 refined c7 extraction</text><path d="M 1000 1380.000000000001L 909.090909090909 1380.000000000001" style="fill:none;stroke:#000000;stroke-linecap:round;stroke-miterlimit:10;" id="shape_122"/></g><g id="I87"><path d="M 1005 0L 1000 0" style="fill:none;stroke:#aaaaaa;stroke-width:0.3;stroke-linecap:round;stroke-miterlimit:10;stroke-dasharray:5,10;" id="shape_123"/><text id="text_49" transform="matrix(1.0000,0.0000,0.0000,1.0000,1005.0000,6.60)" fill="#000000" style="font-size:20px;font-family:Arial;">Alkanindiges illinoisensis 270 refined c7 extraction</text><path d="M 1000 0L 181.8181818181818 0" style="fill:none;stroke:#000000;stroke-linecap:round;stroke-miterlimit:10;" id="shape_124"/></g><g id="I132"><g id="shape_125"><path d="M 909.090909090909 809.9999999999998L 181.8181818181818 809.9999999999998" style="fill:none;stroke:#000000;stroke-linecap:round;stroke-miterlimit:10;"/><path d="M 909.090909090909 809.9999999999998L 969.090909090909 839.9999999999998L 969.090909090909 779.9999999999998L 909.090909090909 809.9999999999998" style="fill:#000000;fill-opacity:0.5;stroke:#000000;stroke-linecap:round;stroke-miterlimit:10;"/></g></g><g id="I137"><path d="M 1005 150L 1000 150" style="fill:none;stroke:#aaaaaa;stroke-width:0.3;stroke-linecap:round;stroke-miterlimit:10;stroke-dasharray:5,10;" id="shape_126"/><text id="text_50" transform="matrix(1.0000,0.0000,0.0000,1.0000,1005.0000,156.60)" fill="#000000" style="font-size:20px;font-family:Arial;">Paenibacillus ginsengihumi 223 refined c7 extraction</text><path d="M 1000 150L 181.8181818181818 150" style="fill:none;stroke:#000000;stroke-linecap:round;stroke-miterlimit:10;" id="shape_127"/></g><g id="I41"><path d="M 818.1818181818181 1642.5000000000018L 727.2727272727273 1642.5000000000018M 818.1818181818181 1665.0000000000018L 818.1818181818181 1620.0000000000016" style="fill:none;stroke:#000000;stroke-linecap:round;stroke-miterlimit:10;" id="shape_128"/></g><g id="I154"><path d="M 1005 929.9999999999998L 909.090909090909 929.9999999999998" style="fill:none;stroke:#aaaaaa;stroke-width:0.3;stroke-linecap:round;stroke-miterlimit:10;stroke-dasharray:5,10;" id="shape_129"/><text id="text_51" transform="matrix(1.0000,0.0000,0.0000,1.0000,1005.0000,939.90)" fill="#000000" style="font-size:30px;font-family:Arial;">0.9900Fontibacillus phaseoli 250 refined c7 extraction</text><g id="shape_130"><path d="M 909.090909090909 929.9999999999998L 181.8181818181818 929.9999999999998" style="fill:none;stroke:#000000;stroke-linecap:round;stroke-miterlimit:10;"/><path d="M 909.090909090909 929.9999999999998L 969.090909090909 959.9999999999998L 969.090909090909 899.9999999999998L 909.090909090909 929.9999999999998" style="fill:#000000;fill-opacity:0.5;stroke:#000000;stroke-linecap:round;stroke-miterlimit:10;"/></g></g><g id="I66"><g id="shape_131"><path d="M 909.090909090909 629.9999999999999L 181.8181818181818 629.9999999999999" style="fill:none;stroke:#000000;stroke-linecap:round;stroke-miterlimit:10;"/><path d="M 909.090909090909 629.9999999999999L 969.090909090909 659.9999999999999L 969.090909090909 599.9999999999999L 909.090909090909 629.9999999999999" style="fill:#000000;fill-opacity:0.5;stroke:#000000;stroke-linecap:round;stroke-miterlimit:10;"/></g></g><g id="I52"><path d="M 1005 1710.0000000000018L 1000 1710.0000000000018" style="fill:none;stroke:#aaaaaa;stroke-width:0.3;stroke-linecap:round;stroke-miterlimit:10;stroke-dasharray:5,10;" id="shape_132"/><text id="text_52" transform="matrix(1.0000,0.0000,0.0000,1.0000,1005.0000,1716.60)" fill="#000000" style="font-size:20px;font-family:Arial;">Streptococcus gallolyticus 103 refined c7 extraction</text><path d="M 1000 1710.0000000000018L 909.090909090909 1710.0000000000018" style="fill:none;stroke:#000000;stroke-linecap:round;stroke-miterlimit:10;" id="shape_133"/></g><g id="I45"><path d="M 1005 1620.0000000000016L 1000 1620.0000000000016" style="fill:none;stroke:#aaaaaa;stroke-width:0.3;stroke-linecap:round;stroke-miterlimit:10;stroke-dasharray:5,10;" id="shape_134"/><text id="text_53" transform="matrix(1.0000,0.0000,0.0000,1.0000,1005.0000,1626.60)" fill="#000000" style="font-size:20px;font-family:Arial;">Campylobacter sp. P0111 101 refined c7 extraction</text><path d="M 1000 1620.0000000000016L 818.1818181818181 1620.0000000000016" style="fill:none;stroke:#000000;stroke-linecap:round;stroke-miterlimit:10;" id="shape_135"/></g><g id="I199"><g id="shape_136"><path d="M 909.090909090909 1290.0000000000007L 181.8181818181818 1290.0000000000007" style="fill:none;stroke:#000000;stroke-linecap:round;stroke-miterlimit:10;"/><path d="M 909.090909090909 1290.0000000000007L 969.090909090909 1320.0000000000007L 969.090909090909 1260.0000000000007L 909.090909090909 1290.0000000000007" style="fill:#000000;fill-opacity:0.5;stroke:#000000;stroke-linecap:round;stroke-miterlimit:10;"/></g></g><g id="I179"><path d="M 1005 449.99999999999994L 1000 449.99999999999994" style="fill:none;stroke:#aaaaaa;stroke-width:0.3;stroke-linecap:round;stroke-miterlimit:10;stroke-dasharray:5,10;" id="shape_137"/><text id="text_54" transform="matrix(1.0000,0.0000,0.0000,1.0000,1005.0000,456.60)" fill="#000000" style="font-size:20px;font-family:Arial;">Paenibacillus sp. M-152 235 refined c7 extraction</text><path d="M 1000 449.99999999999994L 181.8181818181818 449.99999999999994" style="fill:none;stroke:#000000;stroke-linecap:round;stroke-miterlimit:10;" id="shape_138"/></g><g id="I185"><g id="shape_139"><path d="M 909.090909090909 1170.0000000000005L 181.8181818181818 1170.0000000000005" style="fill:none;stroke:#000000;stroke-linecap:round;stroke-miterlimit:10;"/><path d="M 909.090909090909 1170.0000000000005L 969.090909090909 1200.0000000000005L 969.090909090909 1140.0000000000005L 909.090909090909 1170.0000000000005" style="fill:#000000;fill-opacity:0.5;stroke:#000000;stroke-linecap:round;stroke-miterlimit:10;"/></g></g><g id="I9"><path d="M 1005 2340L 1000 2340" style="fill:none;stroke:#aaaaaa;stroke-width:0.3;stroke-linecap:round;stroke-miterlimit:10;stroke-dasharray:5,10;" id="shape_140"/><text id="text_55" transform="matrix(1.0000,0.0000,0.0000,1.0000,1005.0000,2346.60)" fill="#000000" style="font-size:20px;font-family:Arial;">3643350-assembly 6 34 RUMEN 8 refined c7 extraction</text><path d="M 1000 2340L 909.090909090909 2340" style="fill:none;stroke:#000000;stroke-linecap:round;stroke-miterlimit:10;" id="shape_141"/></g><g id="I14"><path d="M 1005 2190.0000000000005L 1000 2190.0000000000005" style="fill:none;stroke:#aaaaaa;stroke-width:0.3;stroke-linecap:round;stroke-miterlimit:10;stroke-dasharray:5,10;" id="shape_142"/><text id="text_56" transform="matrix(1.0000,0.0000,0.0000,1.0000,1005.0000,2196.60)" fill="#000000" style="font-size:20px;font-family:Arial;">Absiella sp. AM27-20 120 refined c7 extraction</text><path d="M 1000 2190.0000000000005L 909.090909090909 2190.0000000000005" style="fill:none;stroke:#000000;stroke-linecap:round;stroke-miterlimit:10;" id="shape_143"/></g><g id="I48"><path d="M 909.090909090909 1515.0000000000014L 545.4545454545454 1515.0000000000014M 909.090909090909 1530.0000000000014L 909.090909090909 1500.0000000000014" style="fill:none;stroke:#000000;stroke-linecap:round;stroke-miterlimit:10;" id="shape_144"/></g></g><g id="container_5"/><g id="container_6"/><g id="container_7"><text id="text_57" transform="matrix(1.0000,0.0000,0.0000,1.0000,863.6364,2248.13)" fill="#000000" text-anchor="middle" style="font-size:18px;font-family:Arial;">1</text><text id="text_58" transform="matrix(1.0000,0.0000,0.0000,1.0000,863.6364,1348.13)" fill="#000000" text-anchor="middle" style="font-size:18px;font-family:Arial;">1</text><text id="text_59" transform="matrix(1.0000,0.0000,0.0000,1.0000,545.4545,1243.13)" fill="#000000" text-anchor="middle" style="font-size:18px;font-family:Arial;">0.88</text><text id="text_60" transform="matrix(1.0000,0.0000,0.0000,1.0000,545.4545,763.13)" fill="#000000" text-anchor="middle" style="font-size:18px;font-family:Arial;">0.56</text><text id="text_61" transform="matrix(1.0000,0.0000,0.0000,1.0000,318.1818,1477.51)" fill="#000000" text-anchor="middle" style="font-size:18px;font-family:Arial;">0.57</text><text id="text_62" transform="matrix(1.0000,0.0000,0.0000,1.0000,772.7273,1903.13)" fill="#000000" text-anchor="middle" style="font-size:18px;font-family:Arial;">1</text><text id="text_63" transform="matrix(1.0000,0.0000,0.0000,1.0000,227.2727,1725.01)" fill="#000000" text-anchor="middle" style="font-size:18px;font-family:Arial;">0.76</text><text id="text_64" transform="matrix(1.0000,0.0000,0.0000,1.0000,863.6364,1423.13)" fill="#000000" text-anchor="middle" style="font-size:18px;font-family:Arial;">1</text><text id="text_65" transform="matrix(1.0000,0.0000,0.0000,1.0000,681.8182,1629.38)" fill="#000000" text-anchor="middle" style="font-size:18px;font-family:Arial;">0.91</text><text id="text_66" transform="matrix(1.0000,0.0000,0.0000,1.0000,863.6364,1678.13)" fill="#000000" text-anchor="middle" style="font-size:18px;font-family:Arial;">0.81</text><text id="text_67" transform="matrix(1.0000,0.0000,0.0000,1.0000,545.4545,1123.13)" fill="#000000" text-anchor="middle" style="font-size:18px;font-family:Arial;">1</text><text id="text_68" transform="matrix(1.0000,0.0000,0.0000,1.0000,545.4545,1063.13)" fill="#000000" text-anchor="middle" style="font-size:18px;font-family:Arial;">1</text><text id="text_69" transform="matrix(1.0000,0.0000,0.0000,1.0000,681.8182,2041.88)" fill="#000000" text-anchor="middle" style="font-size:18px;font-family:Arial;">1</text><text id="text_70" transform="matrix(1.0000,0.0000,0.0000,1.0000,545.4545,883.13)" fill="#000000" text-anchor="middle" style="font-size:18px;font-family:Arial;">0.99</text><text id="text_71" transform="matrix(1.0000,0.0000,0.0000,1.0000,500.0000,1655.63)" fill="#000000" text-anchor="middle" style="font-size:18px;font-family:Arial;">0.81</text><text id="text_72" transform="matrix(1.0000,0.0000,0.0000,1.0000,545.4545,1003.13)" fill="#000000" text-anchor="middle" style="font-size:18px;font-family:Arial;">1</text><text id="text_73" transform="matrix(1.0000,0.0000,0.0000,1.0000,727.2727,1783.13)" fill="#000000" text-anchor="middle" style="font-size:18px;font-family:Arial;">1</text><text id="text_74" transform="matrix(1.0000,0.0000,0.0000,1.0000,590.9091,1385.63)" fill="#000000" text-anchor="middle" style="font-size:18px;font-family:Arial;">0.53</text><text id="text_75" transform="matrix(1.0000,0.0000,0.0000,1.0000,772.7273,2120.63)" fill="#000000" text-anchor="middle" style="font-size:18px;font-family:Arial;">0.96</text><text id="text_76" transform="matrix(1.0000,0.0000,0.0000,1.0000,545.4545,703.13)" fill="#000000" text-anchor="middle" style="font-size:18px;font-family:Arial;">0.82</text><text id="text_77" transform="matrix(1.0000,0.0000,0.0000,1.0000,545.4545,583.13)" fill="#000000" text-anchor="middle" style="font-size:18px;font-family:Arial;">1</text><text id="text_78" transform="matrix(1.0000,0.0000,0.0000,1.0000,454.5455,1972.51)" fill="#000000" text-anchor="middle" style="font-size:18px;font-family:Arial;">0.67</text><text id="text_79" transform="matrix(1.0000,0.0000,0.0000,1.0000,590.9091,1601.26)" fill="#000000" text-anchor="middle" style="font-size:18px;font-family:Arial;">0.51</text><text id="text_80" transform="matrix(1.0000,0.0000,0.0000,1.0000,545.4545,823.13)" fill="#000000" text-anchor="middle" style="font-size:18px;font-family:Arial;">1</text><text id="text_81" transform="matrix(1.0000,0.0000,0.0000,1.0000,772.7273,1655.63)" fill="#000000" text-anchor="middle" style="font-size:18px;font-family:Arial;">0.89</text><text id="text_82" transform="matrix(1.0000,0.0000,0.0000,1.0000,545.4545,643.13)" fill="#000000" text-anchor="middle" style="font-size:18px;font-family:Arial;">0.97</text><text id="text_83" transform="matrix(1.0000,0.0000,0.0000,1.0000,545.4545,1303.13)" fill="#000000" text-anchor="middle" style="font-size:18px;font-family:Arial;">1</text><text id="text_84" transform="matrix(1.0000,0.0000,0.0000,1.0000,727.2727,1528.13)" fill="#000000" text-anchor="middle" style="font-size:18px;font-family:Arial;">1</text></g><g id="container_8"/><g id="container_9"/></g><g id="container_10" transform="matrix(1.0000,0.0000,0.0000,1.0000,100.0000,100.00)"/></g></svg>