<svg xmlns="http://www.w3.org/2000/svg" xmlns:xlink="http://www.w3.org/1999/xlink" width="1280" height="681" style="border: 1px solid black; overflow: hidden;"><defs/><g id="container"><g id="container_1" transform="matrix(0.3961,0.0000,0.0000,0.3961,136.0000,-8.00)"><g id="container_2"/><g id="container_3"/><g id="container_4"><g id="I352"><path d="M 530.781809459729 1289.9414062499995L 530.781809459729 1289.9414062499995M 530.781809459729 1319.8828124999995L 530.781809459729 1259.9999999999995" style="fill:none;stroke:#000000;stroke-linecap:round;stroke-miterlimit:10;" id="shape"/></g><g id="I395"><path d="M 350.6155122207978 629.5312499999999L 325.8093786276637 629.5312499999999M 350.6155122207978 689.0624999999998L 350.6155122207978 569.9999999999999" style="fill:none;stroke:#000000;stroke-linecap:round;stroke-miterlimit:10;" id="shape_1"/></g><g id="I401"><path d="M 412.24122490668475 763.1249999999997L 388.9476101050543 763.1249999999997M 412.24122490668475 838.1249999999997L 412.24122490668475 688.1249999999998" style="fill:none;stroke:#000000;stroke-linecap:round;stroke-miterlimit:10;" id="shape_2"/></g><g id="I407"><path d="M 1005 779.9999999999998L 452.7400253167885 779.9999999999998" style="fill:none;stroke:#aaaaaa;stroke-width:0.3;stroke-linecap:round;stroke-miterlimit:10;stroke-dasharray:5,10;" id="shape_3"/><text id="text" transform="matrix(1.0000,0.0000,0.0000,1.0000,1005.0000,786.60)" fill="#000000" style="font-size:20px;font-family:Arial;">Enterococcus faecalis EnGen0076 112 clade1 extraction</text><path d="M 452.7400253167885 779.9999999999998L 452.7400253167885 779.9999999999998" style="fill:none;stroke:#000000;stroke-linecap:round;stroke-miterlimit:10;" id="shape_4"/></g><g id="I363"><path d="M 1005 1469.9999999999993L 530.781809459729 1469.9999999999993" style="fill:none;stroke:#aaaaaa;stroke-width:0.3;stroke-linecap:round;stroke-miterlimit:10;stroke-dasharray:5,10;" id="shape_5"/><text id="text_1" transform="matrix(1.0000,0.0000,0.0000,1.0000,1005.0000,1476.60)" fill="#000000" style="font-size:20px;font-family:Arial;">Coprococcus 124 clade1 extraction</text><path d="M 530.781809459729 1469.9999999999993L 530.781809459729 1469.9999999999993" style="fill:none;stroke:#000000;stroke-linecap:round;stroke-miterlimit:10;" id="shape_6"/></g><g id="I397"><path d="M 388.9476101050543 689.0624999999998L 350.6155122207978 689.0624999999998M 388.9476101050543 763.1249999999997L 388.9476101050543 614.9999999999999" style="fill:none;stroke:#000000;stroke-linecap:round;stroke-miterlimit:10;" id="shape_7"/></g><g id="I336"><path d="M 146.6921743817315 357.6854896545411L 131.64017269152467 357.6854896545411M 146.6921743817315 445.37097930908203L 146.6921743817315 270.00000000000006" style="fill:none;stroke:#000000;stroke-linecap:round;stroke-miterlimit:10;" id="shape_8"/></g><g id="I376"><path d="M 1005 1199.9999999999995L 534.0573195535503 1199.9999999999995" style="fill:none;stroke:#aaaaaa;stroke-width:0.3;stroke-linecap:round;stroke-miterlimit:10;stroke-dasharray:5,10;" id="shape_9"/><text id="text_2" transform="matrix(1.0000,0.0000,0.0000,1.0000,1005.0000,1206.60)" fill="#000000" style="font-size:20px;font-family:Arial;">Lactobacillus reuteri 119 clade1 extraction</text><path d="M 534.0573195535503 1199.9999999999995L 530.781809459729 1199.9999999999995" style="fill:none;stroke:#000000;stroke-linecap:round;stroke-miterlimit:10;" id="shape_10"/></g><g id="I679"><g id="shape_11"><path d="M 67.00134446752499 90.00000000000001L 0 90.00000000000001" style="fill:none;stroke:#000000;stroke-linecap:round;stroke-miterlimit:10;"/><path d="M 67.00134446752499 90.00000000000001L 1000 120.00000000000001L 394.054805436897 60.000000000000014L 67.00134446752499 90.00000000000001" style="fill:#000000;fill-opacity:0.5;stroke:#000000;stroke-linecap:round;stroke-miterlimit:10;"/></g></g><g id="I339"><g id="shape_12"><path d="M 215.01866587872297 300.00000000000006L 182.33071448877664 300.00000000000006" style="fill:none;stroke:#000000;stroke-linecap:round;stroke-miterlimit:10;"/><path d="M 215.01866587872297 300.00000000000006L 414.66984719345487 330.00000000000006L 371.4042923462596 270.00000000000006L 215.01866587872297 300.00000000000006" style="fill:#000000;fill-opacity:0.5;stroke:#000000;stroke-linecap:round;stroke-miterlimit:10;"/></g></g><g id="I359"><path d="M 530.781809459729 1492.4999999999993L 530.781809459729 1492.4999999999993M 530.781809459729 1514.999999999999L 530.781809459729 1469.9999999999993" style="fill:none;stroke:#000000;stroke-linecap:round;stroke-miterlimit:10;" id="shape_13"/></g><g id="I3"><g id="shape_14"><path d="M 123.91564240691926 210.00000000000003L 79.9825991363295 210.00000000000003" style="fill:none;stroke:#000000;stroke-linecap:round;stroke-miterlimit:10;"/><path d="M 123.91564240691926 210.00000000000003L 962.553759617901 240.00000000000003L 378.6172390755211 180.00000000000003L 123.91564240691926 210.00000000000003" style="fill:#000000;fill-opacity:0.5;stroke:#000000;stroke-linecap:round;stroke-miterlimit:10;"/></g></g><g id="I338"><path d="M 182.33071448877664 445.37097930908203L 146.6921743817315 445.37097930908203M 182.33071448877664 590.741958618164L 182.33071448877664 300.00000000000006" style="fill:none;stroke:#000000;stroke-linecap:round;stroke-miterlimit:10;" id="shape_15"/></g><g id="I364"><path d="M 1005 1439.9999999999993L 530.781809459729 1439.9999999999993" style="fill:none;stroke:#aaaaaa;stroke-width:0.3;stroke-linecap:round;stroke-miterlimit:10;stroke-dasharray:5,10;" id="shape_16"/><text id="text_3" transform="matrix(1.0000,0.0000,0.0000,1.0000,1005.0000,1446.60)" fill="#000000" style="font-size:20px;font-family:Arial;">4309680-submission.assembly 59 3 RUMEN 6 clade1 extraction</text><path d="M 530.781809459729 1439.9999999999993L 530.781809459729 1439.9999999999993" style="fill:none;stroke:#000000;stroke-linecap:round;stroke-miterlimit:10;" id="shape_17"/></g><g id="I351"><path d="M 530.781809459729 1259.9707031249995L 530.781809459729 1259.9707031249995M 530.781809459729 1289.9414062499995L 530.781809459729 1229.9999999999995" style="fill:none;stroke:#000000;stroke-linecap:round;stroke-miterlimit:10;" id="shape_18"/></g><g id="I402"><path d="M 430.7653799948849 688.1249999999998L 412.24122490668475 688.1249999999998M 430.7653799948849 716.2499999999998L 430.7653799948849 659.9999999999999" style="fill:none;stroke:#000000;stroke-linecap:round;stroke-miterlimit:10;" id="shape_19"/></g><g id="I346"><path d="M 337.42326083622186 1033.827209472656L 286.14657704969 1033.827209472656M 337.42326083622186 1085.154418945312L 337.42326083622186 982.4999999999995" style="fill:none;stroke:#000000;stroke-linecap:round;stroke-miterlimit:10;" id="shape_20"/></g><g id="I408"><path d="M 1005 719.9999999999998L 455.94519273696926 719.9999999999998" style="fill:none;stroke:#aaaaaa;stroke-width:0.3;stroke-linecap:round;stroke-miterlimit:10;stroke-dasharray:5,10;" id="shape_21"/><text id="text_4" transform="matrix(1.0000,0.0000,0.0000,1.0000,1005.0000,726.60)" fill="#000000" style="font-size:20px;font-family:Arial;">Campylobacter sp. P0111 101 clade1 extraction</text><path d="M 455.94519273696926 719.9999999999998L 452.7400253167885 719.9999999999998" style="fill:none;stroke:#000000;stroke-linecap:round;stroke-miterlimit:10;" id="shape_22"/></g><g id="I377"><path d="M 1005 1109.9999999999995L 524.41935062985 1109.9999999999995" style="fill:none;stroke:#aaaaaa;stroke-width:0.3;stroke-linecap:round;stroke-miterlimit:10;stroke-dasharray:5,10;" id="shape_23"/><text id="text_5" transform="matrix(1.0000,0.0000,0.0000,1.0000,1005.0000,1116.60)" fill="#000000" style="font-size:20px;font-family:Arial;">bacterium D16-50 116 clade1 extraction</text><path d="M 524.41935062985 1109.9999999999995L 491.58253803076235 1109.9999999999995" style="fill:none;stroke:#000000;stroke-linecap:round;stroke-miterlimit:10;" id="shape_24"/></g><g id="I358"><path d="M 530.781809459729 1466.249999999999L 530.781809459729 1466.249999999999M 530.781809459729 1492.4999999999993L 530.781809459729 1439.9999999999993" style="fill:none;stroke:#000000;stroke-linecap:round;stroke-miterlimit:10;" id="shape_25"/></g><g id="I384"><path d="M 1005 1019.9999999999997L 462.5729053263215 1019.9999999999997" style="fill:none;stroke:#aaaaaa;stroke-width:0.3;stroke-linecap:round;stroke-miterlimit:10;stroke-dasharray:5,10;" id="shape_26"/><text id="text_6" transform="matrix(1.0000,0.0000,0.0000,1.0000,1005.0000,1026.60)" fill="#000000" style="font-size:20px;font-family:Arial;">4304452-submission.assembly 11 59 RUMEN 5 clade1 extraction</text><path d="M 462.5729053263215 1019.9999999999997L 462.5729053263215 1019.9999999999997" style="fill:none;stroke:#000000;stroke-linecap:round;stroke-miterlimit:10;" id="shape_27"/></g><g id="I410"><path d="M 1005 659.9999999999999L 493.35360084443766 659.9999999999999" style="fill:none;stroke:#aaaaaa;stroke-width:0.3;stroke-linecap:round;stroke-miterlimit:10;stroke-dasharray:5,10;" id="shape_28"/><text id="text_7" transform="matrix(1.0000,0.0000,0.0000,1.0000,1005.0000,666.60)" fill="#000000" style="font-size:20px;font-family:Arial;">Erysipelotrichaceae bacterium MTC7 111 clade1 extraction</text><path d="M 493.35360084443766 659.9999999999999L 430.7653799948849 659.9999999999999" style="fill:none;stroke:#000000;stroke-linecap:round;stroke-miterlimit:10;" id="shape_29"/></g><g id="I357"><path d="M 530.781809459729 1438.1249999999993L 530.781809459729 1438.1249999999993M 530.781809459729 1466.249999999999L 530.781809459729 1409.9999999999993" style="fill:none;stroke:#000000;stroke-linecap:round;stroke-miterlimit:10;" id="shape_30"/></g><g id="I350"><path d="M 530.781809459729 1211.2353515624998L 491.58253803076235 1211.2353515624998M 530.781809459729 1259.9707031249995L 530.781809459729 1162.4999999999998" style="fill:none;stroke:#000000;stroke-linecap:round;stroke-miterlimit:10;" id="shape_31"/></g><g id="I365"><path d="M 1005 1409.9999999999993L 530.781809459729 1409.9999999999993" style="fill:none;stroke:#aaaaaa;stroke-width:0.3;stroke-linecap:round;stroke-miterlimit:10;stroke-dasharray:5,10;" id="shape_32"/><text id="text_8" transform="matrix(1.0000,0.0000,0.0000,1.0000,1005.0000,1416.60)" fill="#000000" style="font-size:20px;font-family:Arial;">RUG117 52 14 RUMEN 10 clade1 extraction</text><path d="M 530.781809459729 1409.9999999999993L 530.781809459729 1409.9999999999993" style="fill:none;stroke:#000000;stroke-linecap:round;stroke-miterlimit:10;" id="shape_33"/></g><g id="I373"><path d="M 1005 1139.9999999999995L 534.060888340731 1139.9999999999995" style="fill:none;stroke:#aaaaaa;stroke-width:0.3;stroke-linecap:round;stroke-miterlimit:10;stroke-dasharray:5,10;" id="shape_34"/><text id="text_9" transform="matrix(1.0000,0.0000,0.0000,1.0000,1005.0000,1146.60)" fill="#000000" style="font-size:20px;font-family:Arial;">Massiliomicrobiota timonensis 128 clade1 extraction</text><path d="M 534.060888340731 1139.9999999999995L 530.781809459729 1139.9999999999995" style="fill:none;stroke:#000000;stroke-linecap:round;stroke-miterlimit:10;" id="shape_35"/></g><g id="I403"><path d="M 449.53244218247806 716.2499999999998L 430.7653799948849 716.2499999999998M 449.53244218247806 742.4999999999998L 449.53244218247806 689.9999999999998" style="fill:none;stroke:#000000;stroke-linecap:round;stroke-miterlimit:10;" id="shape_36"/></g><g id="I337"><path d="M 1005 270.00000000000006L 261.83004557857765 270.00000000000006" style="fill:none;stroke:#aaaaaa;stroke-width:0.3;stroke-linecap:round;stroke-miterlimit:10;stroke-dasharray:5,10;" id="shape_37"/><text id="text_10" transform="matrix(1.0000,0.0000,0.0000,1.0000,1005.0000,276.60)" fill="#000000" style="font-size:20px;font-family:Arial;">Gracilibacillus dipsosauri 247 clade1 extraction</text><path d="M 261.83004557857765 270.00000000000006L 146.6921743817315 270.00000000000006" style="fill:none;stroke:#000000;stroke-linecap:round;stroke-miterlimit:10;" id="shape_38"/></g><g id="I381"><path d="M 1005 959.9999999999997L 465.7579800572729 959.9999999999997" style="fill:none;stroke:#aaaaaa;stroke-width:0.3;stroke-linecap:round;stroke-miterlimit:10;stroke-dasharray:5,10;" id="shape_39"/><text id="text_11" transform="matrix(1.0000,0.0000,0.0000,1.0000,1005.0000,966.60)" fill="#000000" style="font-size:20px;font-family:Arial;">Eubacterium sp. Marseille-P5640 115 clade1 extraction</text><path d="M 465.7579800572729 959.9999999999997L 462.5729053263215 959.9999999999997" style="fill:none;stroke:#000000;stroke-linecap:round;stroke-miterlimit:10;" id="shape_40"/></g><g id="I392"><path d="M 475.09446472708055 435L 360.2384755422588 435M 475.09446472708055 450L 475.09446472708055 420" style="fill:none;stroke:#000000;stroke-linecap:round;stroke-miterlimit:10;" id="shape_41"/></g><g id="I419"><path d="M 1005 929.9999999999997L 421.17227656967407 929.9999999999997" style="fill:none;stroke:#aaaaaa;stroke-width:0.3;stroke-linecap:round;stroke-miterlimit:10;stroke-dasharray:5,10;" id="shape_42"/><text id="text_12" transform="matrix(1.0000,0.0000,0.0000,1.0000,1005.0000,936.60)" fill="#000000" style="font-size:20px;font-family:Arial;">Bacteroides sp. HMSC067B03 102 clade1 extraction</text><path d="M 421.17227656967407 929.9999999999997L 421.17227656967407 929.9999999999997" style="fill:none;stroke:#000000;stroke-linecap:round;stroke-miterlimit:10;" id="shape_43"/></g><g id="I348"><path d="M 479.47278223499063 1120.3088378906245L 439.316653222061 1120.3088378906245M 479.47278223499063 1160.6176757812498L 479.47278223499063 1079.9999999999995" style="fill:none;stroke:#000000;stroke-linecap:round;stroke-miterlimit:10;" id="shape_44"/></g><g id="I334"><path d="M 131.64017269152467 298.84274482727056L 79.9825991363295 298.84274482727056M 131.64017269152467 357.6854896545411L 131.64017269152467 240.00000000000003" style="fill:none;stroke:#000000;stroke-linecap:round;stroke-miterlimit:10;" id="shape_45"/></g><g id="I394"><path d="M 1005 450L 491.20865018080735 450" style="fill:none;stroke:#aaaaaa;stroke-width:0.3;stroke-linecap:round;stroke-miterlimit:10;stroke-dasharray:5,10;" id="shape_46"/><text id="text_13" transform="matrix(1.0000,0.0000,0.0000,1.0000,1005.0000,456.60)" fill="#000000" style="font-size:20px;font-family:Arial;">Lachnospiraceae bacterium TF09-5 137 clade1 extraction</text><path d="M 491.20865018080735 450L 475.09446472708055 450" style="fill:none;stroke:#000000;stroke-linecap:round;stroke-miterlimit:10;" id="shape_47"/></g><g id="I393"><path d="M 1005 420L 479.02294287189306 420" style="fill:none;stroke:#aaaaaa;stroke-width:0.3;stroke-linecap:round;stroke-miterlimit:10;stroke-dasharray:5,10;" id="shape_48"/><text id="text_14" transform="matrix(1.0000,0.0000,0.0000,1.0000,1005.0000,426.60)" fill="#000000" style="font-size:20px;font-family:Arial;">4304098-submission.assembly 1 297 RUMEN 11 clade1 extraction</text><path d="M 479.02294287189306 420L 475.09446472708055 420" style="fill:none;stroke:#000000;stroke-linecap:round;stroke-miterlimit:10;" id="shape_49"/></g><g id="I372"><path d="M 530.781809459729 1162.4999999999998L 530.781809459729 1162.4999999999998M 530.781809459729 1184.9999999999995L 530.781809459729 1139.9999999999995" style="fill:none;stroke:#000000;stroke-linecap:round;stroke-miterlimit:10;" id="shape_50"/></g><g id="I378"><path d="M 1005 1079.9999999999995L 539.441779387688 1079.9999999999995" style="fill:none;stroke:#aaaaaa;stroke-width:0.3;stroke-linecap:round;stroke-miterlimit:10;stroke-dasharray:5,10;" id="shape_51"/><text id="text_15" transform="matrix(1.0000,0.0000,0.0000,1.0000,1005.0000,1086.60)" fill="#000000" style="font-size:20px;font-family:Arial;">uncultured Bacteroides sp. 133 clade1 extraction</text><path d="M 539.441779387688 1079.9999999999995L 479.47278223499063 1079.9999999999995" style="fill:none;stroke:#000000;stroke-linecap:round;stroke-miterlimit:10;" id="shape_52"/></g><g id="I404"><path d="M 452.7400253167885 742.4999999999998L 449.53244218247806 742.4999999999998M 452.7400253167885 764.9999999999998L 452.7400253167885 719.9999999999998" style="fill:none;stroke:#000000;stroke-linecap:round;stroke-miterlimit:10;" id="shape_53"/></g><g id="I366"><path d="M 1005 1379.9999999999993L 530.781809459729 1379.9999999999993" style="fill:none;stroke:#aaaaaa;stroke-width:0.3;stroke-linecap:round;stroke-miterlimit:10;stroke-dasharray:5,10;" id="shape_54"/><text id="text_16" transform="matrix(1.0000,0.0000,0.0000,1.0000,1005.0000,1386.60)" fill="#000000" style="font-size:20px;font-family:Arial;">3394949-submission.assembly 17 40 RUMEN 9 clade1 extraction</text><path d="M 530.781809459729 1379.9999999999993L 530.781809459729 1379.9999999999993" style="fill:none;stroke:#000000;stroke-linecap:round;stroke-miterlimit:10;" id="shape_55"/></g><g id="I356"><path d="M 530.781809459729 1409.0624999999993L 530.781809459729 1409.0624999999993M 530.781809459729 1438.1249999999993L 530.781809459729 1379.9999999999993" style="fill:none;stroke:#000000;stroke-linecap:round;stroke-miterlimit:10;" id="shape_56"/></g><g id="I349"><path d="M 491.58253803076235 1160.6176757812498L 479.47278223499063 1160.6176757812498M 491.58253803076235 1211.2353515624998L 491.58253803076235 1109.9999999999995" style="fill:none;stroke:#000000;stroke-linecap:round;stroke-miterlimit:10;" id="shape_57"/></g><g id="I420"><g id="shape_58"><path d="M 323.0263194245784 390L 260.27897449397716 390" style="fill:none;stroke:#000000;stroke-linecap:round;stroke-miterlimit:10;"/><path d="M 323.0263194245784 390L 776.9176803565778 420L 455.83566123216735 360L 323.0263194245784 390" style="fill:#000000;fill-opacity:0.5;stroke:#000000;stroke-linecap:round;stroke-miterlimit:10;"/></g></g><g id="I355"><path d="M 530.781809459729 1379.5312499999993L 530.781809459729 1379.5312499999993M 530.781809459729 1409.0624999999993L 530.781809459729 1349.9999999999993" style="fill:none;stroke:#000000;stroke-linecap:round;stroke-miterlimit:10;" id="shape_59"/></g><g id="I417"><path d="M 421.17227656967407 914.9999999999997L 421.17227656967407 914.9999999999997M 421.17227656967407 929.9999999999997L 421.17227656967407 899.9999999999997" style="fill:none;stroke:#000000;stroke-linecap:round;stroke-miterlimit:10;" id="shape_60"/></g><g id="I413"><path d="M 421.17227656967407 866.2499999999997L 421.17227656967407 866.2499999999997M 421.17227656967407 892.4999999999997L 421.17227656967407 839.9999999999998" style="fill:none;stroke:#000000;stroke-linecap:round;stroke-miterlimit:10;" id="shape_61"/></g><g id="I379"><path d="M 1005 1049.9999999999995L 497.1785111156581 1049.9999999999995" style="fill:none;stroke:#aaaaaa;stroke-width:0.3;stroke-linecap:round;stroke-miterlimit:10;stroke-dasharray:5,10;" id="shape_62"/><text id="text_17" transform="matrix(1.0000,0.0000,0.0000,1.0000,1005.0000,1056.60)" fill="#000000" style="font-size:20px;font-family:Arial;">bacterium 0.1xD8-82 132 clade1 extraction</text><path d="M 497.1785111156581 1049.9999999999995L 439.316653222061 1049.9999999999995" style="fill:none;stroke:#000000;stroke-linecap:round;stroke-miterlimit:10;" id="shape_63"/></g><g id="I386"><path d="M 360.2384755422588 468.75L 325.8093786276637 468.75M 360.2384755422588 502.49999999999994L 360.2384755422588 435" style="fill:none;stroke:#000000;stroke-linecap:round;stroke-miterlimit:10;" id="shape_64"/></g><g id="I391"><path d="M 1005 479.99999999999994L 544.9582217372104 479.99999999999994" style="fill:none;stroke:#aaaaaa;stroke-width:0.3;stroke-linecap:round;stroke-miterlimit:10;stroke-dasharray:5,10;" id="shape_65"/><text id="text_18" transform="matrix(1.0000,0.0000,0.0000,1.0000,1005.0000,486.60)" fill="#000000" style="font-size:20px;font-family:Arial;">RUG084 1 22 RUMEN 14 clade1 extraction</text><path d="M 544.9582217372104 479.99999999999994L 544.9582217372104 479.99999999999994" style="fill:none;stroke:#000000;stroke-linecap:round;stroke-miterlimit:10;" id="shape_66"/></g><g id="I382"><path d="M 462.5729053263215 1004.9999999999997L 462.5729053263215 1004.9999999999997M 462.5729053263215 1019.9999999999997L 462.5729053263215 989.9999999999997" style="fill:none;stroke:#000000;stroke-linecap:round;stroke-miterlimit:10;" id="shape_67"/></g><g id="I625"><g id="shape_68"><path d="M 157.2243801529289 150L 51.53744525687861 150" style="fill:none;stroke:#000000;stroke-linecap:round;stroke-miterlimit:10;"/><path d="M 157.2243801529289 150L 337.7323261541109 180L 294.58472389725796 120L 157.2243801529289 150" style="fill:#000000;fill-opacity:0.5;stroke:#000000;stroke-linecap:round;stroke-miterlimit:10;"/></g></g><g id="I634"><g id="shape_69"><path d="M 59.647414992050244 30L 0 30" style="fill:none;stroke:#000000;stroke-linecap:round;stroke-miterlimit:10;"/><path d="M 59.647414992050244 30L 778.1741230152905 60L 339.4200911792776 0L 59.647414992050244 30" style="fill:#000000;fill-opacity:0.5;stroke:#000000;stroke-linecap:round;stroke-miterlimit:10;"/></g></g><g id="I335"><path d="M 1005 240.00000000000003L 461.8559182421327 240.00000000000003" style="fill:none;stroke:#aaaaaa;stroke-width:0.3;stroke-linecap:round;stroke-miterlimit:10;stroke-dasharray:5,10;" id="shape_70"/><text id="text_19" transform="matrix(1.0000,0.0000,0.0000,1.0000,1005.0000,246.60)" fill="#000000" style="font-size:20px;font-family:Arial;">Angelakisella massiliensis 504 clade1 extraction</text><path d="M 461.8559182421327 240.00000000000003L 131.64017269152467 240.00000000000003" style="fill:none;stroke:#000000;stroke-linecap:round;stroke-miterlimit:10;" id="shape_71"/></g><g id="I0"><path d="M 0 116.10534310340883L 0 116.10534310340883M 0 202.21068620681766L 0 30" style="fill:none;stroke:#000000;stroke-linecap:round;stroke-miterlimit:10;" id="shape_72"/></g><g id="I405"><path d="M 452.7400253167885 764.9999999999998L 452.7400253167885 764.9999999999998M 452.7400253167885 779.9999999999998L 452.7400253167885 749.9999999999998" style="fill:none;stroke:#000000;stroke-linecap:round;stroke-miterlimit:10;" id="shape_73"/></g><g id="I400"><path d="M 1005 629.9999999999999L 459.4260437493342 629.9999999999999" style="fill:none;stroke:#aaaaaa;stroke-width:0.3;stroke-linecap:round;stroke-miterlimit:10;stroke-dasharray:5,10;" id="shape_74"/><text id="text_20" transform="matrix(1.0000,0.0000,0.0000,1.0000,1005.0000,636.60)" fill="#000000" style="font-size:20px;font-family:Arial;">Macrococcus caseolyticus 106 clade1 extraction</text><path d="M 459.4260437493342 629.9999999999999L 425.1934649183081 629.9999999999999" style="fill:none;stroke:#000000;stroke-linecap:round;stroke-miterlimit:10;" id="shape_75"/></g><g id="I390"><path d="M 1005 539.9999999999999L 544.9582217372104 539.9999999999999" style="fill:none;stroke:#aaaaaa;stroke-width:0.3;stroke-linecap:round;stroke-miterlimit:10;stroke-dasharray:5,10;" id="shape_76"/><text id="text_21" transform="matrix(1.0000,0.0000,0.0000,1.0000,1005.0000,546.60)" fill="#000000" style="font-size:20px;font-family:Arial;">RMG 330 81 6 RUMEN 13 clade1 extraction</text><path d="M 544.9582217372104 539.9999999999999L 544.9582217372104 539.9999999999999" style="fill:none;stroke:#000000;stroke-linecap:round;stroke-miterlimit:10;" id="shape_77"/></g><g id="I370"><path d="M 1005 1259.9999999999995L 530.781809459729 1259.9999999999995" style="fill:none;stroke:#aaaaaa;stroke-width:0.3;stroke-linecap:round;stroke-miterlimit:10;stroke-dasharray:5,10;" id="shape_78"/><text id="text_22" transform="matrix(1.0000,0.0000,0.0000,1.0000,1005.0000,1266.60)" fill="#000000" style="font-size:20px;font-family:Arial;">Enterococcus faecalis D32 123 clade1 extraction</text><path d="M 530.781809459729 1259.9999999999995L 530.781809459729 1259.9999999999995" style="fill:none;stroke:#000000;stroke-linecap:round;stroke-miterlimit:10;" id="shape_79"/></g><g id="I367"><path d="M 1005 1349.9999999999993L 530.781809459729 1349.9999999999993" style="fill:none;stroke:#aaaaaa;stroke-width:0.3;stroke-linecap:round;stroke-miterlimit:10;stroke-dasharray:5,10;" id="shape_80"/><text id="text_23" transform="matrix(1.0000,0.0000,0.0000,1.0000,1005.0000,1356.60)" fill="#000000" style="font-size:20px;font-family:Arial;">3643350-assembly 6 34 RUMEN 8 clade1 extraction</text><path d="M 530.781809459729 1349.9999999999993L 530.781809459729 1349.9999999999993" style="fill:none;stroke:#000000;stroke-linecap:round;stroke-miterlimit:10;" id="shape_81"/></g><g id="I368"><path d="M 1005 1319.9999999999995L 530.781809459729 1319.9999999999995" style="fill:none;stroke:#aaaaaa;stroke-width:0.3;stroke-linecap:round;stroke-miterlimit:10;stroke-dasharray:5,10;" id="shape_82"/><text id="text_24" transform="matrix(1.0000,0.0000,0.0000,1.0000,1005.0000,1326.60)" fill="#000000" style="font-size:20px;font-family:Arial;">3964017-submission.assembly 7 86 RUMEN 7 clade1 extraction</text><path d="M 530.781809459729 1319.9999999999995L 530.781809459729 1319.9999999999995" style="fill:none;stroke:#000000;stroke-linecap:round;stroke-miterlimit:10;" id="shape_83"/></g><g id="I383"><path d="M 1005 989.9999999999997L 462.5729053263215 989.9999999999997" style="fill:none;stroke:#aaaaaa;stroke-width:0.3;stroke-linecap:round;stroke-miterlimit:10;stroke-dasharray:5,10;" id="shape_84"/><text id="text_25" transform="matrix(1.0000,0.0000,0.0000,1.0000,1005.0000,996.60)" fill="#000000" style="font-size:20px;font-family:Arial;">2917049-submission.assembly 6 69 RUMEN 4 clade1 extraction</text><path d="M 462.5729053263215 989.9999999999997L 462.5729053263215 989.9999999999997" style="fill:none;stroke:#000000;stroke-linecap:round;stroke-miterlimit:10;" id="shape_85"/></g><g id="I414"><path d="M 1005 839.9999999999998L 424.3807519007796 839.9999999999998" style="fill:none;stroke:#aaaaaa;stroke-width:0.3;stroke-linecap:round;stroke-miterlimit:10;stroke-dasharray:5,10;" id="shape_86"/><text id="text_26" transform="matrix(1.0000,0.0000,0.0000,1.0000,1005.0000,846.60)" fill="#000000" style="font-size:20px;font-family:Arial;">Streptococcus gallolyticus 103 clade1 extraction</text><path d="M 424.3807519007796 839.9999999999998L 421.17227656967407 839.9999999999998" style="fill:none;stroke:#000000;stroke-linecap:round;stroke-miterlimit:10;" id="shape_87"/></g><g id="I345"><path d="M 286.14657704969 791.4839172363279L 260.27897449397716 791.4839172363279M 286.14657704969 1033.827209472656L 286.14657704969 549.1406249999999" style="fill:none;stroke:#000000;stroke-linecap:round;stroke-miterlimit:10;" id="shape_88"/></g><g id="I387"><path d="M 544.9582217372104 502.49999999999994L 360.2384755422588 502.49999999999994M 544.9582217372104 524.9999999999999L 544.9582217372104 479.99999999999994" style="fill:none;stroke:#000000;stroke-linecap:round;stroke-miterlimit:10;" id="shape_89"/></g><g id="I418"><path d="M 1005 899.9999999999997L 421.17227656967407 899.9999999999997" style="fill:none;stroke:#aaaaaa;stroke-width:0.3;stroke-linecap:round;stroke-miterlimit:10;stroke-dasharray:5,10;" id="shape_90"/><text id="text_27" transform="matrix(1.0000,0.0000,0.0000,1.0000,1005.0000,906.60)" fill="#000000" style="font-size:20px;font-family:Arial;">RUG782 1 138 RUMEN 1 clade1 extraction</text><path d="M 421.17227656967407 899.9999999999997L 421.17227656967407 899.9999999999997" style="fill:none;stroke:#000000;stroke-linecap:round;stroke-miterlimit:10;" id="shape_91"/></g><g id="I380"><path d="M 462.5729053263215 982.4999999999995L 337.42326083622186 982.4999999999995M 462.5729053263215 1004.9999999999997L 462.5729053263215 959.9999999999997" style="fill:none;stroke:#000000;stroke-linecap:round;stroke-miterlimit:10;" id="shape_92"/></g><g id="I406"><path d="M 1005 749.9999999999998L 452.7400253167885 749.9999999999998" style="fill:none;stroke:#aaaaaa;stroke-width:0.3;stroke-linecap:round;stroke-miterlimit:10;stroke-dasharray:5,10;" id="shape_93"/><text id="text_28" transform="matrix(1.0000,0.0000,0.0000,1.0000,1005.0000,756.60)" fill="#000000" style="font-size:20px;font-family:Arial;">Enterococcus faecium EnGen0149 108 clade1 extraction</text><path d="M 452.7400253167885 749.9999999999998L 452.7400253167885 749.9999999999998" style="fill:none;stroke:#000000;stroke-linecap:round;stroke-miterlimit:10;" id="shape_94"/></g><g id="I360"><path d="M 530.781809459729 1514.999999999999L 530.781809459729 1514.999999999999M 530.781809459729 1529.9999999999993L 530.781809459729 1499.9999999999993" style="fill:none;stroke:#000000;stroke-linecap:round;stroke-miterlimit:10;" id="shape_95"/></g><g id="I354"><path d="M 530.781809459729 1349.7656249999995L 530.781809459729 1349.7656249999995M 530.781809459729 1379.5312499999993L 530.781809459729 1319.9999999999995" style="fill:none;stroke:#000000;stroke-linecap:round;stroke-miterlimit:10;" id="shape_96"/></g><g id="I388"><path d="M 544.9582217372104 524.9999999999999L 544.9582217372104 524.9999999999999M 544.9582217372104 539.9999999999999L 544.9582217372104 509.99999999999994" style="fill:none;stroke:#000000;stroke-linecap:round;stroke-miterlimit:10;" id="shape_97"/></g><g id="I361"><path d="M 1005 1499.9999999999993L 530.781809459729 1499.9999999999993" style="fill:none;stroke:#aaaaaa;stroke-width:0.3;stroke-linecap:round;stroke-miterlimit:10;stroke-dasharray:5,10;" id="shape_98"/><text id="text_29" transform="matrix(1.0000,0.0000,0.0000,1.0000,1005.0000,1506.60)" fill="#000000" style="font-size:20px;font-family:Arial;">Lachnoclostridium sp. An169 122 clade1 extraction</text><path d="M 530.781809459729 1499.9999999999993L 530.781809459729 1499.9999999999993" style="fill:none;stroke:#000000;stroke-linecap:round;stroke-miterlimit:10;" id="shape_99"/></g><g id="I353"><path d="M 530.781809459729 1319.8828124999995L 530.781809459729 1319.8828124999995M 530.781809459729 1349.7656249999995L 530.781809459729 1289.9999999999995" style="fill:none;stroke:#000000;stroke-linecap:round;stroke-miterlimit:10;" id="shape_100"/></g><g id="I347"><path d="M 439.316653222061 1085.154418945312L 337.42326083622186 1085.154418945312M 439.316653222061 1120.3088378906245L 439.316653222061 1049.9999999999995" style="fill:none;stroke:#000000;stroke-linecap:round;stroke-miterlimit:10;" id="shape_101"/></g><g id="I1"><path d="M 51.53744525687861 202.21068620681766L 0 202.21068620681766M 51.53744525687861 254.42137241363528L 51.53744525687861 150" style="fill:none;stroke:#000000;stroke-linecap:round;stroke-miterlimit:10;" id="shape_102"/></g><g id="I409"><path d="M 1005 689.9999999999998L 449.53244218247806 689.9999999999998" style="fill:none;stroke:#aaaaaa;stroke-width:0.3;stroke-linecap:round;stroke-miterlimit:10;stroke-dasharray:5,10;" id="shape_103"/><text id="text_30" transform="matrix(1.0000,0.0000,0.0000,1.0000,1005.0000,696.60)" fill="#000000" style="font-size:20px;font-family:Arial;">Hungateiclostridium clariflavum 107 clade1 extraction</text><path d="M 449.53244218247806 689.9999999999998L 449.53244218247806 689.9999999999998" style="fill:none;stroke:#000000;stroke-linecap:round;stroke-miterlimit:10;" id="shape_104"/></g><g id="I398"><path d="M 425.1934649183081 614.9999999999999L 388.9476101050543 614.9999999999999M 425.1934649183081 629.9999999999999L 425.1934649183081 599.9999999999999" style="fill:none;stroke:#000000;stroke-linecap:round;stroke-miterlimit:10;" id="shape_105"/></g><g id="I412"><path d="M 1005 809.9999999999998L 421.17227656967407 809.9999999999998" style="fill:none;stroke:#aaaaaa;stroke-width:0.3;stroke-linecap:round;stroke-miterlimit:10;stroke-dasharray:5,10;" id="shape_106"/><text id="text_31" transform="matrix(1.0000,0.0000,0.0000,1.0000,1005.0000,816.60)" fill="#000000" style="font-size:20px;font-family:Arial;">4309680-submission.assembly 52 14 RUMEN 2 clade1 extraction</text><path d="M 421.17227656967407 809.9999999999998L 421.17227656967407 809.9999999999998" style="fill:none;stroke:#000000;stroke-linecap:round;stroke-miterlimit:10;" id="shape_107"/></g><g id="I416"><path d="M 1005 869.9999999999998L 421.17227656967407 869.9999999999998" style="fill:none;stroke:#aaaaaa;stroke-width:0.3;stroke-linecap:round;stroke-miterlimit:10;stroke-dasharray:5,10;" id="shape_108"/><text id="text_32" transform="matrix(1.0000,0.0000,0.0000,1.0000,1005.0000,876.60)" fill="#000000" style="font-size:20px;font-family:Arial;">4309689-submission.assembly 79 12 RUMEN 3 clade1 extraction</text><path d="M 421.17227656967407 869.9999999999998L 421.17227656967407 869.9999999999998" style="fill:none;stroke:#000000;stroke-linecap:round;stroke-miterlimit:10;" id="shape_109"/></g><g id="I375"><path d="M 1005 1169.9999999999995L 537.3460247683953 1169.9999999999995" style="fill:none;stroke:#aaaaaa;stroke-width:0.3;stroke-linecap:round;stroke-miterlimit:10;stroke-dasharray:5,10;" id="shape_110"/><text id="text_33" transform="matrix(1.0000,0.0000,0.0000,1.0000,1005.0000,1176.60)" fill="#000000" style="font-size:20px;font-family:Arial;">Intestinimonas butyriciproducens 125 clade1 extraction</text><path d="M 537.3460247683953 1169.9999999999995L 530.781809459729 1169.9999999999995" style="fill:none;stroke:#000000;stroke-linecap:round;stroke-miterlimit:10;" id="shape_111"/></g><g id="I396"><path d="M 1005 569.9999999999999L 564.6267157394383 569.9999999999999" style="fill:none;stroke:#aaaaaa;stroke-width:0.3;stroke-linecap:round;stroke-miterlimit:10;stroke-dasharray:5,10;" id="shape_112"/><text id="text_34" transform="matrix(1.0000,0.0000,0.0000,1.0000,1005.0000,576.60)" fill="#000000" style="font-size:20px;font-family:Arial;">Salinicoccus sediminis 134 clade1 extraction</text><path d="M 564.6267157394383 569.9999999999999L 350.6155122207978 569.9999999999999" style="fill:none;stroke:#000000;stroke-linecap:round;stroke-miterlimit:10;" id="shape_113"/></g><g id="I389"><path d="M 1005 509.99999999999994L 544.9582217372104 509.99999999999994" style="fill:none;stroke:#aaaaaa;stroke-width:0.3;stroke-linecap:round;stroke-miterlimit:10;stroke-dasharray:5,10;" id="shape_114"/><text id="text_35" transform="matrix(1.0000,0.0000,0.0000,1.0000,1005.0000,516.60)" fill="#000000" style="font-size:20px;font-family:Arial;">hRUG880 98 9 RUMEN 12 clade1 extraction</text><path d="M 544.9582217372104 509.99999999999994L 544.9582217372104 509.99999999999994" style="fill:none;stroke:#000000;stroke-linecap:round;stroke-miterlimit:10;" id="shape_115"/></g><g id="I374"><path d="M 530.781809459729 1184.9999999999995L 530.781809459729 1184.9999999999995M 530.781809459729 1199.9999999999995L 530.781809459729 1169.9999999999995" style="fill:none;stroke:#000000;stroke-linecap:round;stroke-miterlimit:10;" id="shape_116"/></g><g id="I411"><path d="M 421.17227656967407 838.1249999999997L 412.24122490668475 838.1249999999997M 421.17227656967407 866.2499999999997L 421.17227656967407 809.9999999999998" style="fill:none;stroke:#000000;stroke-linecap:round;stroke-miterlimit:10;" id="shape_117"/></g><g id="I385"><path d="M 325.8093786276637 549.1406249999999L 286.14657704969 549.1406249999999M 325.8093786276637 629.5312499999999L 325.8093786276637 468.75" style="fill:none;stroke:#000000;stroke-linecap:round;stroke-miterlimit:10;" id="shape_118"/></g><g id="I362"><path d="M 1005 1529.9999999999993L 530.781809459729 1529.9999999999993" style="fill:none;stroke:#aaaaaa;stroke-width:0.3;stroke-linecap:round;stroke-miterlimit:10;stroke-dasharray:5,10;" id="shape_119"/><text id="text_36" transform="matrix(1.0000,0.0000,0.0000,1.0000,1005.0000,1536.60)" fill="#000000" style="font-size:20px;font-family:Arial;">Absiella sp. AM27-20 120 clade1 extraction</text><path d="M 530.781809459729 1529.9999999999993L 530.781809459729 1529.9999999999993" style="fill:none;stroke:#000000;stroke-linecap:round;stroke-miterlimit:10;" id="shape_120"/></g><g id="I344"><path d="M 260.27897449397716 590.741958618164L 182.33071448877664 590.741958618164M 260.27897449397716 791.4839172363279L 260.27897449397716 390" style="fill:none;stroke:#000000;stroke-linecap:round;stroke-miterlimit:10;" id="shape_121"/></g><g id="I369"><path d="M 1005 1289.9999999999995L 530.781809459729 1289.9999999999995" style="fill:none;stroke:#aaaaaa;stroke-width:0.3;stroke-linecap:round;stroke-miterlimit:10;stroke-dasharray:5,10;" id="shape_122"/><text id="text_37" transform="matrix(1.0000,0.0000,0.0000,1.0000,1005.0000,1296.60)" fill="#000000" style="font-size:20px;font-family:Arial;">Christensenella massiliensis 121 clade1 extraction</text><path d="M 530.781809459729 1289.9999999999995L 530.781809459729 1289.9999999999995" style="fill:none;stroke:#000000;stroke-linecap:round;stroke-miterlimit:10;" id="shape_123"/></g><g id="I415"><path d="M 421.17227656967407 892.4999999999997L 421.17227656967407 892.4999999999997M 421.17227656967407 914.9999999999997L 421.17227656967407 869.9999999999998" style="fill:none;stroke:#000000;stroke-linecap:round;stroke-miterlimit:10;" id="shape_124"/></g><g id="I2"><path d="M 79.9825991363295 254.42137241363528L 51.53744525687861 254.42137241363528M 79.9825991363295 298.84274482727056L 79.9825991363295 210.00000000000003" style="fill:none;stroke:#000000;stroke-linecap:round;stroke-miterlimit:10;" id="shape_125"/></g><g id="I399"><path d="M 1005 599.9999999999999L 473.7332698165739 599.9999999999999" style="fill:none;stroke:#aaaaaa;stroke-width:0.3;stroke-linecap:round;stroke-miterlimit:10;stroke-dasharray:5,10;" id="shape_126"/><text id="text_38" transform="matrix(1.0000,0.0000,0.0000,1.0000,1005.0000,606.60)" fill="#000000" style="font-size:20px;font-family:Arial;">Alkaliphilus oremlandii 113 clade1 extraction</text><path d="M 473.7332698165739 599.9999999999999L 425.1934649183081 599.9999999999999" style="fill:none;stroke:#000000;stroke-linecap:round;stroke-miterlimit:10;" id="shape_127"/></g><g id="I371"><path d="M 1005 1229.9999999999995L 534.0673267667266 1229.9999999999995" style="fill:none;stroke:#aaaaaa;stroke-width:0.3;stroke-linecap:round;stroke-miterlimit:10;stroke-dasharray:5,10;" id="shape_128"/><text id="text_39" transform="matrix(1.0000,0.0000,0.0000,1.0000,1005.0000,1236.60)" fill="#000000" style="font-size:20px;font-family:Arial;">Blautia 118 clade1 extraction</text><path d="M 534.0673267667266 1229.9999999999995L 530.781809459729 1229.9999999999995" style="fill:none;stroke:#000000;stroke-linecap:round;stroke-miterlimit:10;" id="shape_129"/></g></g><g id="container_5"/><g id="container_6"/><g id="container_7"/><g id="container_8"/><g id="container_9"/></g><g id="container_10" transform="matrix(1.0000,0.0000,0.0000,1.0000,100.0000,100.00)"/><g id="container_11" transform="matrix(1.0000,0.0000,0.0000,1.0000,45.0000,36.00)"><path d="M 0 -3L 0 3M 0 0L 52.17525117987679 0M 52.17525117987679 -3L 52.17525117987679 3" style="fill:none;stroke:#000;stroke-width:0.5;stroke-linecap:round;stroke-miterlimit:10;" id="shape_131" transform="matrix(0.3961,0.0000,0.0000,1.0000,105.7373,8.00)"/><text id="text_40" transform="matrix(1.0000,0.0000,0.0000,1.0000,0.0000,10.22)" fill="#555" style="font-weight:bold;font-size:14px;font-family:Arial;">Tree scale: 0.1</text></g></g></svg>