<svg xmlns="http://www.w3.org/2000/svg" xmlns:xlink="http://www.w3.org/1999/xlink" width="1206" height="626" style="border: 1px solid black; overflow: hidden;"><defs/><g id="container"><g id="container_1" transform="matrix(0.4580,0.0000,0.0000,0.4580,72.0000,64.00)"><g id="container_2"/><g id="container_3"/><g id="container_4"><g id="I11"><path d="M 222.5074192551987 839.9414062499997L 222.5074192551987 839.9414062499997M 222.5074192551987 869.8828124999997L 222.5074192551987 809.9999999999995" style="fill:none;stroke:#000000;stroke-linecap:round;stroke-miterlimit:10;" id="shape"/></g><g id="I12"><path d="M 222.5074192551987 869.8828124999997L 222.5074192551987 869.8828124999997M 222.5074192551987 899.7656249999997L 222.5074192551987 839.9999999999995" style="fill:none;stroke:#000000;stroke-linecap:round;stroke-miterlimit:10;" id="shape_1"/></g><g id="I51"><path d="M 66.2434231390273 220.78124999999997L 57.08270577578 220.78124999999997M 66.2434231390273 261.5625L 66.2434231390273 180" style="fill:none;stroke:#000000;stroke-linecap:round;stroke-miterlimit:10;" id="shape_2"/></g><g id="I22"><path d="M 1005.0000000000001 1019.9999999999999L 225.1726237476303 1019.9999999999999" style="fill:none;stroke:#aaaaaa;stroke-width:0.3;stroke-linecap:round;stroke-miterlimit:10;stroke-dasharray:5,10;" id="shape_3"/><text id="text" transform="matrix(1.0000,0.0000,0.0000,1.0000,1005.0000,1026.60)" fill="#000000" style="font-size:20px;font-family:Arial;">3643350-assembly 6 34 RUMEN 8 refined c7 extraction</text><path d="M 225.1726237476303 1019.9999999999999L 225.1726237476303 1019.9999999999999" style="fill:none;stroke:#000000;stroke-linecap:round;stroke-miterlimit:10;" id="shape_4"/></g><g id="I5"><path d="M 178.99044881542162 659.9990844726559L 152.0518512392777 659.9990844726559M 178.99044881542162 689.9981689453122L 178.99044881542162 629.9999999999997" style="fill:none;stroke:#000000;stroke-linecap:round;stroke-miterlimit:10;" id="shape_5"/></g><g id="I47"><path d="M 57.08270577578 177.89062499999997L 24.26656872492257 177.89062499999997M 57.08270577578 220.78124999999997L 57.08270577578 134.99999999999997" style="fill:none;stroke:#000000;stroke-linecap:round;stroke-miterlimit:10;" id="shape_6"/></g><g id="I46"><path d="M 1005.0000000000001 479.99999999999983L 211.58427219880565 479.99999999999983" style="fill:none;stroke:#aaaaaa;stroke-width:0.3;stroke-linecap:round;stroke-miterlimit:10;stroke-dasharray:5,10;" id="shape_7"/><text id="text_1" transform="matrix(1.0000,0.0000,0.0000,1.0000,1005.0000,486.60)" fill="#000000" style="font-size:20px;font-family:Arial;">RUG084 1 22 RUMEN 14 refined c7 extraction</text><path d="M 211.58427219880565 479.99999999999983L 211.58427219880565 479.99999999999983" style="fill:none;stroke:#000000;stroke-linecap:round;stroke-miterlimit:10;" id="shape_8"/></g><g id="I43"><path d="M 1005.0000000000001 419.99999999999983L 211.58427219880565 419.99999999999983" style="fill:none;stroke:#aaaaaa;stroke-width:0.3;stroke-linecap:round;stroke-miterlimit:10;stroke-dasharray:5,10;" id="shape_9"/><text id="text_2" transform="matrix(1.0000,0.0000,0.0000,1.0000,1005.0000,426.60)" fill="#000000" style="font-size:20px;font-family:Arial;">hRUG880 98 9 RUMEN 12 refined c7 extraction</text><path d="M 211.58427219880565 419.99999999999983L 211.58427219880565 419.99999999999983" style="fill:none;stroke:#000000;stroke-linecap:round;stroke-miterlimit:10;" id="shape_10"/></g><g id="I6"><path d="M 185.47403360106694 689.9981689453122L 178.99044881542162 689.9981689453122M 185.47403360106694 719.9963378906247L 185.47403360106694 659.9999999999997" style="fill:none;stroke:#000000;stroke-linecap:round;stroke-miterlimit:10;" id="shape_11"/></g><g id="I50"><path d="M 1005.0000000000001 150L 103.69603689951926 150" style="fill:none;stroke:#aaaaaa;stroke-width:0.3;stroke-linecap:round;stroke-miterlimit:10;stroke-dasharray:5,10;" id="shape_12"/><text id="text_3" transform="matrix(1.0000,0.0000,0.0000,1.0000,1005.0000,156.60)" fill="#000000" style="font-size:20px;font-family:Arial;">Macrococcus caseolyticus 106 refined c7 extraction</text><path d="M 103.69603689951926 150L 84.3810410519839 150" style="fill:none;stroke:#000000;stroke-linecap:round;stroke-miterlimit:10;" id="shape_13"/></g><g id="I20"><path d="M 1005.0000000000001 1050L 225.1726237476303 1050" style="fill:none;stroke:#aaaaaa;stroke-width:0.3;stroke-linecap:round;stroke-miterlimit:10;stroke-dasharray:5,10;" id="shape_14"/><text id="text_4" transform="matrix(1.0000,0.0000,0.0000,1.0000,1005.0000,1056.60)" fill="#000000" style="font-size:20px;font-family:Arial;">3394949-submission.assembly 17 40 RUMEN 9 refined c7 extraction</text><path d="M 225.1726237476303 1050L 225.1726237476303 1050" style="fill:none;stroke:#000000;stroke-linecap:round;stroke-miterlimit:10;" id="shape_15"/></g><g id="I26"><path d="M 1005.0000000000001 899.9999999999997L 225.1726237476303 899.9999999999997" style="fill:none;stroke:#aaaaaa;stroke-width:0.3;stroke-linecap:round;stroke-miterlimit:10;stroke-dasharray:5,10;" id="shape_16"/><text id="text_5" transform="matrix(1.0000,0.0000,0.0000,1.0000,1005.0000,906.60)" fill="#000000" style="font-size:20px;font-family:Arial;">Enterococcus faecalis D32 123 refined c7 extraction</text><path d="M 225.1726237476303 899.9999999999997L 225.1726237476303 899.9999999999997" style="fill:none;stroke:#000000;stroke-linecap:round;stroke-miterlimit:10;" id="shape_17"/></g><g id="I69"><path d="M 1005.0000000000001 60L 135.3098315377488 60" style="fill:none;stroke:#aaaaaa;stroke-width:0.3;stroke-linecap:round;stroke-miterlimit:10;stroke-dasharray:5,10;" id="shape_18"/><text id="text_6" transform="matrix(1.0000,0.0000,0.0000,1.0000,1005.0000,66.60)" fill="#000000" style="font-size:20px;font-family:Arial;">4304098-submission.assembly 1 297 RUMEN 11 refined c7 extraction</text><path d="M 135.3098315377488 60L 130.6833112277483 60" style="fill:none;stroke:#000000;stroke-linecap:round;stroke-miterlimit:10;" id="shape_19"/></g><g id="I33"><path d="M 1005.0000000000001 689.9999999999997L 222.42546571725194 689.9999999999997" style="fill:none;stroke:#aaaaaa;stroke-width:0.3;stroke-linecap:round;stroke-miterlimit:10;stroke-dasharray:5,10;" id="shape_20"/><text id="text_7" transform="matrix(1.0000,0.0000,0.0000,1.0000,1005.0000,696.60)" fill="#000000" style="font-size:20px;font-family:Arial;">Intestinimonas butyriciproducens 125 refined c7 extraction</text><path d="M 222.42546571725194 689.9999999999997L 220.0735296033413 689.9999999999997" style="fill:none;stroke:#000000;stroke-linecap:round;stroke-miterlimit:10;" id="shape_21"/></g><g id="I44"><path d="M 211.58427219880565 464.9999999999998L 211.58427219880565 464.9999999999998M 211.58427219880565 479.99999999999983L 211.58427219880565 449.99999999999983" style="fill:none;stroke:#000000;stroke-linecap:round;stroke-miterlimit:10;" id="shape_22"/></g><g id="I56"><path d="M 1005.0000000000001 240L 102.60278013232785 240" style="fill:none;stroke:#aaaaaa;stroke-width:0.3;stroke-linecap:round;stroke-miterlimit:10;stroke-dasharray:5,10;" id="shape_23"/><text id="text_8" transform="matrix(1.0000,0.0000,0.0000,1.0000,1005.0000,246.60)" fill="#000000" style="font-size:20px;font-family:Arial;">Campylobacter sp. P0111 101 refined c7 extraction</text><path d="M 102.60278013232785 240L 98.99963503304701 240" style="fill:none;stroke:#000000;stroke-linecap:round;stroke-miterlimit:10;" id="shape_24"/></g><g id="I28"><path d="M 1005.0000000000001 839.9999999999995L 223.6832694396491 839.9999999999995" style="fill:none;stroke:#aaaaaa;stroke-width:0.3;stroke-linecap:round;stroke-miterlimit:10;stroke-dasharray:5,10;" id="shape_25"/><text id="text_9" transform="matrix(1.0000,0.0000,0.0000,1.0000,1005.0000,846.60)" fill="#000000" style="font-size:20px;font-family:Arial;">Blautia 118 refined c7 extraction</text><path d="M 223.6832694396491 839.9999999999995L 222.5074192551987 839.9999999999995" style="fill:none;stroke:#000000;stroke-linecap:round;stroke-miterlimit:10;" id="shape_26"/></g><g id="I68"><path d="M 130.6833112277483 75L 0.00006735571708116462 75M 130.6833112277483 90L 130.6833112277483 60" style="fill:none;stroke:#000000;stroke-linecap:round;stroke-miterlimit:10;" id="shape_27"/></g><g id="I54"><path d="M 98.99963503304701 225L 80.76363184879936 225M 98.99963503304701 240L 98.99963503304701 210.00000000000003" style="fill:none;stroke:#000000;stroke-linecap:round;stroke-miterlimit:10;" id="shape_28"/></g><g id="I4"><path d="M 152.0518512392777 629.9995422363278L 84.12845711292952 629.9995422363278M 152.0518512392777 659.9990844726559L 152.0518512392777 599.9999999999997" style="fill:none;stroke:#000000;stroke-linecap:round;stroke-miterlimit:10;" id="shape_29"/></g><g id="I27"><path d="M 1005.0000000000001 869.9999999999995L 226.34570010118637 869.9999999999995" style="fill:none;stroke:#aaaaaa;stroke-width:0.3;stroke-linecap:round;stroke-miterlimit:10;stroke-dasharray:5,10;" id="shape_30"/><text id="text_10" transform="matrix(1.0000,0.0000,0.0000,1.0000,1005.0000,876.60)" fill="#000000" style="font-size:20px;font-family:Arial;">Massiliomicrobiota timonensis 128 refined c7 extraction</text><path d="M 226.34570010118637 869.9999999999995L 225.1726237476303 869.9999999999995" style="fill:none;stroke:#000000;stroke-linecap:round;stroke-miterlimit:10;" id="shape_31"/></g><g id="I67"><path d="M 1005.0000000000001 30L 136.03303293367279 30" style="fill:none;stroke:#aaaaaa;stroke-width:0.3;stroke-linecap:round;stroke-miterlimit:10;stroke-dasharray:5,10;" id="shape_32"/><text id="text_11" transform="matrix(1.0000,0.0000,0.0000,1.0000,1005.0000,36.60)" fill="#000000" style="font-size:20px;font-family:Arial;">Salinicoccus sediminis 134 refined c7 extraction</text><path d="M 136.03303293367279 30L 0.00006735571708116462 30" style="fill:none;stroke:#000000;stroke-linecap:round;stroke-miterlimit:10;" id="shape_33"/></g><g id="I15"><path d="M 225.1726237476303 959.0624999999999L 225.1726237476303 959.0624999999999M 225.1726237476303 988.1249999999999L 225.1726237476303 929.9999999999998" style="fill:none;stroke:#000000;stroke-linecap:round;stroke-miterlimit:10;" id="shape_34"/></g><g id="I62"><path d="M 1005.0000000000001 329.99999999999994L 98.80167964216896 329.99999999999994" style="fill:none;stroke:#aaaaaa;stroke-width:0.3;stroke-linecap:round;stroke-miterlimit:10;stroke-dasharray:5,10;" id="shape_35"/><text id="text_12" transform="matrix(1.0000,0.0000,0.0000,1.0000,1005.0000,336.60)" fill="#000000" style="font-size:20px;font-family:Arial;">4309680-submission.assembly 52 14 RUMEN 2 refined c7 extraction</text><path d="M 98.80167964216896 329.99999999999994L 98.80167964216896 329.99999999999994" style="fill:none;stroke:#000000;stroke-linecap:round;stroke-miterlimit:10;" id="shape_36"/></g><g id="I61"><path d="M 98.80167964216896 352.4999999999999L 98.80167964216896 352.4999999999999M 98.80167964216896 374.9999999999999L 98.80167964216896 329.99999999999994" style="fill:none;stroke:#000000;stroke-linecap:round;stroke-miterlimit:10;" id="shape_37"/></g><g id="I70"><path d="M 1005.0000000000001 90L 140.2549780674018 90" style="fill:none;stroke:#aaaaaa;stroke-width:0.3;stroke-linecap:round;stroke-miterlimit:10;stroke-dasharray:5,10;" id="shape_38"/><text id="text_13" transform="matrix(1.0000,0.0000,0.0000,1.0000,1005.0000,96.60)" fill="#000000" style="font-size:20px;font-family:Arial;">Lachnospiraceae bacterium TF09-5 137 refined c7 extraction</text><path d="M 140.2549780674018 90L 130.6833112277483 90" style="fill:none;stroke:#000000;stroke-linecap:round;stroke-miterlimit:10;" id="shape_39"/></g><g id="I21"><path d="M 1005.0000000000001 1080L 225.1726237476303 1080" style="fill:none;stroke:#aaaaaa;stroke-width:0.3;stroke-linecap:round;stroke-miterlimit:10;stroke-dasharray:5,10;" id="shape_40"/><text id="text_14" transform="matrix(1.0000,0.0000,0.0000,1.0000,1005.0000,1086.60)" fill="#000000" style="font-size:20px;font-family:Arial;">RUG117 52 14 RUMEN 10 refined c7 extraction</text><path d="M 225.1726237476303 1080L 225.1726237476303 1080" style="fill:none;stroke:#000000;stroke-linecap:round;stroke-miterlimit:10;" id="shape_41"/></g><g id="I25"><path d="M 1005.0000000000001 929.9999999999998L 225.1726237476303 929.9999999999998" style="fill:none;stroke:#aaaaaa;stroke-width:0.3;stroke-linecap:round;stroke-miterlimit:10;stroke-dasharray:5,10;" id="shape_42"/><text id="text_15" transform="matrix(1.0000,0.0000,0.0000,1.0000,1005.0000,936.60)" fill="#000000" style="font-size:20px;font-family:Arial;">Christensenella massiliensis 121 refined c7 extraction</text><path d="M 225.1726237476303 929.9999999999998L 225.1726237476303 929.9999999999998" style="fill:none;stroke:#000000;stroke-linecap:round;stroke-miterlimit:10;" id="shape_43"/></g><g id="I23"><path d="M 1005.0000000000001 989.9999999999999L 225.1726237476303 989.9999999999999" style="fill:none;stroke:#aaaaaa;stroke-width:0.3;stroke-linecap:round;stroke-miterlimit:10;stroke-dasharray:5,10;" id="shape_44"/><text id="text_16" transform="matrix(1.0000,0.0000,0.0000,1.0000,1005.0000,996.60)" fill="#000000" style="font-size:20px;font-family:Arial;">3964017-submission.assembly 7 86 RUMEN 7 refined c7 extraction</text><path d="M 225.1726237476303 989.9999999999999L 225.1726237476303 989.9999999999999" style="fill:none;stroke:#000000;stroke-linecap:round;stroke-miterlimit:10;" id="shape_45"/></g><g id="I71"><path d="M 1005.0000000000001 0L 1000.0000000000001 0" style="fill:none;stroke:#aaaaaa;stroke-width:0.3;stroke-linecap:round;stroke-miterlimit:10;stroke-dasharray:5,10;" id="shape_46"/><text id="text_17" transform="matrix(1.0000,0.0000,0.0000,1.0000,1005.0000,6.60)" fill="#000000" style="font-size:20px;font-family:Arial;">RUG783 103 3 RUMEN 96</text><path d="M 1000.0000000000001 0L 0 0" style="fill:none;stroke:#000000;stroke-linecap:round;stroke-miterlimit:10;" id="shape_47"/></g><g id="I1"><path d="M 24.26656872492257 344.8827552795409L 0 344.8827552795409M 24.26656872492257 511.8748855590818L 24.26656872492257 177.89062499999997" style="fill:none;stroke:#000000;stroke-linecap:round;stroke-miterlimit:10;" id="shape_48"/></g><g id="I29"><path d="M 1005.0000000000001 809.9999999999995L 223.67932300695284 809.9999999999995" style="fill:none;stroke:#aaaaaa;stroke-width:0.3;stroke-linecap:round;stroke-miterlimit:10;stroke-dasharray:5,10;" id="shape_49"/><text id="text_18" transform="matrix(1.0000,0.0000,0.0000,1.0000,1005.0000,816.60)" fill="#000000" style="font-size:20px;font-family:Arial;">Lactobacillus reuteri 119 refined c7 extraction</text><path d="M 223.67932300695284 809.9999999999995L 222.5074192551987 809.9999999999995" style="fill:none;stroke:#000000;stroke-linecap:round;stroke-miterlimit:10;" id="shape_50"/></g><g id="I37"><path d="M 179.02420321454977 532.4999999999999L 84.12845711292952 532.4999999999999M 179.02420321454977 554.9999999999998L 179.02420321454977 509.9999999999998" style="fill:none;stroke:#000000;stroke-linecap:round;stroke-miterlimit:10;" id="shape_51"/></g><g id="I40"><path d="M 1005.0000000000001 539.9999999999998L 179.02420321454977 539.9999999999998" style="fill:none;stroke:#aaaaaa;stroke-width:0.3;stroke-linecap:round;stroke-miterlimit:10;stroke-dasharray:5,10;" id="shape_52"/><text id="text_19" transform="matrix(1.0000,0.0000,0.0000,1.0000,1005.0000,546.60)" fill="#000000" style="font-size:20px;font-family:Arial;">2917049-submission.assembly 6 69 RUMEN 4 refined c7 extraction</text><path d="M 179.02420321454977 539.9999999999998L 179.02420321454977 539.9999999999998" style="fill:none;stroke:#000000;stroke-linecap:round;stroke-miterlimit:10;" id="shape_53"/></g><g id="I57"><path d="M 98.80167964216896 298.12499999999994L 80.76363184879936 298.12499999999994M 98.80167964216896 326.2499999999999L 98.80167964216896 269.99999999999994" style="fill:none;stroke:#000000;stroke-linecap:round;stroke-miterlimit:10;" id="shape_54"/></g><g id="I31"><path d="M 1005.0000000000001 749.9999999999995L 223.67905664570804 749.9999999999995" style="fill:none;stroke:#aaaaaa;stroke-width:0.3;stroke-linecap:round;stroke-miterlimit:10;stroke-dasharray:5,10;" id="shape_55"/><text id="text_20" transform="matrix(1.0000,0.0000,0.0000,1.0000,1005.0000,756.60)" fill="#000000" style="font-size:20px;font-family:Arial;">Coprococcus 124 refined c7 extraction</text><path d="M 223.67905664570804 749.9999999999995L 222.5074192551987 749.9999999999995" style="fill:none;stroke:#000000;stroke-linecap:round;stroke-miterlimit:10;" id="shape_56"/></g><g id="I36"><path d="M 1005.0000000000001 599.9999999999997L 191.01388824981754 599.9999999999997" style="fill:none;stroke:#aaaaaa;stroke-width:0.3;stroke-linecap:round;stroke-miterlimit:10;stroke-dasharray:5,10;" id="shape_57"/><text id="text_21" transform="matrix(1.0000,0.0000,0.0000,1.0000,1005.0000,606.60)" fill="#000000" style="font-size:20px;font-family:Arial;">bacterium 0.1xD8-82 132 refined c7 extraction</text><path d="M 191.01388824981754 599.9999999999997L 152.0518512392777 599.9999999999997" style="fill:none;stroke:#000000;stroke-linecap:round;stroke-miterlimit:10;" id="shape_58"/></g><g id="I58"><path d="M 1005.0000000000001 269.99999999999994L 98.80167964216896 269.99999999999994" style="fill:none;stroke:#aaaaaa;stroke-width:0.3;stroke-linecap:round;stroke-miterlimit:10;stroke-dasharray:5,10;" id="shape_59"/><text id="text_22" transform="matrix(1.0000,0.0000,0.0000,1.0000,1005.0000,276.60)" fill="#000000" style="font-size:20px;font-family:Arial;">Bacteroides sp. HMSC067B03 102 refined c7 extraction</text><path d="M 98.80167964216896 269.99999999999994L 98.80167964216896 269.99999999999994" style="fill:none;stroke:#000000;stroke-linecap:round;stroke-miterlimit:10;" id="shape_60"/></g><g id="I17"><path d="M 225.1726237476303 1016.2499999999999L 225.1726237476303 1016.2499999999999M 225.1726237476303 1042.5L 225.1726237476303 989.9999999999999" style="fill:none;stroke:#000000;stroke-linecap:round;stroke-miterlimit:10;" id="shape_61"/></g><g id="I53"><path d="M 80.76363184879936 261.5625L 66.2434231390273 261.5625M 80.76363184879936 298.12499999999994L 80.76363184879936 225" style="fill:none;stroke:#000000;stroke-linecap:round;stroke-miterlimit:10;" id="shape_62"/></g><g id="I55"><path d="M 1005.0000000000001 210.00000000000003L 98.99963503304701 210.00000000000003" style="fill:none;stroke:#aaaaaa;stroke-width:0.3;stroke-linecap:round;stroke-miterlimit:10;stroke-dasharray:5,10;" id="shape_63"/><text id="text_23" transform="matrix(1.0000,0.0000,0.0000,1.0000,1005.0000,216.60)" fill="#000000" style="font-size:20px;font-family:Arial;">Hungateiclostridium clariflavum 107 refined c7 extraction</text><path d="M 98.99963503304701 210.00000000000003L 98.99963503304701 210.00000000000003" style="fill:none;stroke:#000000;stroke-linecap:round;stroke-miterlimit:10;" id="shape_64"/></g><g id="I16"><path d="M 225.1726237476303 988.1249999999999L 225.1726237476303 988.1249999999999M 225.1726237476303 1016.2499999999999L 225.1726237476303 959.9999999999998" style="fill:none;stroke:#000000;stroke-linecap:round;stroke-miterlimit:10;" id="shape_65"/></g><g id="I49"><path d="M 1005.0000000000001 120L 122.55050027800615 120" style="fill:none;stroke:#aaaaaa;stroke-width:0.3;stroke-linecap:round;stroke-miterlimit:10;stroke-dasharray:5,10;" id="shape_66"/><text id="text_24" transform="matrix(1.0000,0.0000,0.0000,1.0000,1005.0000,126.60)" fill="#000000" style="font-size:20px;font-family:Arial;">Alkaliphilus oremlandii 113 refined c7 extraction</text><path d="M 122.55050027800615 120L 84.3810410519839 120" style="fill:none;stroke:#000000;stroke-linecap:round;stroke-miterlimit:10;" id="shape_67"/></g><g id="I0"><path d="M 0 172.44137763977045L 0 172.44137763977045M 0 344.8827552795409L 0 0" style="fill:none;stroke:#000000;stroke-linecap:round;stroke-miterlimit:10;" id="shape_68"/></g><g id="I63"><path d="M 98.80167964216896 374.9999999999999L 98.80167964216896 374.9999999999999M 98.80167964216896 389.9999999999999L 98.80167964216896 359.9999999999999" style="fill:none;stroke:#000000;stroke-linecap:round;stroke-miterlimit:10;" id="shape_69"/></g><g id="I64"><path d="M 1005.0000000000001 359.9999999999999L 98.80167964216896 359.9999999999999" style="fill:none;stroke:#aaaaaa;stroke-width:0.3;stroke-linecap:round;stroke-miterlimit:10;stroke-dasharray:5,10;" id="shape_70"/><text id="text_25" transform="matrix(1.0000,0.0000,0.0000,1.0000,1005.0000,366.60)" fill="#000000" style="font-size:20px;font-family:Arial;">4309689-submission.assembly 79 12 RUMEN 3 refined c7 extraction</text><path d="M 98.80167964216896 359.9999999999999L 98.80167964216896 359.9999999999999" style="fill:none;stroke:#000000;stroke-linecap:round;stroke-miterlimit:10;" id="shape_71"/></g><g id="I8"><path d="M 220.0735296033413 749.9926757812497L 220.0735296033413 749.9926757812497M 220.0735296033413 779.9853515624997L 220.0735296033413 719.9999999999997" style="fill:none;stroke:#000000;stroke-linecap:round;stroke-miterlimit:10;" id="shape_72"/></g><g id="I32"><path d="M 1005.0000000000001 719.9999999999997L 221.24546090970702 719.9999999999997" style="fill:none;stroke:#aaaaaa;stroke-width:0.3;stroke-linecap:round;stroke-miterlimit:10;stroke-dasharray:5,10;" id="shape_73"/><text id="text_26" transform="matrix(1.0000,0.0000,0.0000,1.0000,1005.0000,726.60)" fill="#000000" style="font-size:20px;font-family:Arial;">Lachnoclostridium sp. An169 122 refined c7 extraction</text><path d="M 221.24546090970702 719.9999999999997L 220.0735296033413 719.9999999999997" style="fill:none;stroke:#000000;stroke-linecap:round;stroke-miterlimit:10;" id="shape_74"/></g><g id="I2"><path d="M 37.69706602752052 511.8748855590818L 24.26656872492257 511.8748855590818M 37.69706602752052 581.2497711181638L 37.69706602752052 442.49999999999983" style="fill:none;stroke:#000000;stroke-linecap:round;stroke-miterlimit:10;" id="shape_75"/></g><g id="I39"><path d="M 179.02420321454977 554.9999999999998L 179.02420321454977 554.9999999999998M 179.02420321454977 569.9999999999998L 179.02420321454977 539.9999999999998" style="fill:none;stroke:#000000;stroke-linecap:round;stroke-miterlimit:10;" id="shape_76"/></g><g id="I42"><path d="M 211.58427219880565 442.49999999999983L 37.69706602752052 442.49999999999983M 211.58427219880565 464.9999999999998L 211.58427219880565 419.99999999999983" style="fill:none;stroke:#000000;stroke-linecap:round;stroke-miterlimit:10;" id="shape_77"/></g><g id="I18"><path d="M 225.1726237476303 1042.5L 225.1726237476303 1042.5M 225.1726237476303 1065L 225.1726237476303 1019.9999999999999" style="fill:none;stroke:#000000;stroke-linecap:round;stroke-miterlimit:10;" id="shape_78"/></g><g id="I35"><path d="M 1005.0000000000001 629.9999999999997L 218.10841124938085 629.9999999999997" style="fill:none;stroke:#aaaaaa;stroke-width:0.3;stroke-linecap:round;stroke-miterlimit:10;stroke-dasharray:5,10;" id="shape_79"/><text id="text_27" transform="matrix(1.0000,0.0000,0.0000,1.0000,1005.0000,636.60)" fill="#000000" style="font-size:20px;font-family:Arial;">uncultured Bacteroides sp. 133 refined c7 extraction</text><path d="M 218.10841124938085 629.9999999999997L 178.99044881542162 629.9999999999997" style="fill:none;stroke:#000000;stroke-linecap:round;stroke-miterlimit:10;" id="shape_80"/></g><g id="I59"><path d="M 98.80167964216896 326.2499999999999L 98.80167964216896 326.2499999999999M 98.80167964216896 352.4999999999999L 98.80167964216896 299.99999999999994" style="fill:none;stroke:#000000;stroke-linecap:round;stroke-miterlimit:10;" id="shape_81"/></g><g id="I10"><path d="M 222.5074192551987 809.9707031249997L 222.5074192551987 809.9707031249997M 222.5074192551987 839.9414062499997L 222.5074192551987 779.9999999999995" style="fill:none;stroke:#000000;stroke-linecap:round;stroke-miterlimit:10;" id="shape_82"/></g><g id="I30"><path d="M 1005.0000000000001 779.9999999999995L 223.68056296447185 779.9999999999995" style="fill:none;stroke:#aaaaaa;stroke-width:0.3;stroke-linecap:round;stroke-miterlimit:10;stroke-dasharray:5,10;" id="shape_83"/><text id="text_28" transform="matrix(1.0000,0.0000,0.0000,1.0000,1005.0000,786.60)" fill="#000000" style="font-size:20px;font-family:Arial;">Absiella sp. AM27-20 120 refined c7 extraction</text><path d="M 223.68056296447185 779.9999999999995L 222.5074192551987 779.9999999999995" style="fill:none;stroke:#000000;stroke-linecap:round;stroke-miterlimit:10;" id="shape_84"/></g><g id="I7"><path d="M 220.0735296033413 719.9963378906247L 185.47403360106694 719.9963378906247M 220.0735296033413 749.9926757812497L 220.0735296033413 689.9999999999997" style="fill:none;stroke:#000000;stroke-linecap:round;stroke-miterlimit:10;" id="shape_85"/></g><g id="I41"><path d="M 1005.0000000000001 569.9999999999998L 179.02420321454977 569.9999999999998" style="fill:none;stroke:#aaaaaa;stroke-width:0.3;stroke-linecap:round;stroke-miterlimit:10;stroke-dasharray:5,10;" id="shape_86"/><text id="text_29" transform="matrix(1.0000,0.0000,0.0000,1.0000,1005.0000,576.60)" fill="#000000" style="font-size:20px;font-family:Arial;">4304452-submission.assembly 11 59 RUMEN 5 refined c7 extraction</text><path d="M 179.02420321454977 569.9999999999998L 179.02420321454977 569.9999999999998" style="fill:none;stroke:#000000;stroke-linecap:round;stroke-miterlimit:10;" id="shape_87"/></g><g id="I65"><path d="M 1005.0000000000001 389.9999999999999L 100.00055323536714 389.9999999999999" style="fill:none;stroke:#aaaaaa;stroke-width:0.3;stroke-linecap:round;stroke-miterlimit:10;stroke-dasharray:5,10;" id="shape_88"/><text id="text_30" transform="matrix(1.0000,0.0000,0.0000,1.0000,1005.0000,396.60)" fill="#000000" style="font-size:20px;font-family:Arial;">Streptococcus gallolyticus 103 refined c7 extraction</text><path d="M 100.00055323536714 389.9999999999999L 98.80167964216896 389.9999999999999" style="fill:none;stroke:#000000;stroke-linecap:round;stroke-miterlimit:10;" id="shape_89"/></g><g id="I13"><path d="M 225.1726237476303 899.7656249999997L 222.5074192551987 899.7656249999997M 225.1726237476303 929.5312499999999L 225.1726237476303 869.9999999999995" style="fill:none;stroke:#000000;stroke-linecap:round;stroke-miterlimit:10;" id="shape_90"/></g><g id="I34"><path d="M 1005.0000000000001 659.9999999999997L 210.59276542713587 659.9999999999997" style="fill:none;stroke:#aaaaaa;stroke-width:0.3;stroke-linecap:round;stroke-miterlimit:10;stroke-dasharray:5,10;" id="shape_91"/><text id="text_31" transform="matrix(1.0000,0.0000,0.0000,1.0000,1005.0000,666.60)" fill="#000000" style="font-size:20px;font-family:Arial;">bacterium D16-50 116 refined c7 extraction</text><path d="M 210.59276542713587 659.9999999999997L 185.47403360106694 659.9999999999997" style="fill:none;stroke:#000000;stroke-linecap:round;stroke-miterlimit:10;" id="shape_92"/></g><g id="I52"><path d="M 1005.0000000000001 180L 111.96156310489933 180" style="fill:none;stroke:#aaaaaa;stroke-width:0.3;stroke-linecap:round;stroke-miterlimit:10;stroke-dasharray:5,10;" id="shape_93"/><text id="text_32" transform="matrix(1.0000,0.0000,0.0000,1.0000,1005.0000,186.60)" fill="#000000" style="font-size:20px;font-family:Arial;">Erysipelotrichaceae bacterium MTC7 111 refined c7 extraction</text><path d="M 111.96156310489933 180L 66.2434231390273 180" style="fill:none;stroke:#000000;stroke-linecap:round;stroke-miterlimit:10;" id="shape_94"/></g><g id="I66"><path d="M 0.00006735571708116462 52.50000000000001L 0 52.50000000000001M 0.00006735571708116462 75L 0.00006735571708116462 30" style="fill:none;stroke:#000000;stroke-linecap:round;stroke-miterlimit:10;" id="shape_95"/></g><g id="I24"><path d="M 1005.0000000000001 959.9999999999998L 225.1726237476303 959.9999999999998" style="fill:none;stroke:#aaaaaa;stroke-width:0.3;stroke-linecap:round;stroke-miterlimit:10;stroke-dasharray:5,10;" id="shape_96"/><text id="text_33" transform="matrix(1.0000,0.0000,0.0000,1.0000,1005.0000,966.60)" fill="#000000" style="font-size:20px;font-family:Arial;">4309680-submission.assembly 59 3 RUMEN 6 refined c7 extraction</text><path d="M 225.1726237476303 959.9999999999998L 225.1726237476303 959.9999999999998" style="fill:none;stroke:#000000;stroke-linecap:round;stroke-miterlimit:10;" id="shape_97"/></g><g id="I19"><path d="M 225.1726237476303 1065L 225.1726237476303 1065M 225.1726237476303 1080L 225.1726237476303 1050" style="fill:none;stroke:#000000;stroke-linecap:round;stroke-miterlimit:10;" id="shape_98"/></g><g id="I60"><path d="M 1005.0000000000001 299.99999999999994L 98.80167964216896 299.99999999999994" style="fill:none;stroke:#aaaaaa;stroke-width:0.3;stroke-linecap:round;stroke-miterlimit:10;stroke-dasharray:5,10;" id="shape_99"/><text id="text_34" transform="matrix(1.0000,0.0000,0.0000,1.0000,1005.0000,306.60)" fill="#000000" style="font-size:20px;font-family:Arial;">RUG782 1 138 RUMEN 1 refined c7 extraction</text><path d="M 98.80167964216896 299.99999999999994L 98.80167964216896 299.99999999999994" style="fill:none;stroke:#000000;stroke-linecap:round;stroke-miterlimit:10;" id="shape_100"/></g><g id="I45"><path d="M 1005.0000000000001 449.99999999999983L 211.58427219880565 449.99999999999983" style="fill:none;stroke:#aaaaaa;stroke-width:0.3;stroke-linecap:round;stroke-miterlimit:10;stroke-dasharray:5,10;" id="shape_101"/><text id="text_35" transform="matrix(1.0000,0.0000,0.0000,1.0000,1005.0000,456.60)" fill="#000000" style="font-size:20px;font-family:Arial;">RMG 330 81 6 RUMEN 13 refined c7 extraction</text><path d="M 211.58427219880565 449.99999999999983L 211.58427219880565 449.99999999999983" style="fill:none;stroke:#000000;stroke-linecap:round;stroke-miterlimit:10;" id="shape_102"/></g><g id="I9"><path d="M 222.5074192551987 779.9853515624997L 220.0735296033413 779.9853515624997M 222.5074192551987 809.9707031249997L 222.5074192551987 749.9999999999995" style="fill:none;stroke:#000000;stroke-linecap:round;stroke-miterlimit:10;" id="shape_103"/></g><g id="I14"><path d="M 225.1726237476303 929.5312499999999L 225.1726237476303 929.5312499999999M 225.1726237476303 959.0624999999999L 225.1726237476303 899.9999999999997" style="fill:none;stroke:#000000;stroke-linecap:round;stroke-miterlimit:10;" id="shape_104"/></g><g id="I3"><path d="M 84.12845711292952 581.2497711181638L 37.69706602752052 581.2497711181638M 84.12845711292952 629.9995422363278L 84.12845711292952 532.4999999999999" style="fill:none;stroke:#000000;stroke-linecap:round;stroke-miterlimit:10;" id="shape_105"/></g><g id="I38"><path d="M 1005.0000000000001 509.9999999999998L 180.2097863001184 509.9999999999998" style="fill:none;stroke:#aaaaaa;stroke-width:0.3;stroke-linecap:round;stroke-miterlimit:10;stroke-dasharray:5,10;" id="shape_106"/><text id="text_36" transform="matrix(1.0000,0.0000,0.0000,1.0000,1005.0000,516.60)" fill="#000000" style="font-size:20px;font-family:Arial;">Eubacterium sp. Marseille-P5640 115 refined c7 extraction</text><path d="M 180.2097863001184 509.9999999999998L 179.02420321454977 509.9999999999998" style="fill:none;stroke:#000000;stroke-linecap:round;stroke-miterlimit:10;" id="shape_107"/></g><g id="I48"><path d="M 84.3810410519839 134.99999999999997L 57.08270577578 134.99999999999997M 84.3810410519839 150L 84.3810410519839 120" style="fill:none;stroke:#000000;stroke-linecap:round;stroke-miterlimit:10;" id="shape_108"/></g></g><g id="container_5"/><g id="container_6"/><g id="container_7"><text id="text_37" transform="matrix(1.0000,0.0000,0.0000,1.0000,165.5212,675.32)" fill="#000000" text-anchor="middle" style="font-size:21px;font-family:Arial;">0.92</text><text id="text_38" transform="matrix(1.0000,0.0000,0.0000,1.0000,40.6746,193.21)" fill="#000000" text-anchor="middle" style="font-size:21px;font-family:Arial;">0.96</text><text id="text_39" transform="matrix(1.0000,0.0000,0.0000,1.0000,65.3417,90.32)" fill="#000000" text-anchor="middle" style="font-size:21px;font-family:Arial;">1</text><text id="text_40" transform="matrix(1.0000,0.0000,0.0000,1.0000,89.8816,240.32)" fill="#000000" text-anchor="middle" style="font-size:21px;font-family:Arial;">1</text><text id="text_41" transform="matrix(1.0000,0.0000,0.0000,1.0000,118.0902,645.32)" fill="#000000" text-anchor="middle" style="font-size:21px;font-family:Arial;">1</text><text id="text_42" transform="matrix(1.0000,0.0000,0.0000,1.0000,131.5763,547.82)" fill="#000000" text-anchor="middle" style="font-size:21px;font-family:Arial;">1</text><text id="text_43" transform="matrix(1.0000,0.0000,0.0000,1.0000,89.7827,313.45)" fill="#000000" text-anchor="middle" style="font-size:21px;font-family:Arial;">1</text><text id="text_44" transform="matrix(1.0000,0.0000,0.0000,1.0000,124.6407,457.82)" fill="#000000" text-anchor="middle" style="font-size:21px;font-family:Arial;">1</text><text id="text_45" transform="matrix(1.0000,0.0000,0.0000,1.0000,202.7738,735.32)" fill="#000000" text-anchor="middle" style="font-size:21px;font-family:Arial;">1</text><text id="text_46" transform="matrix(1.0000,0.0000,0.0000,1.0000,60.9128,596.57)" fill="#000000" text-anchor="middle" style="font-size:21px;font-family:Arial;">0.89</text><text id="text_47" transform="matrix(1.0000,0.0000,0.0000,1.0000,70.7319,150.32)" fill="#000000" text-anchor="middle" style="font-size:21px;font-family:Arial;">1</text></g><g id="container_8"/><g id="container_9"/></g><g id="container_10" transform="matrix(1.0000,0.0000,0.0000,1.0000,100.0000,100.00)"/><g id="container_11" transform="matrix(1.0000,0.0000,0.0000,1.0000,45.0000,36.00)"><path d="M 0 -3L 0 3M 0 0L 30.616235036893013 0M 30.616235036893013 -3L 30.616235036893013 3" style="fill:none;stroke:#000;stroke-width:0.5;stroke-linecap:round;stroke-miterlimit:10;" id="shape_110" transform="matrix(0.4580,0.0000,0.0000,1.0000,105.7373,8.00)"/><text id="text_48" transform="matrix(1.0000,0.0000,0.0000,1.0000,0.0000,10.22)" fill="#555" style="font-weight:bold;font-size:14px;font-family:Arial;">Tree scale: 0.1</text></g></g></svg>